<?xml version="1.0" encoding="UTF-8" standalone="no"?>
<svg
   xmlns:svg="http://www.w3.org/2000/svg"
   xmlns="http://www.w3.org/2000/svg"
   width="300.0"
   height="200.0"

>
    <g transform="scale(2.3076923041420123, -2.3076923041420123)   translate(166.66666679999997,-73.66666667999999)" stroke-width="0.4333333339999999"  fill="none">
       <!-- hidden lines -->
       <g  stroke="rgb(160,160,160)" fill="none" stroke-dasharray="0.4333333339999999,0.4333333339999999" >
			<path d="M-5.0,65.0 L-5.0,13.0 " />
			<path d="M-4.999999999999998,12.999999999999998 L-5.003947517074145,12.748713927374972 L-5.015786172573826,12.49767584376549 L-5.035504283175358,12.247133493451884 L-5.063082389484175,11.997334131485564 L-5.098493275238896,11.74852427967815 L-5.1417019941704885,11.500949483314201 L-5.192665904490019,11.254854068827658 L-5.25133471097095,11.01048090268116 L-5.317650514584454,10.768071151686165 L-5.391547869638769,10.52786404500042 L-5.472953848366195,10.290096638037667 L-5.561788112893987,10.055003578522575 L-5.657962994528149,9.822816874921754 L-5.761383580271842,9.593765667479417 L-5.871947806493055,9.368076002083624 L-5.9895465596490896,9.145970607186277 L-6.114063783968449,8.927668673997028 L-6.245376595983878,8.713385640168024 L-6.383355405803504,8.503332977182954 L-6.5278640450004195,8.297717981660213 L-6.678759900994476,8.096743570776185 L-6.835894057793685,7.900608082010479 L-6.999111442956323,7.709505077410782 L-7.168250980628708,7.5236231525704875 L-7.343145750507619,7.343145750507617 L-7.523623152570491,7.168250980628704 L-7.709505077410785,6.99911144295632 L-7.900608082010483,6.835894057793682 L-8.096743570776189,6.678759900994473 L-8.297717981660217,6.527864045000417 L-8.503332977182957,6.383355405803501 L-8.713385640168028,6.245376595983876 L-8.927668673997031,6.114063783968447 L-9.14597060718628,5.989546559649087 L-9.368076002083628,5.871947806493053 L-9.593765667479422,5.76138358027184 L-9.82281687492176,5.657962994528146 L-10.05500357852258,5.561788112893985 L-10.290096638037673,5.472953848366192 L-10.527864045000426,5.391547869638767 L-10.768071151686172,5.317650514584452 L-11.010480902681167,5.251334710970948 L-11.254854068827665,5.192665904490017 L-11.500949483314209,5.141701994170488 L-11.74852427967816,5.098493275238895 L-11.997334131485573,5.063082389484174 L-12.247133493451893,5.035504283175357 L-12.497675843765501,5.015786172573825 L-12.748713927374983,5.003947517074145 L-13.000000000000009,4.999999999999998 " />
			<path d="M0.0,65.0 L-5.0,65.0 " />
			<path d="M-12.999999999999998,5.0 L-80.0,5.0 " />
			<path d="M0.0,0.0 L0.0,65.0 " />
			<path d="M-80.0,5.0 L-80.0,0.0 " />
			<path d="M-80.0,0.0 L0.0,0.0 " />
			<path d="M-12.959040178953082,5.00010485665779 L-12.816329973681022,5.002108692202361 L-12.67868388828412,5.006455358233095 L-12.546142331315918,5.0128845522809335 L-12.418735682765346,5.021144705235664 L-12.179397541674968,5.042198066893579 L-11.960483679112064,5.0678246485360186 L-11.761428859325209,5.096460188964365 L-11.581682629069844,5.1267302648977084 L-11.420677609190374,5.15744044069457 L-11.277888663343065,5.1875527098285295 L-11.045163734695233,5.242512308776599 L-10.880643264556856,5.285835951301203 L-10.782587494649146,5.31344799015833 L-10.7581437224859,5.320541664283946 L-10.752035923504092,5.322327341462496 L-10.75,5.322923733607954 " />
			<path d="M-10.75,5.322923733607954 L-10.751325473365611,5.3225353719527035 L-10.755302091240972,5.321371748014942 L-10.771214637841714,5.316737924469594 " />
			<path d="M-10.897425771391339,5.2812447797280555 L-11.044326939852283,5.242723234212394 " />
			<path d="M-15.0,5.0 L-14.85129331452854,5.0 L-14.702768744429964,5.0 L-14.554608182047442,5.0 L-14.40699307393786,5.0 L-14.260104198661184,5.0 L-14.114121445387886,5.0 L-13.969223593595585,5.0 L-13.825588094124672,5.0 L-13.68339085186108,5.0 L-13.54280601031232,5.0 L-13.404005738340595,5.0 L-13.267160019314218,5.0 L-13.132436442935482,5.0 L-13.0,5.0 " />
			<path d="M-13.0,5.0 L-13.571624209729233,5.0 L-14.174141006175233,5.0 L-14.794519293103173,5.0 L-15.419341670024567,5.0 L-16.035094620683328,5.0 L-16.628460780311798,5.0 L-17.186606960566984,5.0 L-17.697461702809207,5.0 L-18.149976356864,5.0 L-18.534364038715104,5.0 L-18.84231129900605,5.0 L-19.067157924431946,5.0 L-19.20404098331806,5.0 L-19.249999999999996,5.0 " />
			<path d="M-19.25,5.0 L-19.22327689204628,5.0 L-19.14344362677275,5.0 L-19.011504153810563,5.0 L-18.82911768858528,5.0 L-18.598577846720207,5.0 L-18.322783800489127,5.0 L-18.005203820042826,5.0 L-17.649831657899618,5.0 L-17.261136325190183,5.0 L-16.844005891249623,5.0 L-16.40368601330946,5.0 L-15.945713969314337,5.0 L-15.475849023439059,5.0 L-15.000000000000039,5.0 " />
			<path d="M-65.0,5.0 L-64.52415097656095,5.0 L-64.05428603068566,5.0 L-63.59631398669054,5.0 L-63.15599410875038,5.0 L-62.73886367480982,5.0 L-62.35016834210038,5.0 L-61.99479617995717,5.0 L-61.67721619951087,5.0 L-61.401422153279796,5.0 L-61.170882311414715,5.0 L-60.98849584618944,5.0 L-60.85655637322725,5.0 L-60.77672310795372,5.0 L-60.75,5.0 " />
			<path d="M-60.75,5.0 L-60.85655637322725,5.0 L-61.170882311414715,5.0 L-61.67721619951087,5.0 L-62.35016834210038,5.0 L-63.15599410875038,5.0 L-64.05428603068566,5.0 L-65.0,5.0 L-65.94571396931434,5.0 L-66.84400589124962,5.0 L-67.64983165789961,5.0 L-68.32278380048912,5.0 L-68.82911768858528,5.0 L-69.14344362677275,5.0 L-69.25,5.0 " />
			<path d="M-69.25,5.0 L-69.22327689204629,5.0 L-69.14344362677275,5.0 L-69.01150415381056,5.0 L-68.82911768858528,5.0 L-68.5985778467202,5.0 L-68.32278380048913,5.0 L-68.00520382004282,5.0 L-67.64983165789963,5.0 L-67.26113632519018,5.0 L-66.84400589124962,5.0 L-66.40368601330947,5.0 L-65.94571396931434,5.0 L-65.47584902343905,5.0 L-65.00000000000004,5.0 " />
			<path d="M-65.0,0.0 L-65.47584902343905,0.0 L-65.94571396931434,0.0 L-66.40368601330945,0.0 L-66.84400589124962,0.0 L-67.26113632519018,0.0 L-67.64983165789961,0.0 L-68.00520382004282,0.0 L-68.32278380048913,0.0 L-68.5985778467202,0.0 L-68.82911768858528,0.0 L-69.01150415381056,0.0 L-69.14344362677275,0.0 L-69.22327689204629,0.0 L-69.25,0.0 " />
			<path d="M-69.25,0.0 L-69.14344362677275,0.0 L-68.82911768858528,0.0 L-68.32278380048913,0.0 L-67.64983165789961,0.0 L-66.84400589124962,0.0 L-65.94571396931434,0.0 L-65.0,0.0 L-64.05428603068566,0.0 L-63.15599410875038,0.0 L-62.35016834210038,0.0 L-61.67721619951087,0.0 L-61.17088231141472,0.0 L-60.85655637322725,0.0 L-60.75000000000001,0.0 " />
			<path d="M-60.75,0.0 L-60.77672310795372,0.0 L-60.85655637322725,0.0 L-60.98849584618944,0.0 L-61.170882311414715,0.0 L-61.40142215327979,0.0 L-61.67721619951087,0.0 L-61.99479617995717,0.0 L-62.35016834210038,0.0 L-62.73886367480982,0.0 L-63.15599410875038,0.0 L-63.59631398669054,0.0 L-64.05428603068566,0.0 L-64.52415097656095,0.0 L-64.99999999999996,0.0 " />
			<path d="M-15.0,0.0 L-15.475849023439059,0.0 L-15.945713969314337,0.0 L-16.40368601330946,0.0 L-16.844005891249623,0.0 L-17.26113632519018,0.0 L-17.649831657899618,0.0 L-18.005203820042826,0.0 L-18.322783800489127,0.0 L-18.598577846720207,0.0 L-18.82911768858528,0.0 L-19.011504153810563,0.0 L-19.14344362677275,0.0 L-19.22327689204628,0.0 L-19.25,0.0 " />
			<path d="M-19.25,0.0 L-19.14344362677275,0.0 L-18.82911768858528,0.0 L-18.322783800489127,0.0 L-17.649831657899618,0.0 L-16.844005891249623,0.0 L-15.945713969314337,0.0 L-15.0,0.0 L-14.054286030685665,0.0 L-13.15599410875038,0.0 L-12.350168342100384,0.0 L-11.677216199510873,0.0 L-11.170882311414719,0.0 L-10.85655637322725,0.0 L-10.750000000000004,0.0 " />
			<path d="M-10.75,0.0 L-10.77672310795372,0.0 L-10.85655637322725,0.0 L-10.988495846189437,0.0 L-11.170882311414719,0.0 L-11.401422153279793,0.0 L-11.677216199510873,0.0 L-11.994796179957172,0.0 L-12.350168342100382,0.0 L-12.738863674809819,0.0 L-13.155994108750377,0.0 L-13.59631398669054,0.0 L-14.054286030685663,0.0 L-14.524150976560941,0.0 L-14.999999999999961,0.0 " />
			<path d="M-15.0,2.5 L-15.475849023439059,2.5 L-15.945713969314337,2.5 L-16.40368601330946,2.5 L-16.844005891249623,2.5 L-17.26113632519018,2.5 L-17.649831657899618,2.5 L-18.005203820042826,2.5 L-18.322783800489127,2.5 L-18.598577846720207,2.5 L-18.82911768858528,2.5 L-19.011504153810563,2.5 L-19.14344362677275,2.5 L-19.22327689204628,2.5 L-19.25,2.5 " />
			<path d="M-19.25,2.5 L-19.14344362677275,2.5 L-18.82911768858528,2.5 L-18.322783800489127,2.5 L-17.649831657899618,2.5 L-16.844005891249623,2.5 L-15.945713969314337,2.5 L-15.0,2.5 L-14.054286030685665,2.5 L-13.15599410875038,2.5 L-12.350168342100384,2.5 L-11.677216199510873,2.5 L-11.170882311414719,2.5 L-10.85655637322725,2.5 L-10.750000000000004,2.5 " />
			<path d="M-10.75,2.5 L-10.77672310795372,2.5 L-10.85655637322725,2.5 L-10.988495846189437,2.5 L-11.170882311414719,2.5 L-11.401422153279793,2.5 L-11.677216199510873,2.5 L-11.994796179957172,2.5 L-12.350168342100382,2.5 L-12.738863674809819,2.5 L-13.155994108750377,2.5 L-13.59631398669054,2.5 L-14.054286030685663,2.5 L-14.524150976560941,2.5 L-14.999999999999961,2.5 " />
			<path d="M-65.0,2.5 L-65.47584902343905,2.5 L-65.94571396931434,2.5 L-66.40368601330945,2.5 L-66.84400589124962,2.5 L-67.26113632519018,2.5 L-67.64983165789961,2.5 L-68.00520382004282,2.5 L-68.32278380048913,2.5 L-68.5985778467202,2.5 L-68.82911768858528,2.5 L-69.01150415381056,2.5 L-69.14344362677275,2.5 L-69.22327689204629,2.5 L-69.25,2.5 " />
			<path d="M-69.25,2.5 L-69.14344362677275,2.5 L-68.82911768858528,2.5 L-68.32278380048913,2.5 L-67.64983165789961,2.5 L-66.84400589124962,2.5 L-65.94571396931434,2.5 L-65.0,2.5 L-64.05428603068566,2.5 L-63.15599410875038,2.5 L-62.35016834210038,2.5 L-61.67721619951087,2.5 L-61.17088231141472,2.5 L-60.85655637322725,2.5 L-60.75000000000001,2.5 " />
			<path d="M-60.75,2.5 L-60.77672310795372,2.5 L-60.85655637322725,2.5 L-60.98849584618944,2.5 L-61.170882311414715,2.5 L-61.40142215327979,2.5 L-61.67721619951087,2.5 L-61.99479617995717,2.5 L-62.35016834210038,2.5 L-62.73886367480982,2.5 L-63.15599410875038,2.5 L-63.59631398669054,2.5 L-64.05428603068566,2.5 L-64.52415097656095,2.5 L-64.99999999999996,2.5 " />
			<path d="M-19.25,5.0 L-19.25,2.5 " />
			<path d="M-10.75,5.322923733607954 L-10.75,2.5 " />
			<path d="M-69.25,5.0 L-69.25,2.5 " />
			<path d="M-60.75,5.0 L-60.75,2.5 " />
			<path d="M-60.75,0.0 L-60.75,2.5 " />
			<path d="M-69.25,0.0 L-69.25,2.5 " />
			<path d="M-10.75,0.0 L-10.75,2.5 " />
			<path d="M-19.25,0.0 L-19.25,2.5 " />

       </g>

       <!-- solid lines -->
       <g  stroke="rgb(0,0,0)" fill="none">
			<path d="M-5.0,65.0 L-5.0,13.0 " />
			<path d="M-4.999999999999998,12.999999999999998 L-5.003947517074145,12.748713927374972 L-5.015786172573826,12.49767584376549 L-5.035504283175358,12.247133493451884 L-5.063082389484175,11.997334131485564 L-5.098493275238896,11.74852427967815 L-5.1417019941704885,11.500949483314201 L-5.192665904490019,11.254854068827658 L-5.25133471097095,11.01048090268116 L-5.317650514584454,10.768071151686165 L-5.391547869638769,10.52786404500042 L-5.472953848366195,10.290096638037667 L-5.561788112893987,10.055003578522575 L-5.657962994528149,9.822816874921754 L-5.761383580271842,9.593765667479417 L-5.871947806493055,9.368076002083624 L-5.9895465596490896,9.145970607186277 L-6.114063783968449,8.927668673997028 L-6.245376595983878,8.713385640168024 L-6.383355405803504,8.503332977182954 L-6.5278640450004195,8.297717981660213 L-6.678759900994476,8.096743570776185 L-6.835894057793685,7.900608082010479 L-6.999111442956323,7.709505077410782 L-7.168250980628708,7.5236231525704875 L-7.343145750507619,7.343145750507617 L-7.523623152570491,7.168250980628704 L-7.709505077410785,6.99911144295632 L-7.900608082010483,6.835894057793682 L-8.096743570776189,6.678759900994473 L-8.297717981660217,6.527864045000417 L-8.503332977182957,6.383355405803501 L-8.713385640168028,6.245376595983876 L-8.927668673997031,6.114063783968447 L-9.14597060718628,5.989546559649087 L-9.368076002083628,5.871947806493053 L-9.593765667479422,5.76138358027184 L-9.82281687492176,5.657962994528146 L-10.05500357852258,5.561788112893985 L-10.290096638037673,5.472953848366192 L-10.527864045000426,5.391547869638767 L-10.768071151686172,5.317650514584452 L-11.010480902681167,5.251334710970948 L-11.254854068827665,5.192665904490017 L-11.500949483314209,5.141701994170488 L-11.74852427967816,5.098493275238895 L-11.997334131485573,5.063082389484174 L-12.247133493451893,5.035504283175357 L-12.497675843765501,5.015786172573825 L-12.748713927374983,5.003947517074145 L-13.000000000000009,4.999999999999998 " />
			<path d="M-13.0,4.999999999999999 L-12.959040178953082,5.00010485665779 " />
			<path d="M-10.771214637841716,5.316737924469594 L-10.897425771391337,5.281244779728056 " />
			<path d="M-11.044326939852287,5.242723234212394 L-11.183678171203045,5.20891696296402 L-11.351130163608742,5.171767228395833 L-11.547540237037152,5.13295729993331 L-11.773938000102387,5.094510009640975 L-11.898740338069977,5.076160832785712 L-12.03146820155973,5.058844784213208 L-12.172258597911096,5.042937465786811 L-12.321269335568667,5.02884420337237 L-12.478589161970934,5.017009913360498 L-12.644191250795457,5.007916410606048 L-12.818021556043862,5.002070024321218 L-12.999999999999977,4.999999999999999 " />
			<path d="M0.0,65.0 L-5.0,65.0 " />
			<path d="M-12.999999999999998,5.0 L-80.0,5.0 " />
			<path d="M0.0,0.0 L0.0,65.0 " />
			<path d="M-80.0,5.0 L-80.0,0.0 " />
			<path d="M-80.0,0.0 L0.0,0.0 " />

       </g>
    </g>
    
</svg>
