<?xml version="1.0" encoding="UTF-8" standalone="no"?>
<svg
   xmlns:svg="http://www.w3.org/2000/svg"
   xmlns="http://www.w3.org/2000/svg"
   width="300.0"
   height="200.0"

>
    <g transform="scale(2.8125, -2.8125)   translate(71.11111111111111,-57.11111121111111)" stroke-width="0.35555555555555557"  fill="none">
       <!-- hidden lines -->
       <g  stroke="rgb(160,160,160)" fill="none" stroke-dasharray="0.35555555555555557,0.35555555555555557" >
			<path d="M4.999999999999998,0.0 L4.999999999999998,50.0 " />
			<path d="M80.0,0.0 L0.0,0.0 " />
			<path d="M80.0,50.0 L0.0,50.0 " />
			<path d="M0.0,0.0 L0.0,50.0 " />
			<path d="M80.0,0.0 L80.0,50.0 " />
			<path d="M65.0,20.75 L65.18410470010747,20.7539894654631 L65.36786376287719,20.76595037204784 L65.55093219986946,20.78586026440188 L65.73296631922226,20.813681763782668 L65.91362437089685,20.84936263823213 L66.09256718827784,20.89283590063671 L66.26945882492294,20.944019934488672 L66.4439671852674,21.002818647112573 L66.61576464809869,21.06912165006922 L66.78452868163113,21.14280446639843 L66.94994244902554,21.223728764311513 L67.11169540321741,21.311742616894744 L67.26948386993648,21.406680787336292 L67.42301161782346,21.50836503914104 L67.5719904145735,21.616604470751014 L67.7161405680622,21.731195873943076 L67.85519145143833,21.85192411533116 L67.98888201119749,21.9785625402567 L68.1169612572828,22.110873398309092 L68.23918873429245,22.248608289677232 L68.35533497290969,22.391508631494215 L68.46518192070735,22.539306143299644 L68.56852335151866,22.69172335070816 L68.6651652526052,22.84847410633862 L68.7549261888956,23.009264127025894 L68.83763764361089,23.173791546306756 L68.91314433463721,23.341747481142644 L68.98130450605169,23.512816611815275 L69.04199019425441,23.686677773906474 L69.0950874682067,23.863004561250815 L69.14049664332474,24.04146593872908 L69.17813246862697,24.221726863752117 L69.20792428678385,24.403448915268292 L69.22981616676971,24.586290929113648 L69.24376700886728,24.76990963851198 L69.24975062182823,24.953960318522334 L69.24775577204444,25.138097433224072 L69.23778620463796,25.32197528442445 L69.21986063642987,25.50524866067086 L69.19401272080148,25.687573485349258 L69.16029098451361,25.868607462652058 L69.11875873660259,26.048010720202747 L69.06949394952427,26.22544644713075 L69.01258911276881,26.400581526398653 L68.94815105922136,26.573087160194646 L68.87630076459445,26.742639487216028 L68.79717312030873,26.908920190684995 L68.71091668024849,27.071617095955116 L68.61769338186717,27.23042475658661 L68.51767824216678,27.385045027790134 L68.41105902912172,27.535187626162454 L68.29803590916406,27.680570674663223 L68.17882107139195,27.820921231809653 L68.05363832920683,27.955975804095647 L67.92272270012704,28.085480840673316 L67.78631996456707,28.2091932093682 L67.6446862044105,28.32688065313452 L67.498087322243,28.438322226093536 L67.34679854214802,28.543308708336312 L67.19110389300234,28.641642998712264 L67.0312956752415,28.733140484865956 L66.86767391209631,28.81762938982752 L66.70054578633061,28.894951094505966 L66.5302250635376,28.96496043547995 L66.35703150307789,29.027525977526917 L66.1812902577646,29.082530260379023 L66.00333126342296,29.129870019242503 L65.82348861947028,29.16945637866652 L65.64209996167918,29.201215019397555 L65.45950582830173,29.22508631790603 L65.27604902074448,29.24102545832326 L65.09207395999456,29.249002516578557 L64.90792604000539,29.249002516578557 L64.72395097925548,29.241025458323257 L64.54049417169823,29.225086317906026 L64.35790003832078,29.201215019397548 L64.17651138052967,29.16945637866651 L63.99666873657699,29.129870019242492 L63.81870974223535,29.082530260379013 L63.64296849692206,29.027525977526903 L63.46977493646236,28.96496043547993 L63.29945421366936,28.89495109450595 L63.13232608790365,28.817629389827502 L62.96870432475847,28.733140484865935 L62.808896106997636,28.64164299871224 L62.65320145785195,28.543308708336287 L62.50191267775697,28.43832222609351 L62.35531379558947,28.326880653134495 L62.213680035432894,28.20919320936817 L62.07727729987293,28.085480840673284 L61.94636167079314,27.955975804095615 L61.82117892860801,27.82092123180962 L61.70196409083592,27.68057067466319 L61.58894097087826,27.535187626162426 L61.4823217578332,27.385045027790103 L61.38230661813281,27.230424756586583 L61.28908331975149,27.071617095955087 L61.20282687969125,26.908920190684967 L61.123699235405546,26.742639487216 L61.051848940778626,26.573087160194618 L60.98741088723118,26.400581526398632 L60.93050605047573,26.225446447130725 L60.88124126339741,26.048010720202726 L60.83970901548639,25.868607462652037 L60.80598727919851,25.68757348534924 L60.78013936357013,25.505248660670844 L60.762213795362044,25.321975284424436 L60.75224422795555,25.13809743322406 L60.75024937817177,24.953960318522324 L60.75623299113273,24.769909638511972 L60.7701838332303,24.58629092911364 L60.79207571321614,24.403448915268285 L60.82186753137303,24.22172686375211 L60.859503356675255,24.041465938729075 L60.9049125317933,23.863004561250815 L60.9580098057456,23.686677773906478 L61.01869549394832,23.512816611815282 L61.0868556653628,23.34174748114265 L61.16236235638911,23.173791546306763 L61.2450738111044,23.0092641270259 L61.33483474739479,22.84847410633863 L61.43147664848132,22.691723350708173 L61.534818079292634,22.539306143299655 L61.644665027090305,22.39150863149423 L61.76081126570753,22.248608289677247 L61.88303874271719,22.110873398309106 L62.011117988802496,21.978562540256714 L62.144808548561656,21.851924115331173 L62.283859431937785,21.731195873943093 L62.42800958542648,21.616604470751028 L62.576988382176516,21.508365039141054 L62.7305161300635,21.406680787336306 L62.88830459678256,21.311742616894758 L63.05005755097443,21.223728764311527 L63.21547131836885,21.142804466398445 L63.38423535190128,21.069121650069235 L63.556032814732575,21.002818647112584 L63.730541175077036,20.94401993448868 L63.90743281172213,20.89283590063672 L64.08637562910312,20.84936263823214 L64.2670336807777,20.813681763782675 L64.44906780013049,20.785860264401887 L64.63213623712275,20.765950372047843 L64.81589529989249,20.7539894654631 L64.99999999999996,20.75 " />
			<path d="M15.0,20.75 L15.184104700107463,20.7539894654631 L15.3678637628772,20.76595037204784 L15.550932199869465,20.78586026440188 L15.732966319222253,20.813681763782668 L15.913624370896851,20.84936263823213 L16.092567188277833,20.89283590063671 L16.269458824922932,20.944019934488672 L16.443967185267393,21.002818647112573 L16.61576464809869,21.06912165006922 L16.784528681631123,21.14280446639843 L16.949942449025546,21.223728764311513 L17.111695403217418,21.311742616894744 L17.26948386993648,21.406680787336292 L17.42301161782346,21.50836503914104 L17.571990414573502,21.616604470751014 L17.716140568062198,21.731195873943076 L17.855191451438326,21.85192411533116 L17.98888201119749,21.9785625402567 L18.116961257282796,22.110873398309092 L18.239188734292455,22.248608289677232 L18.35533497290968,22.391508631494215 L18.465181920707355,22.539306143299644 L18.56852335151867,22.69172335070816 L18.66516525260521,22.84847410633862 L18.7549261888956,23.009264127025894 L18.83763764361089,23.173791546306756 L18.913144334637202,23.341747481142644 L18.98130450605168,23.512816611815275 L19.041990194254403,23.686677773906474 L19.0950874682067,23.863004561250815 L19.140496643324745,24.04146593872908 L19.17813246862697,24.221726863752117 L19.207924286783857,24.403448915268292 L19.2298161667697,24.586290929113648 L19.243767008867277,24.76990963851198 L19.24975062182823,24.953960318522334 L19.24775577204445,25.138097433224072 L19.23778620463796,25.32197528442445 L19.21986063642987,25.50524866067086 L19.194012720801485,25.687573485349258 L19.1602909845136,25.868607462652058 L19.118758736602587,26.048010720202747 L19.06949394952427,26.22544644713075 L19.012589112768815,26.400581526398653 L18.94815105922136,26.573087160194646 L18.876300764594443,26.742639487216028 L18.797173120308734,26.908920190684995 L18.71091668024849,27.071617095955116 L18.617693381867173,27.23042475658661 L18.517678242166777,27.385045027790134 L18.411059029121716,27.535187626162454 L18.298035909164053,27.680570674663223 L18.17882107139196,27.820921231809653 L18.05363832920683,27.955975804095647 L17.92272270012704,28.085480840673316 L17.78631996456707,28.2091932093682 L17.6446862044105,28.32688065313452 L17.498087322243,28.438322226093536 L17.346798542148015,28.543308708336312 L17.191103893002328,28.641642998712264 L17.03129567524149,28.733140484865956 L16.867673912096315,28.81762938982752 L16.7005457863306,28.894951094505966 L16.530225063537603,28.96496043547995 L16.3570315030779,29.027525977526917 L16.18129025776461,29.082530260379023 L16.003331263422968,29.129870019242503 L15.823488619470279,29.16945637866652 L15.642099961679177,29.201215019397555 L15.459505828301733,29.22508631790603 L15.276049020744475,29.24102545832326 L15.092073959994568,29.249002516578557 L14.90792604000539,29.249002516578557 L14.723950979255482,29.241025458323257 L14.540494171698226,29.225086317906026 L14.357900038320782,29.201215019397548 L14.176511380529679,29.16945637866651 L13.996668736576993,29.129870019242492 L13.81870974223535,29.082530260379013 L13.642968496922062,29.027525977526903 L13.469774936462358,28.96496043547993 L13.299454213669359,28.89495109450595 L13.132326087903648,28.817629389827502 L12.968704324758471,28.733140484865935 L12.808896106997635,28.64164299871224 L12.653201457851948,28.543308708336287 L12.501912677756966,28.43832222609351 L12.355313795589465,28.326880653134495 L12.213680035432896,28.20919320936817 L12.07727729987293,28.085480840673284 L11.94636167079314,27.955975804095615 L11.821178928608015,27.82092123180962 L11.701964090835922,27.68057067466319 L11.588940970878262,27.535187626162426 L11.482321757833201,27.385045027790103 L11.382306618132807,27.230424756586583 L11.28908331975149,27.071617095955087 L11.202826879691253,26.908920190684967 L11.123699235405546,26.742639487216 L11.05184894077863,26.573087160194618 L10.987410887231178,26.400581526398632 L10.930506050475724,26.225446447130725 L10.88124126339741,26.048010720202726 L10.839709015486395,25.868607462652037 L10.805987279198511,25.68757348534924 L10.780139363570129,25.505248660670844 L10.76221379536204,25.321975284424436 L10.752244227955552,25.13809743322406 L10.75024937817177,24.953960318522324 L10.756232991132723,24.769909638511972 L10.770183833230297,24.58629092911364 L10.792075713216146,24.403448915268285 L10.821867531373034,24.22172686375211 L10.859503356675257,24.041465938729075 L10.9049125317933,23.863004561250815 L10.958009805745597,23.686677773906478 L11.01869549394832,23.512816611815282 L11.086855665362794,23.34174748114265 L11.162362356389108,23.173791546306763 L11.245073811104398,23.0092641270259 L11.334834747394785,22.84847410633863 L11.431476648481324,22.691723350708173 L11.534818079292634,22.539306143299655 L11.644665027090308,22.39150863149423 L11.760811265707535,22.248608289677247 L11.883038742717192,22.110873398309106 L12.011117988802496,21.978562540256714 L12.144808548561658,21.851924115331173 L12.283859431937785,21.731195873943093 L12.428009585426478,21.616604470751028 L12.57698838217652,21.508365039141054 L12.7305161300635,21.406680787336306 L12.888304596782557,21.311742616894758 L13.050057550974428,21.223728764311527 L13.215471318368847,21.142804466398445 L13.384235351901278,21.069121650069235 L13.556032814732573,21.002818647112584 L13.730541175077033,20.94401993448868 L13.90743281172213,20.89283590063672 L14.08637562910311,20.84936263823214 L14.267033680777708,20.813681763782675 L14.449067800130493,20.785860264401887 L14.632136237122758,20.765950372047843 L14.81589529989249,20.7539894654631 L14.999999999999954,20.75 " />
			<path d="M15.0,20.75 L15.184104700107463,20.7539894654631 L15.3678637628772,20.76595037204784 L15.550932199869465,20.78586026440188 L15.732966319222253,20.813681763782668 L15.913624370896851,20.84936263823213 L16.092567188277833,20.89283590063671 L16.269458824922932,20.944019934488672 L16.443967185267393,21.002818647112573 L16.61576464809869,21.06912165006922 L16.784528681631123,21.14280446639843 L16.949942449025546,21.223728764311513 L17.111695403217418,21.311742616894744 L17.26948386993648,21.406680787336292 L17.42301161782346,21.50836503914104 L17.571990414573502,21.616604470751014 L17.716140568062198,21.731195873943076 L17.855191451438326,21.85192411533116 L17.98888201119749,21.9785625402567 L18.116961257282796,22.110873398309092 L18.239188734292455,22.248608289677232 L18.35533497290968,22.391508631494215 L18.465181920707355,22.539306143299644 L18.56852335151867,22.69172335070816 L18.66516525260521,22.84847410633862 L18.7549261888956,23.009264127025894 L18.83763764361089,23.173791546306756 L18.913144334637202,23.341747481142644 L18.98130450605168,23.512816611815275 L19.041990194254403,23.686677773906474 L19.0950874682067,23.863004561250815 L19.140496643324745,24.04146593872908 L19.17813246862697,24.221726863752117 L19.207924286783857,24.403448915268292 L19.2298161667697,24.586290929113648 L19.243767008867277,24.76990963851198 L19.24975062182823,24.953960318522334 L19.24775577204445,25.138097433224072 L19.23778620463796,25.32197528442445 L19.21986063642987,25.50524866067086 L19.194012720801485,25.687573485349258 L19.1602909845136,25.868607462652058 L19.118758736602587,26.048010720202747 L19.06949394952427,26.22544644713075 L19.012589112768815,26.400581526398653 L18.94815105922136,26.573087160194646 L18.876300764594443,26.742639487216028 L18.797173120308734,26.908920190684995 L18.71091668024849,27.071617095955116 L18.617693381867173,27.23042475658661 L18.517678242166777,27.385045027790134 L18.411059029121716,27.535187626162454 L18.298035909164053,27.680570674663223 L18.17882107139196,27.820921231809653 L18.05363832920683,27.955975804095647 L17.92272270012704,28.085480840673316 L17.78631996456707,28.2091932093682 L17.6446862044105,28.32688065313452 L17.498087322243,28.438322226093536 L17.346798542148015,28.543308708336312 L17.191103893002328,28.641642998712264 L17.03129567524149,28.733140484865956 L16.867673912096315,28.81762938982752 L16.7005457863306,28.894951094505966 L16.530225063537603,28.96496043547995 L16.3570315030779,29.027525977526917 L16.18129025776461,29.082530260379023 L16.003331263422968,29.129870019242503 L15.823488619470279,29.16945637866652 L15.642099961679177,29.201215019397555 L15.459505828301733,29.22508631790603 L15.276049020744475,29.24102545832326 L15.092073959994568,29.249002516578557 L14.90792604000539,29.249002516578557 L14.723950979255482,29.241025458323257 L14.540494171698226,29.225086317906026 L14.357900038320782,29.201215019397548 L14.176511380529679,29.16945637866651 L13.996668736576993,29.129870019242492 L13.81870974223535,29.082530260379013 L13.642968496922062,29.027525977526903 L13.469774936462358,28.96496043547993 L13.299454213669359,28.89495109450595 L13.132326087903648,28.817629389827502 L12.968704324758471,28.733140484865935 L12.808896106997635,28.64164299871224 L12.653201457851948,28.543308708336287 L12.501912677756966,28.43832222609351 L12.355313795589465,28.326880653134495 L12.213680035432896,28.20919320936817 L12.07727729987293,28.085480840673284 L11.94636167079314,27.955975804095615 L11.821178928608015,27.82092123180962 L11.701964090835922,27.68057067466319 L11.588940970878262,27.535187626162426 L11.482321757833201,27.385045027790103 L11.382306618132807,27.230424756586583 L11.28908331975149,27.071617095955087 L11.202826879691253,26.908920190684967 L11.123699235405546,26.742639487216 L11.05184894077863,26.573087160194618 L10.987410887231178,26.400581526398632 L10.930506050475724,26.225446447130725 L10.88124126339741,26.048010720202726 L10.839709015486395,25.868607462652037 L10.805987279198511,25.68757348534924 L10.780139363570129,25.505248660670844 L10.76221379536204,25.321975284424436 L10.752244227955552,25.13809743322406 L10.75024937817177,24.953960318522324 L10.756232991132723,24.769909638511972 L10.770183833230297,24.58629092911364 L10.792075713216146,24.403448915268285 L10.821867531373034,24.22172686375211 L10.859503356675257,24.041465938729075 L10.9049125317933,23.863004561250815 L10.958009805745597,23.686677773906478 L11.01869549394832,23.512816611815282 L11.086855665362794,23.34174748114265 L11.162362356389108,23.173791546306763 L11.245073811104398,23.0092641270259 L11.334834747394785,22.84847410633863 L11.431476648481324,22.691723350708173 L11.534818079292634,22.539306143299655 L11.644665027090308,22.39150863149423 L11.760811265707535,22.248608289677247 L11.883038742717192,22.110873398309106 L12.011117988802496,21.978562540256714 L12.144808548561658,21.851924115331173 L12.283859431937785,21.731195873943093 L12.428009585426478,21.616604470751028 L12.57698838217652,21.508365039141054 L12.7305161300635,21.406680787336306 L12.888304596782557,21.311742616894758 L13.050057550974428,21.223728764311527 L13.215471318368847,21.142804466398445 L13.384235351901278,21.069121650069235 L13.556032814732573,21.002818647112584 L13.730541175077033,20.94401993448868 L13.90743281172213,20.89283590063672 L14.08637562910311,20.84936263823214 L14.267033680777708,20.813681763782675 L14.449067800130493,20.785860264401887 L14.632136237122758,20.765950372047843 L14.81589529989249,20.7539894654631 L14.999999999999954,20.75 " />
			<path d="M65.0,20.75 L65.18410470010747,20.7539894654631 L65.36786376287719,20.76595037204784 L65.55093219986946,20.78586026440188 L65.73296631922226,20.813681763782668 L65.91362437089685,20.84936263823213 L66.09256718827784,20.89283590063671 L66.26945882492294,20.944019934488672 L66.4439671852674,21.002818647112573 L66.61576464809869,21.06912165006922 L66.78452868163113,21.14280446639843 L66.94994244902554,21.223728764311513 L67.11169540321741,21.311742616894744 L67.26948386993648,21.406680787336292 L67.42301161782346,21.50836503914104 L67.5719904145735,21.616604470751014 L67.7161405680622,21.731195873943076 L67.85519145143833,21.85192411533116 L67.98888201119749,21.9785625402567 L68.1169612572828,22.110873398309092 L68.23918873429245,22.248608289677232 L68.35533497290969,22.391508631494215 L68.46518192070735,22.539306143299644 L68.56852335151866,22.69172335070816 L68.6651652526052,22.84847410633862 L68.7549261888956,23.009264127025894 L68.83763764361089,23.173791546306756 L68.91314433463721,23.341747481142644 L68.98130450605169,23.512816611815275 L69.04199019425441,23.686677773906474 L69.0950874682067,23.863004561250815 L69.14049664332474,24.04146593872908 L69.17813246862697,24.221726863752117 L69.20792428678385,24.403448915268292 L69.22981616676971,24.586290929113648 L69.24376700886728,24.76990963851198 L69.24975062182823,24.953960318522334 L69.24775577204444,25.138097433224072 L69.23778620463796,25.32197528442445 L69.21986063642987,25.50524866067086 L69.19401272080148,25.687573485349258 L69.16029098451361,25.868607462652058 L69.11875873660259,26.048010720202747 L69.06949394952427,26.22544644713075 L69.01258911276881,26.400581526398653 L68.94815105922136,26.573087160194646 L68.87630076459445,26.742639487216028 L68.79717312030873,26.908920190684995 L68.71091668024849,27.071617095955116 L68.61769338186717,27.23042475658661 L68.51767824216678,27.385045027790134 L68.41105902912172,27.535187626162454 L68.29803590916406,27.680570674663223 L68.17882107139195,27.820921231809653 L68.05363832920683,27.955975804095647 L67.92272270012704,28.085480840673316 L67.78631996456707,28.2091932093682 L67.6446862044105,28.32688065313452 L67.498087322243,28.438322226093536 L67.34679854214802,28.543308708336312 L67.19110389300234,28.641642998712264 L67.0312956752415,28.733140484865956 L66.86767391209631,28.81762938982752 L66.70054578633061,28.894951094505966 L66.5302250635376,28.96496043547995 L66.35703150307789,29.027525977526917 L66.1812902577646,29.082530260379023 L66.00333126342296,29.129870019242503 L65.82348861947028,29.16945637866652 L65.64209996167918,29.201215019397555 L65.45950582830173,29.22508631790603 L65.27604902074448,29.24102545832326 L65.09207395999456,29.249002516578557 L64.90792604000539,29.249002516578557 L64.72395097925548,29.241025458323257 L64.54049417169823,29.225086317906026 L64.35790003832078,29.201215019397548 L64.17651138052967,29.16945637866651 L63.99666873657699,29.129870019242492 L63.81870974223535,29.082530260379013 L63.64296849692206,29.027525977526903 L63.46977493646236,28.96496043547993 L63.29945421366936,28.89495109450595 L63.13232608790365,28.817629389827502 L62.96870432475847,28.733140484865935 L62.808896106997636,28.64164299871224 L62.65320145785195,28.543308708336287 L62.50191267775697,28.43832222609351 L62.35531379558947,28.326880653134495 L62.213680035432894,28.20919320936817 L62.07727729987293,28.085480840673284 L61.94636167079314,27.955975804095615 L61.82117892860801,27.82092123180962 L61.70196409083592,27.68057067466319 L61.58894097087826,27.535187626162426 L61.4823217578332,27.385045027790103 L61.38230661813281,27.230424756586583 L61.28908331975149,27.071617095955087 L61.20282687969125,26.908920190684967 L61.123699235405546,26.742639487216 L61.051848940778626,26.573087160194618 L60.98741088723118,26.400581526398632 L60.93050605047573,26.225446447130725 L60.88124126339741,26.048010720202726 L60.83970901548639,25.868607462652037 L60.80598727919851,25.68757348534924 L60.78013936357013,25.505248660670844 L60.762213795362044,25.321975284424436 L60.75224422795555,25.13809743322406 L60.75024937817177,24.953960318522324 L60.75623299113273,24.769909638511972 L60.7701838332303,24.58629092911364 L60.79207571321614,24.403448915268285 L60.82186753137303,24.22172686375211 L60.859503356675255,24.041465938729075 L60.9049125317933,23.863004561250815 L60.9580098057456,23.686677773906478 L61.01869549394832,23.512816611815282 L61.0868556653628,23.34174748114265 L61.16236235638911,23.173791546306763 L61.2450738111044,23.0092641270259 L61.33483474739479,22.84847410633863 L61.43147664848132,22.691723350708173 L61.534818079292634,22.539306143299655 L61.644665027090305,22.39150863149423 L61.76081126570753,22.248608289677247 L61.88303874271719,22.110873398309106 L62.011117988802496,21.978562540256714 L62.144808548561656,21.851924115331173 L62.283859431937785,21.731195873943093 L62.42800958542648,21.616604470751028 L62.576988382176516,21.508365039141054 L62.7305161300635,21.406680787336306 L62.88830459678256,21.311742616894758 L63.05005755097443,21.223728764311527 L63.21547131836885,21.142804466398445 L63.38423535190128,21.069121650069235 L63.556032814732575,21.002818647112584 L63.730541175077036,20.94401993448868 L63.90743281172213,20.89283590063672 L64.08637562910312,20.84936263823214 L64.2670336807777,20.813681763782675 L64.44906780013049,20.785860264401887 L64.63213623712275,20.765950372047843 L64.81589529989249,20.7539894654631 L64.99999999999996,20.75 " />

       </g>

       <!-- solid lines -->
       <g  stroke="rgb(0,0,0)" fill="none">
			<path d="M5.0,0.0 L5.0,50.0 " />
			<path d="M4.999999999999998,0.0 L5.050302320854057,0.0 L5.200576702545409,0.0 L5.448933357533058,0.0 L5.792249056780645,0.0 L6.226206406173725,0.0 L6.74534814025576,0.0 L7.343145750507618,0.0 L8.01208158513013,0.0 L8.743743387877306,0.0 L9.528930087059532,0.0 L10.35776750435866,0.0 L11.219832528349482,0.0 L12.104284191173535,0.0 L12.99999999999998,0.0 " />
			<path d="M0.0,0.0 L5.0,0.0 " />
			<path d="M12.999999999999998,0.0 L80.0,0.0 " />
			<path d="M4.999999999999998,50.0 L5.050302320854057,50.0 L5.200576702545409,50.0 L5.448933357533058,50.0 L5.792249056780645,50.0 L6.226206406173725,50.0 L6.74534814025576,50.0 L7.343145750507618,50.0 L8.01208158513013,50.0 L8.743743387877306,50.0 L9.528930087059532,50.0 L10.35776750435866,50.0 L11.219832528349482,50.0 L12.104284191173535,50.0 L12.99999999999998,50.0 " />
			<path d="M13.0,28.75 L12.85465058880713,28.668783998758034 L12.714440458391907,28.58311562762738 L12.579413816022372,28.49331682182691 L12.449604512175373,28.39970334810232 L12.325035949420396,28.302584963988302 L12.20572099130342,28.20226557707073 L12.091630057638772,28.09901344366186 L11.982673366562993,27.99303190240956 L11.878782578807522,27.884528001931894 L11.779888341628197,27.773694458903286 L11.685919979108837,27.66070923342674 L11.59680353048411,27.545732491025813 L11.512465432858903,27.428909754287904 L11.4328360353815,27.310376843786464 L11.357848987357015,27.190259351249967 L11.287442068233096,27.068674381835745 L11.221557518117558,26.94573181770704 L11.160142065895796,26.821535351235756 L11.103143189813524,26.696174245985674 L11.050513640643596,26.569731704506655 L11.002218825514944,26.4423057032531 L10.958227021558375,26.31399054159318 L10.918509247699703,26.18487684368632 L10.883039292768464,26.05505187529386 L10.851793748210516,25.92459985983655 L10.824752045404525,25.793602293699017 L10.801896497582355,25.662138260781038 L10.783212346353352,25.5302847462958 L10.768687812832512,25.39811694981497 L10.758314153372561,25.26570859756074 L10.752085719899917,25.133132253944677 L10.75000002485454,25.00045963235357 L10.752057179726581,24.867781022787785 L10.758258013576592,24.735188672502805 L10.768605673440643,24.602756823031513 L10.783106138508668,24.470560525324153 L10.801768183585681,24.33867592866318 L10.824603342553344,24.20718056935241 L10.851625871831526,24.07615365940624 L10.88285271383986,23.94567637523881 L10.918303460459313,23.815832146353205 L10.958000316493736,23.68670694403063 L11.001968063131434,23.55838957001961 L11.050237682639702,23.430962849806058 L11.102846658732048,23.304507187722745 L11.159834507944877,23.17911313208492 L11.221245180908873,23.05487483314787 L11.287127275152649,22.931890665274363 L11.35753408530066,22.810264380409382 L11.432523393448271,22.690105940049076 L11.512157457822545,22.571532511050634 L11.596502679950374,22.45466974164251 L11.685628747292363,22.339653553236314 L11.779609171568042,22.226629676318375 L11.878518139475101,22.115758161695304 L11.98242640365064,22.00721708560691 L12.091403348140098,21.90119933539201 L12.205517405954813,21.79791208162685 L12.32485899680331,21.697558368266428 L12.449457176047005,21.600407186064206 L12.579299041191193,21.506762711182315 L12.714361137710753,21.41693497013963 L12.854609551279582,21.331239998573256 L12.999999999999977,21.25000000000001 " />
			<path d="M0.0,0.0 L0.0,50.0 " />
			<path d="M0.0,50.0 L5.0,50.0 " />
			<path d="M12.999999999999998,50.0 L80.0,50.0 " />
			<path d="M80.0,0.0 L80.0,50.0 " />
			<path d="M15.0,20.75 L14.826521656438725,20.75354203313924 L14.653332473367724,20.764162228557538 L14.480721129293256,20.781842884097664 L14.308975339556927,20.806554528951217 L14.138381376760515,20.838255972781738 L13.969223593595585,20.87689437438234 L13.801783948873302,20.922405329753538 L13.63634153754446,20.974712979454335 L13.473172125493084,21.033730135047705 L13.312547689879082,21.099358424429695 L13.154735965796059,21.171488455799903 L12.999999999999998,21.25 " />
			<path d="M13.0,28.75 L13.163941047075806,28.832934583499554 L13.331313281688262,28.908706261172615 L13.501803922200116,28.977173432535352 L13.67509435936415,29.038208147608454 L13.850860751733297,29.091696346027284 L14.028774630848579,29.13753807019545 L14.20850351507391,29.175647652083406 L14.389711530930636,29.205953873323026 L14.572060040770683,29.228400098298977 L14.755208275615313,29.24294437998812 L14.938813971976877,29.24955953834921 L15.122534011473467,29.248233211116386 L15.30602506204118,29.238967876901487 L15.488944219545708,29.221780850562098 L15.670949648594213,29.196704250843904 L15.851701221349973,29.163784940357868 L16.030861153155975,29.123084438004383 L16.208094633779627,29.074678804008098 L16.38307045309893,29.018658497778173 L16.555461620060846,28.955128208859694 L16.724945973755148,28.884206661292097 L16.8912067854618,28.80602639174024 L17.05393335054682,28.720733501812717 L17.21282156910038,28.628487385030315 L17.36757451423223,28.52946042895483 L17.517902986962262,28.423837693034894 L17.663526056669372,28.311816562770844 L17.80417158608856,28.193606380844948 L17.939576739875207,28.069428055906286 L18.069488475786127,27.93951364974143 L18.19366401755947,27.804105943602327 L18.3118713086098,27.663457984501953 L18.42388944569043,27.517832612325464 L18.529509091712697,27.36750196864066 L18.628532866950597,27.212746988125687 L18.720775717899777,27.05385687356432 L18.806065263101562,26.891128555390043 L18.884242115285716,26.72486613678881 L18.955160179229946,26.555380325397532 L19.01868692477952,26.382987852660364 L19.074703634516773,26.20801088192773 L19.12310562561766,26.030776406404414 L19.16380244548079,25.851615638071653 L19.19671804076328,25.67086338872533 L19.221790899507617,25.48885744428685 L19.238974166093897,25.30593793355609 L19.248235728802577,25.122446692585985 L19.24955827982419,24.938726625866664 L19.242939347603787,24.755121065512906 L19.22839130145975,24.571973129652445 L19.205941328468246,24.3896250812142 L19.175631382656626,24.208417688314647 L19.137518106600627,24.028689587437693 L19.09167272557196,23.850776650598092 L19.038180914434022,23.675011357671018 L18.977142637534588,23.50172217506084 L18.90867196189455,23.33123294187014 L18.83289684404195,23.163862264716162 L18.749958890889538,22.999922922325617 L18.66001309510284,22.8397212810205 L18.563227545453184,22.683556722187294 L18.459783112697007,22.53172108279947 L18.34987311156848,22.38449811003882 L18.233702939517087,22.2421629310348 L18.11148969286527,22.104981538712888 L17.983461761103495,21.973210294712693 L17.84985840008088,21.847095450304842 L17.71092928488899,21.726872686201887 L17.5669340432744,21.612766672123257 L17.41814177045193,21.504990646937323 L17.264830526225296,21.403746020165144 L17.107286815354914,21.309221995590722 L16.945805052143964,21.221595217681006 L16.78068701024325,21.141029441476526 L16.6122412587031,21.067675226569474 L16.44078258532614,21.00166965574117 L16.26663140839862,20.943136078784732 L16.09011317789959,20.892183881991592 L15.91155776730697,20.84890828373278 L15.7312988571371,20.813390156516853 L15.54967331136973,20.7856958758571 L15.367020547923866,20.76587719623041 L15.18368190436085,20.753971154359597 L15.000000000000053,20.75 " />
			<path d="M65.0,20.75 L64.81589529989253,20.7539894654631 L64.63213623712281,20.76595037204784 L64.44906780013054,20.78586026440188 L64.26703368077774,20.813681763782668 L64.08637562910315,20.84936263823213 L63.90743281172217,20.89283590063671 L63.730541175077065,20.944019934488672 L63.5560328147326,21.002818647112573 L63.38423535190131,21.06912165006922 L63.21547131836888,21.14280446639843 L63.05005755097446,21.223728764311513 L62.88830459678258,21.311742616894744 L62.73051613006352,21.406680787336292 L62.57698838217654,21.50836503914104 L62.428009585426494,21.616604470751014 L62.2838594319378,21.731195873943076 L62.14480854856168,21.85192411533116 L62.01111798880251,21.9785625402567 L61.883038742717204,22.110873398309092 L61.760811265707545,22.248608289677232 L61.64466502709032,22.391508631494215 L61.53481807929264,22.539306143299644 L61.43147664848133,22.69172335070816 L61.334834747394794,22.84847410633862 L61.245073811104405,23.009264127025894 L61.16236235638911,23.173791546306756 L61.0868556653628,23.341747481142644 L61.01869549394832,23.512816611815275 L60.9580098057456,23.686677773906474 L60.9049125317933,23.863004561250815 L60.859503356675255,24.04146593872908 L60.82186753137303,24.221726863752117 L60.79207571321614,24.403448915268292 L60.7701838332303,24.586290929113648 L60.75623299113272,24.76990963851198 L60.750249378171766,24.953960318522334 L60.75224422795555,25.138097433224072 L60.762213795362044,25.32197528442445 L60.78013936357013,25.50524866067086 L60.80598727919852,25.687573485349258 L60.8397090154864,25.868607462652058 L60.88124126339741,26.048010720202747 L60.930506050475735,26.22544644713075 L60.987410887231185,26.400581526398653 L61.05184894077864,26.573087160194646 L61.12369923540556,26.742639487216028 L61.202826879691266,26.908920190684995 L61.289083319751505,27.071617095955116 L61.38230661813282,27.23042475658661 L61.48232175783322,27.385045027790134 L61.588940970878284,27.535187626162454 L61.70196409083595,27.680570674663223 L61.82117892860804,27.820921231809653 L61.946361670793166,27.955975804095647 L62.07727729987296,28.085480840673316 L62.21368003543293,28.2091932093682 L62.355313795589495,28.32688065313452 L62.501912677757,28.438322226093536 L62.653201457851985,28.543308708336312 L62.80889610699767,28.641642998712264 L62.96870432475851,28.733140484865956 L63.132326087903685,28.81762938982752 L63.2994542136694,28.894951094505966 L63.46977493646239,28.96496043547995 L63.6429684969221,29.027525977526917 L63.81870974223539,29.082530260379023 L63.996668736577035,29.129870019242503 L64.17651138052972,29.16945637866652 L64.35790003832082,29.201215019397555 L64.54049417169827,29.22508631790603 L64.72395097925552,29.24102545832326 L64.90792604000544,29.249002516578557 L65.09207395999461,29.249002516578557 L65.27604902074452,29.241025458323257 L65.45950582830177,29.225086317906026 L65.64209996167922,29.201215019397548 L65.82348861947033,29.16945637866651 L66.00333126342301,29.129870019242492 L66.18129025776464,29.082530260379013 L66.35703150307793,29.027525977526903 L66.53022506353764,28.96496043547993 L66.70054578633064,28.89495109450595 L66.86767391209635,28.817629389827502 L67.03129567524152,28.733140484865935 L67.19110389300236,28.64164299871224 L67.34679854214805,28.543308708336287 L67.49808732224304,28.43832222609351 L67.64468620441053,28.326880653134495 L67.7863199645671,28.20919320936817 L67.92272270012707,28.085480840673284 L68.05363832920686,27.955975804095615 L68.17882107139198,27.82092123180962 L68.29803590916407,27.68057067466319 L68.41105902912174,27.535187626162426 L68.5176782421668,27.385045027790103 L68.6176933818672,27.230424756586583 L68.7109166802485,27.071617095955087 L68.79717312030874,26.908920190684967 L68.87630076459446,26.742639487216 L68.94815105922137,26.573087160194618 L69.01258911276882,26.400581526398632 L69.06949394952427,26.225446447130725 L69.11875873660259,26.048010720202726 L69.16029098451361,25.868607462652037 L69.19401272080148,25.68757348534924 L69.21986063642987,25.505248660670844 L69.23778620463796,25.321975284424436 L69.24775577204444,25.13809743322406 L69.24975062182823,24.953960318522324 L69.24376700886728,24.769909638511972 L69.22981616676971,24.58629092911364 L69.20792428678385,24.403448915268285 L69.17813246862697,24.22172686375211 L69.14049664332474,24.041465938729075 L69.0950874682067,23.863004561250815 L69.04199019425441,23.686677773906478 L68.98130450605169,23.512816611815282 L68.91314433463721,23.34174748114265 L68.83763764361089,23.173791546306763 L68.7549261888956,23.0092641270259 L68.66516525260522,22.84847410633863 L68.56852335151868,22.691723350708173 L68.46518192070737,22.539306143299655 L68.35533497290969,22.39150863149423 L68.23918873429247,22.248608289677247 L68.11696125728281,22.110873398309106 L67.9888820111975,21.978562540256714 L67.85519145143834,21.851924115331173 L67.71614056806222,21.731195873943093 L67.57199041457352,21.616604470751028 L67.42301161782348,21.508365039141054 L67.26948386993651,21.406680787336306 L67.11169540321744,21.311742616894758 L66.94994244902557,21.223728764311527 L66.78452868163116,21.142804466398445 L66.61576464809872,21.069121650069235 L66.44396718526743,21.002818647112584 L66.26945882492296,20.94401993448868 L66.09256718827787,20.89283590063672 L65.91362437089688,20.84936263823214 L65.7329663192223,20.813681763782675 L65.55093219986951,20.785860264401887 L65.36786376287725,20.765950372047843 L65.18410470010751,20.7539894654631 L65.00000000000004,20.75 " />
			<path d="M12.999999999999998,28.75 L12.999999999999998,50.0 " />
			<path d="M12.999999999999998,0.0 L12.999999999999998,21.25 " />

       </g>
    </g>
    
</svg>
