<?xml version="1.0" encoding="UTF-8" standalone="no"?>
<svg
   xmlns:svg="http://www.w3.org/2000/svg"
   xmlns="http://www.w3.org/2000/svg"
   width="300.0"
   height="200.0"

>
    <g transform="scale(1.9860727644187923, -1.9860727644187923)   translate(157.26978747601004,-44.771229187536996)" stroke-width="0.5035062249054313"  fill="none">
       <!-- hidden lines -->
       <g  stroke="rgb(160,160,160)" fill="none" stroke-dasharray="0.5035062249054313,0.5035062249054313" >
			<path d="M0.0,0.0 L45.9619407771256,26.536138880151107 " />
			<path d="M-56.568542494923804,32.65986323710904 L7.105427357601002e-15,-7.105427357601002e-15 " />
			<path d="M0.0,0.0 L0.0,-40.824829046386306 " />
			<path d="M-45.96194077712559,9.593834825900784 L-46.109399139454965,9.674790051053176 L-46.25650226167366,9.747190447911876 L-46.40289575947554,9.810861597579322 L-46.54822695810184,9.865650110679029 L-46.620384661021134,9.889671286587825 L-46.692145741965575,9.911423996884038 L-46.76346697474331,9.93089513854837 L-46.8343053981106,9.948072982893159 L-46.90461834165002,9.962947182627289 L-46.97436345147356,9.975508778089022 L-47.04349871573499,9.985750202642965 L-47.11198248993626,9.993665287237913 L-47.17977352201256,9.999249264122874 L-47.24683097718104,10.002498769718969 L-47.31311446253815,10.003411846645534 L-47.3785840513908,10.001987944899168 L-47.44320030730674,9.998227922185045 L-47.50692430786956,9.992134043400247 L-47.56971766812411,9.983709979269493 L-47.63154256369818,9.972960804134017 L-47.69236175358645,9.959892992894982 L-47.7521386025831,9.944514417113245 L-47.81083710334951,9.926834340267813 L-47.86842189810369,9.906863412175875 L-47.92485829991851,9.884613662577756 L-47.98011231361582,9.86009849389064 L-48.03415065624384,9.833332673135464 L-48.086940777125584,9.804332323041818 " />
			<path d="M-48.08694077712559,9.804332323041812 L-48.13845087746621,9.773114912336187 L-48.18864992950734,9.739699245219505 L-48.2375076952171,9.704105450040144 L-48.284994744504324,9.666354967169381 L-48.331082472946186,9.626470536086519 L-48.375743119018395,9.584476181681465 L-48.418949780817734,9.540397199783044 L-48.46067643226673,9.494260141921732 L-48.500897938790814,9.446092799336007 L-48.53959007245843,9.395924186231952 L-48.57672952657506,9.343784522306175 L-48.61229392972227,9.289705214542597 L-48.646261859233434,9.23371883829406 L-48.67861285409798,9.17585911766015 L-48.70932742728626,9.11616090517306 L-48.73838707748789,9.054660160803738 L-48.7657743002562,8.991393930300926 L-48.79147259855226,8.926400322876205 L-48.8154664926821,8.859718488248419 L-48.83774152962109,8.791388593061354 L-48.8582842917199,8.721451796688852 L-48.87708240478676,8.649950226441941 L-48.8941245455413,8.57692695219292 L-48.90940044843516,8.502425960431687 L-48.93461780356838,8.349171193909012 L-48.95267371936915,8.190555131029997 L-48.963524697554796,8.02695989178325 L-48.96714459716842,7.858779591429366 L-48.963524697554796,7.686419391042747 L-48.95267371936915,7.5102945214431 L-48.93461780356838,7.330829282868008 L-48.90940044843516,7.148456022796493 L-48.87708240478676,6.963614094386081 L-48.83774152962109,6.776748798032551 L-48.79147259855226,6.588310308602287 L-48.73838707748789,6.398752590921589 L-48.67861285409798,6.208532306135643 L-48.61229392972227,6.0181077115718296 L-48.53959007245844,5.827937556757678 L-48.46067643226673,5.638479978253068 L-48.375743119018395,5.450191395959146 L-48.284994744504324,5.263525413562793 L-48.18864992950735,5.078931725765608 L-48.08694077712559,4.896855034929993 L-47.98011231361582,4.717733979752204 L-47.8684218981037,4.542000078543314 L-47.75213860258311,4.370076689663811 L-47.63154256369818,4.20237799161621 L-47.50692430786956,4.039307985252783 L-47.3785840513908,3.881259520502109 L-47.24683097718104,3.7286133499591783 L-47.11198248993626,3.581737211619055 L-46.97436345147356,3.4409849429638304 L-46.8343053981106,3.3066956285371383 L-46.692145741965575,3.1791927830597864 L-46.54822695810185,3.0587835720544616 L-46.40289575947554,2.9457580718570746 L-46.25650226167366,2.840388570797467 L-46.109399139454965,2.7429289132329693 L-45.96194077712559,2.653613888015111 L-45.81448241479622,2.572658662862716 L-45.66737929257752,2.5002582660040176 L-45.52098579477564,2.4365871163365727 L-45.37565459614934,2.3817986032368648 L-45.30349689323005,2.357777427328069 L-45.231735812285606,2.336024717031856 L-45.16041457950787,2.3165535753675233 L-45.08957615614058,2.299375731022736 L-45.01926321260116,2.284501531288606 L-44.949518102777624,2.2719399358268713 L-44.88038283851619,2.261698511272929 L-44.81189906431492,2.25378342667798 L-44.74410803223862,2.2481994497930193 L-44.67705057707014,2.244949944196925 L-44.610767091713036,2.244036867270361 L-44.545297502860386,2.245460769016725 L-44.48068124694444,2.249220791730848 L-44.41695724638162,2.255314670515646 L-44.35416388612707,2.263738734646401 L-44.292338990553,2.274487909781877 L-44.231519800664735,2.287555721020911 L-44.17174295166807,2.302934296802649 L-44.11304445090167,2.320614373648082 L-44.05545965614749,2.3405853017400187 L-43.99902325433267,2.3628350513381378 L-43.94376924063536,2.3873502200252537 L-43.88973089800734,2.4141160407804296 L-43.83694077712561,2.443116390874071 " />
			<path d="M-43.83694077712559,2.4431163908740823 L-43.772708059703085,2.4825141062912803 L-43.71053895290065,2.5253440927883846 L-43.650492058450304,2.571565978040293 L-43.592623977648074,2.621136192456379 L-43.53698925800056,2.6740080102499806 L-43.48364034180747,2.7301315934829766 L-43.432627516728566,2.7894540390439375 L-43.38399886838159,2.8519194285155587 L-43.33780023501588,2.9174688808843814 L-43.29407516430441,2.9860406080431057 L-43.252864872294964,3.0575699730331865 L-43.21420820455913,3.1319895509728073 L-43.17814159957575,3.209229192612802 L-43.14469905438339,3.2892160904606125 L-43.113912092534036,3.371874847409962 L-43.085809734378486,3.457127547811532 L-43.06041846971122,3.5448938309176796 L-43.037762232800624,3.635090966631937 L-43.017862379828124,3.7276339334919086 L-43.000737668757466,3.822435498812048 L-42.98640424165309,3.9194063009107785 L-42.97487560946438,4.018454933344437 L-42.966162639289934,4.119488031068656 L-42.96027354413408,4.222410358445952 L-42.957213875165145,4.327124899016573 L-42.9569865164828,4.433532946947979 L-42.95959168239949,4.541534200076756 L-42.965026917238376,4.651026854455265 L-42.97328709764815,4.76190770031389 L-42.98436443743234,4.874072219348454 L-42.99824849488879,4.987414683241072 L-43.01492618265215,5.10182825332158 " />
			<path d="M-45.3734214656663,9.186861912913628 L-45.51929656137271,9.300425458196996 L-45.66624627010319,9.406276885586514 L-45.81391384017032,9.504159218218064 L-45.96194077712558,9.593834825900773 " />
			<path d="M-10.606601717798213,-10.81857969729237 L-10.754060080127585,-10.737624472139977 L-10.901163202346282,-10.665224075281277 L-11.047556700148164,-10.60155292561383 L-11.192887898774467,-10.546764412514124 L-11.265045601693759,-10.522743236605328 L-11.336806682638194,-10.500990526309115 L-11.408127915415934,-10.481519384644782 L-11.478966338783222,-10.464341540299994 L-11.549279282322644,-10.449467340565864 L-11.61902439214618,-10.43690574510413 L-11.68815965640761,-10.426664320550188 L-11.75664343060888,-10.41874923595524 L-11.824434462685184,-10.41316525907028 L-11.891491917853665,-10.409915753474184 L-11.957775403210771,-10.409002676547619 L-12.023244992063423,-10.410426578293984 L-12.087861247979363,-10.414186601008108 L-12.151585248542183,-10.420280479792906 L-12.214378608796737,-10.42870454392366 L-12.276203504370805,-10.439453719059136 L-12.337022694259073,-10.45252153029817 L-12.396799543255728,-10.467900106079908 L-12.455498044022136,-10.48558018292534 L-12.513082838776315,-10.505551111017278 L-12.569519240591136,-10.527800860615397 L-12.624773254288442,-10.552316029302514 L-12.678811596916457,-10.579081850057689 L-12.731601717798203,-10.608082200151335 " />
			<path d="M-12.731601717798213,-10.60808220015134 L-12.783111818138835,-10.639299610856966 L-12.833310870179966,-10.672715277973648 L-12.882168635889723,-10.708309073153009 L-12.929655685176947,-10.746059556023772 L-12.975743413618806,-10.785943987106634 L-13.020404059691018,-10.827938341511688 L-13.063610721490353,-10.872017323410109 L-13.105337372939351,-10.918154381271421 L-13.145558879463435,-10.966321723857146 L-13.184251013131053,-11.016490336961201 L-13.221390467247682,-11.068630000886978 L-13.256954870394889,-11.122709308650556 L-13.29092279990606,-11.178695684899093 L-13.3232737947706,-11.236555405533004 L-13.353988367958882,-11.296253618020092 L-13.383048018160514,-11.357754362389414 L-13.41043524092882,-11.421020592892226 L-13.43613353922488,-11.486014200316948 L-13.460127433354723,-11.552696034944734 L-13.482402470293714,-11.621025930131799 L-13.502945232392516,-11.690962726504301 L-13.521743345459388,-11.762464296751212 L-13.538785486213921,-11.835487571000233 L-13.554061389107776,-11.909988562761466 L-13.579278744241005,-12.063243329284141 L-13.597334660041776,-12.221859392163156 L-13.608185638227415,-12.385454631409903 L-13.61180553784104,-12.553634931763787 L-13.608185638227415,-12.725995132150405 L-13.597334660041776,-12.902120001750053 L-13.579278744241005,-13.081585240325145 L-13.554061389107776,-13.26395850039666 L-13.521743345459388,-13.448800428807072 L-13.482402470293714,-13.635665725160603 L-13.43613353922488,-13.824104214590866 L-13.383048018160515,-14.013661932271564 L-13.323273794770602,-14.20388221705751 L-13.256954870394893,-14.394306811621323 L-13.184251013131057,-14.584476966435476 L-13.105337372939351,-14.773934544940085 L-13.020404059691016,-14.962223127234006 L-12.929655685176948,-15.14888910963036 L-12.833310870179968,-15.333482797427544 L-12.731601717798213,-15.51555948826316 L-12.624773254288442,-15.694680543440949 L-12.513082838776317,-15.870414444649839 L-12.396799543255732,-16.04233783352934 L-12.276203504370805,-16.210036531576943 L-12.151585248542183,-16.37310653794037 L-12.023244992063423,-16.531155002691044 L-11.891491917853664,-16.683801173233974 L-11.756643430608882,-16.8306773115741 L-11.619024392146182,-16.971429580229323 L-11.478966338783223,-17.105718894656015 L-11.336806682638196,-17.233221740133366 L-11.192887898774469,-17.35363095113869 L-11.047556700148165,-17.46665645133608 L-10.901163202346286,-17.572025952395684 L-10.75406008012759,-17.669485609960184 L-10.606601717798215,-17.75880063517804 L-10.45914335546884,-17.83975586033044 L-10.312040233250144,-17.912156257189135 L-10.165646735448263,-17.97582740685658 L-10.02031553682196,-18.03061591995629 L-9.948157833902668,-18.054637095865083 L-9.876396752958232,-18.076389806161295 L-9.805075520180493,-18.095860947825628 L-9.734237096813205,-18.113038792170418 L-9.663924153273785,-18.127912991904548 L-9.594179043450247,-18.14047458736628 L-9.525043779188817,-18.150716011920224 L-9.456560004987548,-18.158631096515172 L-9.388768972911246,-18.164215073400133 L-9.321711517742765,-18.167464578996228 L-9.255428032385659,-18.168377655922793 L-9.189958443533005,-18.16695375417643 L-9.125342187617065,-18.163193731462304 L-9.061618187054247,-18.157099852677508 L-8.99882482679969,-18.14867578854675 L-8.936999931225623,-18.137926613411274 L-8.876180741337356,-18.12485880217224 L-8.816403892340697,-18.109480226390502 L-8.757705391574289,-18.091800149545072 L-8.700120596820112,-18.071829221453136 L-8.64368419500529,-18.049579471855015 L-8.588430181307986,-18.0250643031679 L-8.53439183867997,-17.99829848241272 L-8.481601717798233,-17.969298132319082 " />
			<path d="M-8.481601717798213,-17.96929813231907 L-8.417369000375704,-17.929900416901873 L-8.35519989357327,-17.88707043040477 L-8.295152999122926,-17.84084854515286 L-8.237284918320698,-17.791278330736773 L-8.181650198673182,-17.738406512943172 L-8.128301282480093,-17.682282929710176 L-8.07728845740119,-17.622960484149214 L-8.028659809054211,-17.560495094677595 L-7.9824611756885,-17.49494564230877 L-7.938736104977031,-17.426373915150048 L-7.897525812967585,-17.354844550159967 L-7.8588691452317505,-17.280424972220345 L-7.822802540248378,-17.203185330580354 L-7.789359995056012,-17.12319843273254 L-7.758573033206657,-17.040539675783194 L-7.7304706750511105,-16.95528697538162 L-7.705079410383846,-16.867520692275473 L-7.682423173473248,-16.777323556561218 L-7.662523320500749,-16.684780589701248 L-7.645398609430087,-16.58997902438111 L-7.631065182325716,-16.493008222282377 L-7.619536550137002,-16.39395958984872 L-7.610823579962554,-16.2929264921245 L-7.604934484806702,-16.190004164747204 L-7.601874815837767,-16.085289624176582 L-7.6016474571554244,-15.978881576245177 L-7.604252623072112,-15.870880323116399 L-7.609687857911,-15.76138766873789 L-7.617948038320768,-15.650506822879265 L-7.629025378104964,-15.5383423038447 L-7.642909435561416,-15.424999839952084 L-7.659587123324768,-15.310586269871576 " />
			<path d="M-10.01808240633892,-11.225552610279525 L-10.163957502045337,-11.111989064996157 L-10.31090721077581,-11.006137637606638 L-10.458574780842946,-10.90825530497509 L-10.606601717798197,-10.81857969729238 " />
			<path d="M-9.8874043925662,-9.41065211724675 L-9.962528324886971,-9.400906967616535 L-10.036844539060658,-9.393941559205604 L-10.110299616115267,-9.389760898794254 L-10.182840756069702,-9.388367991468034 L-10.25441581588672,-9.389763838457679 L-10.324973346953685,-9.393947436419406 L-10.39446263206416,-9.400915778156133 L-10.462833721873762,-9.410663854779072 L-10.530037470804073,-9.423184659308147 L-10.596025572368793,-9.438469191708656 L-10.660750593896756,-9.456506465360555 L-10.724166010626838,-9.477283514955714 L-10.786226239150254,-9.500785405817453 L-10.846886670176202,-9.526995244635703 L-10.906103700597313,-9.555894191610003 L-10.963834764831834,-9.587461473991679 " />
			<path d="M-10.963834764831844,-9.587461473991684 L-11.015344865172466,-9.61867888469731 L-11.065543917213597,-9.652094551813992 L-11.114401682923354,-9.687688346993353 L-11.161888732210578,-9.725438829864116 L-11.207976460652437,-9.765323260946978 L-11.252637106724649,-9.807317615352032 L-11.295843768523984,-9.851396597250453 L-11.337570419972982,-9.897533655111765 L-11.377791926497066,-9.94570099769749 L-11.416484060164684,-9.995869610801545 L-11.453623514281313,-10.048009274727322 L-11.48918791742852,-10.1020885824909 L-11.52315584693969,-10.158074958739437 L-11.555506841804231,-10.215934679373348 L-11.586221414992513,-10.275632891860436 L-11.615281065194145,-10.337133636229758 L-11.64266828796245,-10.40039986673257 L-11.66836658625851,-10.465393474157292 L-11.692360480388354,-10.532075308785078 L-11.714635517327345,-10.600405203972143 L-11.735178279426147,-10.670342000344645 L-11.75397639249302,-10.741843570591556 L-11.771018533247553,-10.814866844840576 L-11.786294436141407,-10.88936783660181 L-11.811511791274636,-11.042622603124485 L-11.829567707075407,-11.2012386660035 L-11.840418685261046,-11.364833905250247 L-11.84403858487467,-11.53301420560413 L-11.840418685261046,-11.70537440599075 L-11.829567707075407,-11.881499275590397 L-11.811511791274636,-12.060964514165489 L-11.786294436141407,-12.243337774237004 L-11.75397639249302,-12.428179702647416 L-11.714635517327345,-12.615044999000947 L-11.66836658625851,-12.80348348843121 L-11.615281065194146,-12.993041206111908 L-11.555506841804233,-13.183261490897854 L-11.489187917428524,-13.373686085461667 L-11.416484060164688,-13.56385624027582 L-11.337570419972982,-13.753313818780429 L-11.252637106724647,-13.94160240107435 L-11.16188873221058,-14.128268383470704 L-11.0655439172136,-14.312862071267888 L-10.963834764831844,-14.494938762103503 L-10.857006301322073,-14.674059817281293 L-10.745315885809948,-14.849793718490183 L-10.629032590289363,-15.021717107369685 L-10.508436551404436,-15.189415805417287 L-10.383818295575814,-15.352485811780713 L-10.255478039097055,-15.510534276531388 L-10.123724964887295,-15.663180447074318 L-9.988876477642513,-15.810056585414442 L-9.851257439179813,-15.950808854069667 L-9.711199385816855,-16.08509816849636 L-9.569039729671827,-16.21260101397371 L-9.4251209458081,-16.333010224979034 L-9.279789747181796,-16.446035725176422 L-9.133396249379917,-16.551405226236028 L-8.986293127161222,-16.648864883800528 L-8.838834764831846,-16.738179909018385 L-8.69137640250247,-16.819135134170782 L-8.544273280283775,-16.89153553102948 L-8.397879782481894,-16.955206680696925 L-8.25254858385559,-17.009995193796634 L-8.180390880936299,-17.034016369705427 L-8.108629799991864,-17.05576908000164 L-8.037308567214124,-17.07524022166597 L-7.966470143846836,-17.09241806601076 L-7.896157200307415,-17.107292265744892 L-7.8264120904838785,-17.119853861206625 L-7.757276826222447,-17.130095285760568 L-7.688793052021178,-17.138010370355516 L-7.621002019944877,-17.143594347240477 L-7.553944564776396,-17.14684385283657 L-7.487661079419289,-17.147756929763137 L-7.422191490566636,-17.146333028016773 L-7.357575234650697,-17.142573005302648 L-7.293851234087878,-17.13647912651785 L-7.231057873833321,-17.128055062387094 L-7.169232978259254,-17.117305887251618 L-7.108413788370987,-17.104238076012585 L-7.048636939374329,-17.088859500230846 L-6.98993843860792,-17.071179423385416 L-6.932353643853743,-17.05120849529348 L-6.875917242038922,-17.02895874569536 L-6.820663228341617,-17.004443577008242 L-6.7666248857135995,-16.977677756253065 L-6.713834764831864,-16.948677406159426 " />
			<path d="M-6.713834764831844,-16.948677406159415 L-6.657631164243606,-16.914464479135642 L-6.602995426810685,-16.877630499941432 L-6.549966825052013,-16.83820194507757 L-6.4985834762670684,-16.796207156042495 L-6.448882315136931,-16.751676318960246 L-6.400899067175392,-16.704641442882487 L-6.3546682230492255,-16.655136336780185 L-6.3102230137860715,-16.60319658524152 L-6.267595386887767,-16.548859522893448 L-6.226815983366272,-16.49216420756532 L-6.187914115718714,-16.43315139221388 L-6.1509177468573775,-16.371863495629775 L-6.115853470009782,-16.30834457194664 L-6.082746489603302,-16.24264027897473 L-6.051620603148059,-16.174797845381768 L-6.022498184131121,-16.104866036744692 " />
			<path d="M-45.242743451893574,11.001762405946403 L-45.317867384214345,11.011507555576618 L-45.39218359838803,11.018472963987548 L-45.46563867544264,11.022653624398899 L-45.53817981539707,11.024046531725118 L-45.609754875214094,11.022650684735474 L-45.68031240628106,11.018467086773748 L-45.74980169139153,11.01149874503702 L-45.818172781201135,11.001750668414081 L-45.885376530131445,10.989229863885006 L-45.951364631696165,10.973945331484497 L-46.01608965322413,10.955908057832598 L-46.079505069954216,10.935131008237441 L-46.14156529847763,10.9116291173757 L-46.20222572950358,10.88541927855745 L-46.26144275992469,10.85652033158315 L-46.319173824159215,10.824953049201474 " />
			<path d="M-46.31917382415922,10.824953049201469 L-46.37068392449984,10.793735638495843 L-46.42088297654097,10.760319971379161 L-46.46974074225073,10.7247261761998 L-46.517227791537955,10.686975693329037 L-46.56331551997982,10.647091262246175 L-46.607976166052026,10.605096907841121 L-46.651182827851365,10.5610179259427 L-46.69290947930036,10.514880868081388 L-46.733130985824445,10.466713525495663 L-46.77182311949206,10.416544912391608 L-46.80896257360869,10.36440524846583 L-46.8445269767559,10.310325940702253 L-46.878494906267065,10.254339564453716 L-46.91084590113161,10.196479843819805 L-46.94156047431989,10.136781631332717 L-46.970620124521524,10.075280886963395 L-46.99800734728983,10.012014656460583 L-47.02370564558589,9.947021049035861 L-47.04769953971573,9.880339214408075 L-47.06997457665472,9.81200931922101 L-47.09051733875353,9.742072522848508 L-47.10931545182039,9.670570952601597 L-47.126357592574934,9.597547678352576 L-47.14163349546879,9.523046686591343 L-47.16685085060201,9.369791920068668 L-47.18490676640278,9.211175857189653 L-47.19575774458843,9.047580617942906 L-47.19937764420205,8.879400317589022 L-47.19575774458843,8.707040117202403 L-47.18490676640278,8.530915247602756 L-47.16685085060201,8.351450009027664 L-47.14163349546879,8.169076748956149 L-47.10931545182039,7.984234820545737 L-47.06997457665472,7.797369524192207 L-47.02370564558589,7.608931034761943 L-46.970620124521524,7.419373317081245 L-46.91084590113161,7.229153032295299 L-46.8445269767559,7.038728437731486 L-46.77182311949207,6.848558282917334 L-46.69290947930036,6.659100704412724 L-46.607976166052026,6.470812122118802 L-46.517227791537955,6.284146139722449 L-46.42088297654098,6.099552451925264 L-46.31917382415922,5.917475761089649 L-46.21234536064945,5.73835470591186 L-46.10065494513733,5.56262080470297 L-45.98437164961674,5.390697415823467 L-45.863775610731814,5.222998717775866 L-45.73915735490319,5.059928711412439 L-45.610817098424434,4.901880246661765 L-45.47906402421467,4.749234076118834 L-45.34421553696989,4.602357937778711 L-45.20659649850719,4.461605669123486 L-45.06653844514423,4.327316354696794 L-44.924378788999206,4.199813509219442 L-44.78046000513548,4.079404298214118 L-44.63512880650917,3.9663787980167307 L-44.48873530870729,3.861009296957123 L-44.341632186488596,3.7635496393926253 L-44.19417382415922,3.6742346141747673 L-44.04671546182985,3.593279389022372 L-43.89961233961115,3.5208789921636736 L-43.75321884180927,3.4572078424962287 L-43.60788764318297,3.402419329396521 L-43.53572994026368,3.378398153487725 L-43.46396885931924,3.3566454431915123 L-43.3926476265415,3.3371743015271793 L-43.32180920317421,3.319996457182392 L-43.25149625963479,3.305122257448262 L-43.181751149811255,3.2925606619865273 L-43.11261588554982,3.282319237432585 L-43.04413211134855,3.274404152837636 L-42.97634107927225,3.2688201759526754 L-42.90928362410377,3.265570670356581 L-42.84300013874667,3.264657593430017 L-42.77753054989402,3.266081495176381 L-42.71291429397807,3.2698415178905043 L-42.64919029341525,3.275935396675302 L-42.5863969331607,3.284359460806057 L-42.52457203758663,3.295108635941533 L-42.463752847698366,3.3081764471805672 L-42.4039759987017,3.323555022962305 L-42.3452774979353,3.3412350998077383 L-42.28769270318112,3.3612060278996747 L-42.2312563013663,3.383455777497794 L-42.17600228766899,3.4079709461849097 L-42.121963945040974,3.4347367669400857 L-42.06917382415924,3.463737117033727 " />
			<path d="M-42.06917382415922,3.4637371170337383 L-42.01297022357098,3.4979500440575113 L-41.958334486138064,3.53478402325172 L-41.90530588437939,3.574212578115581 L-41.85392253559445,3.6162073671506563 L-41.80422137446431,3.660738204232906 L-41.75623812650277,3.707773080310667 L-41.7100072823766,3.757278186412968 L-41.66556207311345,3.8092179379516313 L-41.62293444621515,3.863555000299705 L-41.58215504269365,3.920250315627832 L-41.54325317504609,3.97926313097927 L-41.50625680618476,4.040551027563376 L-41.47119252933716,4.10406995124651 L-41.43808554893068,4.169774244218421 L-41.40695966247544,4.237616677811383 L-41.3778372434585,4.30754848644846 " />
			<path d="M-9.196067811865476,-8.566840747832032 L-10.963834764831844,-9.58746147399169 " />
			<path d="M-4.90123482376001,-15.902172342248491 L-6.713834764831844,-16.948677406159415 " />
			<path d="M-44.55140687119285,11.84557377536112 L-46.31917382415922,10.824953049201461 " />
			<path d="M-40.30140687119285,4.484357843193395 L-42.06917382415922,3.4637371170337374 " />
			<path d="M-43.83694077712559,2.4431163908740796 L-42.06917382415922,3.4637371170337374 " />
			<path d="M-48.08694077712559,9.804332323041804 L-46.31917382415922,10.824953049201461 " />
			<path d="M-8.481601717798213,-17.969298132319075 L-6.713834764831844,-16.948677406159415 " />
			<path d="M-12.731601717798213,-10.608082200151348 L-10.963834764831844,-9.58746147399169 " />

       </g>

       <!-- solid lines -->
       <g  stroke="rgb(0,0,0)" fill="none">
			<path d="M42.42640687119285,28.577380332470415 L5.656854249492376,7.348469228349533 " />
			<path d="M42.42640687119285,28.577380332470415 L42.42640687119285,-12.24744871391589 " />
			<path d="M42.42640687119285,-12.24744871391589 L5.656854249492376,-33.47635981803677 " />
			<path d="M5.656854249492381,7.348469228349534 L5.5163243578965355,7.269301565645792 L5.372471638776147,7.192148898620103 L5.225382743630214,7.117057701154159 L5.075146273309164,7.044073205377471 L4.9218527246450146,6.9732393744212295 L4.765594435939468,6.904598875936557 L4.606465531342763,6.838193056393104 L4.444561864156818,6.7740619161734905 L4.279980959096777,6.71224408547857 L4.112821953545773,6.652776801058032 L3.9431855378382727,6.595695883780389 L3.7711738946079825,6.541035717055815 L3.5968906372368545,6.488829226124869 L3.4204407474422576,6.439107858225561 L3.241930512039919,6.3919015636507135 L3.0614674589207187,6.347238777707021 L2.879160292279906,6.305146403586686 L2.6951188271377604,6.265649796161944 L2.509453923191131,6.2287727467122345 L2.3222774180356986,6.194537468593223 L2.1337020597991874,6.162964583856312 L1.9438414392261119,6.1340731108266775 L1.75280992125496,6.107880452647352 L1.5607225761290267,6.084402386796215 L1.367695110082409,6.063653055582237 L1.173843795642894,6.045644957626671 L0.9792854015937302,6.03038894033436 L0.7841371226364862,6.017894193359662 L0.5885165087973414,6.008168243070944 L0.392541394619345,6.001216948016986 L0.1963298281832981,5.9970444953980016 L4.898587196589413e-16,5.995653398543431 L-0.19632982818329714,5.9970444953980016 L-0.39254139461934406,6.001216948016986 L-0.5885165087973404,6.008168243070944 L-0.7841371226364852,6.017894193359661 L-0.9792854015937292,6.03038894033436 L-1.173843795642893,6.045644957626671 L-1.3676951100824082,6.063653055582236 L-1.5607225761290255,6.084402386796215 L-1.7528099212549588,6.107880452647351 L-1.943841439226111,6.1340731108266775 L-2.1337020597991865,6.162964583856312 L-2.3222774180356973,6.194537468593223 L-2.50945392319113,6.2287727467122345 L-2.6951188271377595,6.265649796161944 L-2.8791602922799053,6.305146403586686 L-3.061467458920718,6.347238777707021 L-3.2419305120399193,6.391901563650714 L-3.420440747442258,6.439107858225562 L-3.5968906372368536,6.488829226124869 L-3.7711738946079816,6.541035717055814 L-3.943185537838272,6.5956958837803885 L-4.112821953545773,6.652776801058032 L-4.279980959096776,6.712244085478569 L-4.444561864156816,6.7740619161734905 L-4.60646553134276,6.838193056393102 L-4.765594435939463,6.904598875936555 L-4.921852724645011,6.973239374421228 L-5.075146273309163,7.04407320537747 L-5.225382743630215,7.117057701154159 L-5.3724716387761475,7.192148898620104 L-5.5163243578965355,7.269301565645792 L-5.656854249492355,7.3484692283495185 " />
			<path d="M45.96194077712559,26.5361388801511 L42.42640687119285,28.577380332470415 " />
			<path d="M-5.65685424949238,7.3484692283495345 L-53.03300858899107,34.70110468942837 " />
			<path d="M-53.033008588991066,34.701104689428355 L-56.568542494923804,32.659863237109036 " />
			<path d="M5.656854249492381,-33.47635981803678 L5.5163243578965355,-33.555527480740516 L5.372471638776147,-33.63268014776621 L5.225382743630214,-33.70777134523215 L5.075146273309164,-33.78075584100884 L4.9218527246450146,-33.85158967196508 L4.765594435939468,-33.920230170449756 L4.606465531342763,-33.986635989993204 L4.444561864156818,-34.05076713021282 L4.279980959096777,-34.11258496090774 L4.112821953545773,-34.172052245328274 L3.9431855378382727,-34.22913316260592 L3.7711738946079825,-34.28379332933049 L3.5968906372368545,-34.33599982026144 L3.4204407474422576,-34.38572118816075 L3.241930512039919,-34.43292748273559 L3.0614674589207187,-34.477590268679286 L2.879160292279906,-34.51968264279962 L2.6951188271377604,-34.55917925022437 L2.509453923191131,-34.596056299674075 L2.3222774180356986,-34.63029157779309 L2.1337020597991874,-34.66186446253 L1.9438414392261119,-34.69075593555963 L1.75280992125496,-34.716948593738955 L1.5607225761290267,-34.74042665959009 L1.367695110082409,-34.76117599080407 L1.173843795642894,-34.779184088759635 L0.9792854015937302,-34.79444010605195 L0.7841371226364862,-34.80693485302665 L0.5885165087973414,-34.816660803315365 L0.392541394619345,-34.823612098369324 L0.1963298281832981,-34.827784550988305 L4.898587196589413e-16,-34.82917564784288 L-0.19632982818329714,-34.827784550988305 L-0.39254139461934406,-34.823612098369324 L-0.5885165087973404,-34.816660803315365 L-0.7841371226364852,-34.80693485302665 L-0.9792854015937292,-34.79444010605195 L-1.173843795642893,-34.779184088759635 L-1.3676951100824082,-34.76117599080408 L-1.5607225761290255,-34.74042665959009 L-1.7528099212549588,-34.716948593738955 L-1.943841439226111,-34.69075593555963 L-2.1337020597991865,-34.66186446253 L-2.3222774180356973,-34.63029157779309 L-2.50945392319113,-34.596056299674075 L-2.6951188271377595,-34.55917925022437 L-2.8791602922799053,-34.51968264279962 L-3.061467458920718,-34.477590268679286 L-3.2419305120399193,-34.43292748273559 L-3.420440747442258,-34.385721188160744 L-3.5968906372368536,-34.33599982026144 L-3.7711738946079816,-34.28379332933049 L-3.943185537838272,-34.22913316260592 L-4.112821953545773,-34.172052245328274 L-4.279980959096776,-34.11258496090774 L-4.444561864156816,-34.05076713021282 L-4.60646553134276,-33.986635989993204 L-4.765594435939463,-33.920230170449756 L-4.921852724645011,-33.85158967196508 L-5.075146273309163,-33.78075584100884 L-5.225382743630215,-33.70777134523215 L-5.3724716387761475,-33.63268014776621 L-5.5163243578965355,-33.555527480740516 L-5.656854249492355,-33.47635981803679 " />
			<path d="M-5.6568542494923815,-16.125807473322592 L-5.554603121918277,-16.118449140632542 L-5.454191955193165,-16.10453931286045 L-5.355833493753024,-16.08441798872553 L-5.25972762327394,-16.058420967033115 L-5.1660609962436395,-16.026879820821126 L-5.075006657533022,-15.990121871506537 L-4.986704392615052,-15.948460337220636 L-4.901234824084545,-15.902172341110996 " />
			<path d="M-4.901234824084543,-15.902172341110994 L-4.827668889216833,-15.857332817618088 L-4.7564693739748884,-15.809223081498514 L-4.687686762407919,-15.758011330990957 L-4.621365721392715,-15.703855763111507 L-4.557544295772455,-15.646903260970822 L-4.496257728604385,-15.587292219260041 L-4.437538671512768,-15.525153009218807 L-4.381417091968283,-15.460607919156631 L-4.327920929855453,-15.393772006259672 L-4.277076497304644,-15.324753700140704 L-4.228908579128569,-15.253655317458193 L-4.183440282273751,-15.180572816714113 L-4.14068916168537,-15.105588665970645 L-4.100677584800768,-15.028789034241845 L-4.063428445152722,-14.950259343608792 L-4.028962805176573,-14.870080743956327 L-3.9972999507094595,-14.788330268615216 L-3.9684574434351307,-14.705080986831147 L-3.9424511712743815,-14.620402153060619 L-3.9192953967210733,-14.534359353093649 L-3.8990028031237647,-14.447014647003366 L-3.881584538912938,-14.358426708922444 L-3.8670502597738277,-14.268650963646397 L-3.8554081687648507,-14.177739720063732 L-3.8466650543816354,-14.085742301412953 L-3.840826326566653,-13.992705172366428 L-3.8378960506644497,-13.89867206294111 L-3.8378769354086777,-13.803687010803106 L-3.84076931583875,-13.7078074613187 L-3.8465710250715057,-13.611075032943111 L-3.8552783718114183,-13.513526417792567 L-3.8668861582867464,-13.415196492094383 L-3.881387648826701,-13.316118435633816 L-3.898774538438607,-13.216323851200926 L-3.919036921385073,-13.115842884037418 L-3.9421632597611524,-13.014704341283506 L-3.9681403520715133,-12.91293581142476 L-3.9969533018076,-12.810563783738957 L-4.028585486024799,-12.707613767742943 L-4.063018523919607,-12.604110412639479 L-4.100234366606472,-12.500071846855914 L-4.140215689055277,-12.395510402390784 L-4.1829423429777,-12.290442676322991 L-4.2283931138026825,-12.184884114853059 L-4.276545666909874,-12.078849318276276 L-4.32737653407918,-11.972352168798997 L-4.380860923531213,-11.865406292053741 L-4.436972510007697,-11.758025426630681 L-4.495683350491994,-11.650223680683528 L-4.556963483290969,-11.542015993099948 L-4.687098340373271,-11.324451565815647 L-4.827079892978018,-11.105491521418406 L-4.97652876848111,-10.885372188238328 L-5.134985152777524,-10.664389610978914 L-5.301853472835748,-10.442964389984116 L-5.476180886378812,-10.221899349908186 L-5.6568542494923655,-10.002083116364664 " />
			<path d="M45.96194077712559,26.5361388801511 L45.96194077712559,-14.288690166235206 " />
			<path d="M45.96194077712559,-14.288690166235206 L42.42640687119285,-12.24744871391589 " />
			<path d="M-5.65685424949238,-33.47635981803678 L-53.03300858899107,-6.123724356957943 " />
			<path d="M0.0,-40.824829046386306 L45.9619407771256,-14.288690166235199 " />
			<path d="M-53.033008588991066,-6.1237243569579505 L-56.568542494923804,-8.164965809277266 " />
			<path d="M-56.568542494923804,-8.164965809277263 L7.105427357601002e-15,-40.82482904638631 " />
			<path d="M-53.033008588991066,34.701104689428355 L-53.033008588991066,-6.1237243569579505 " />
			<path d="M-7.0710678118654755,-8.777338244973055 L-6.979055842012209,-8.83208826201085 L-6.88713014755018,-8.890040705425061 L-6.79537692297416,-8.951141235875532 L-6.703882201061843,-9.015332562205707 L-6.612731772204869,-9.08255449516193 L-6.522011103967113,-9.152744003830126 L-6.431805260945696,-9.225835274736998 L-6.342198825009812,-9.301759773560285 L-6.2532758159922075,-9.380446309390253 L-6.165119612907648,-9.46182110148213 L-6.077812875772251,-9.545807848436914 L-5.991437468096993,-9.632327799745688 L-5.906074380128059,-9.721299829630356 L-5.821803652906016,-9.812640513111536 L-5.738704303215015,-9.90626420423234 L-5.656854249492385,-10.002083116364638 " />
			<path d="M-5.656854249492381,-16.12580747332259 L-5.776135455781401,-16.12651034667714 L-5.897977202767555,-16.11954293893113 L-6.02213856608881,-16.104919027121635 L-6.148374034678658,-16.082667527910726 L-6.276433996228606,-16.052832440406952 L-6.406065230760264,-16.015472759163497 L-6.537011411331088,-15.970662357525033 L-6.669013610883681,-15.91848984155388 L-6.801810814236458,-15.859058374824404 L-6.935140434203261,-15.792485474432024 L-7.068738830821388,-15.71890277862022 L-7.202341832661338,-15.638455786485025 L-7.335685259187452,-15.551303570271685 L-7.468505443136566,-15.457618460832393 L-7.600539751881728,-15.35758570686706 L-7.731527106750085,-15.251403108620906 L-7.861208499268049,-15.139280626763192 L-7.989327503312937,-15.021439967220498 L-8.115630782158403,-14.898114142785438 L-8.239868589411019,-14.769547012367697 L-8.361795262847503,-14.635992798798455 L-8.481169710176097,-14.49771558614165 L-8.597755885761563,-14.354988797506087 L-8.711323257371149,-14.20809465439095 L-8.821647262018605,-14.05732361863376 L-8.928509750004885,-13.902973818064272 L-9.031699416277485,-13.745350456999997 L-9.131012218255517,-13.584765212748964 L-9.22625177929427,-13.421535619313108 L-9.31722977699152,-13.25598443951089 L-9.403766315567728,-13.0884390267607 L-9.485690281583823,-12.919230677786993 L-9.562839682293182,-12.748693977529134 L-9.635061965958759,-12.577166137548264 L-9.702214323501998,-12.404986329240403 L-9.764163970887047,-12.23249501317426 L-9.820788411681901,-12.060033265879909 L-9.871975679277321,-11.887942105419466 L-9.917624558284539,-11.716561817073401 L-9.957644784673983,-11.546231280475801 L-9.991957224259304,-11.377287299529105 L-10.02049402917373,-11.210063936423285 L-10.043198772029367,-11.0448918510764 L-10.060026557494174,-10.882097647302595 L-10.070944111065955,-10.722003227000503 L-10.07592984486786,-10.56492515363897 L-10.074973900335273,-10.411174026298777 L-10.068078167709693,-10.26105386550805 L-10.055256282301059,-10.114861512085817 L-10.036533597525903,-9.97288604018239 L-10.011947134774646,-9.83540818567721 L-9.981545510207182,-9.702699791064415 L-9.945388838621476,-9.575023267923775 L-9.903548614585281,-9.452631078039904 L-9.856107571066014,-9.33576523419574 L-9.803159515838324,-9.224656821627404 L-9.74480914599284,-9.119525541086706 L-9.681171840912878,-9.020579274414807 L-9.612373434128468,-8.928013673486072 L-9.57608093831465,-8.884181324039101 L-9.538549964498813,-8.8420117733349 L-9.499799067987102,-8.801525869991124 L-9.459847407215207,-8.762743630230505 L-9.418714734276438,-8.725684227984832 L-9.376421385156288,-8.69036598541536 L-9.332988269678326,-8.656806363854336 L-9.288436861166389,-8.625021955172132 L-9.242789185828173,-8.595028473574207 L-9.196067811865495,-8.566840747832037 " />
			<path d="M-9.196067811865476,-8.566840747832025 L-9.14327769098372,-8.537840397738373 L-9.089239348355703,-8.511074576983198 L-9.033985334658398,-8.486559408296081 L-8.977548932843577,-8.464309658697962 L-8.9199641380894,-8.444338730606026 L-8.86126563732299,-8.426658653760592 L-8.801488788326335,-8.411280077978855 L-8.740669598438068,-8.39821226673982 L-8.678844702864,-8.387463091604344 L-8.616051342609445,-8.37903902747359 L-8.552327342046626,-8.372945148688792 L-8.487711086130686,-8.369185125974669 L-8.422241497278034,-8.367761224228303 L-8.355958011920926,-8.368674301154869 L-8.288900556752445,-8.371923806750964 L-8.221109524676145,-8.377507783635924 L-8.152625750474874,-8.385422868230872 L-8.083490486213442,-8.395664292784815 L-8.013745376389906,-8.408225888246548 L-7.943432432850485,-8.423100087980679 L-7.872594009483196,-8.440277932325467 L-7.801272776705457,-8.4597490739898 L-7.729511695761021,-8.481501784286012 L-7.657353992841729,-8.505522960194808 L-7.512022794215424,-8.560311473294515 L-7.365629296413545,-8.623982622961961 L-7.218526174194849,-8.696383019820662 L-7.071067811865478,-8.777338244973052 " />
			<path d="M-42.42640687119285,11.635076278220097 L-42.315793664204314,11.568862313055453 L-42.20533036364335,11.498035282429559 L-42.095166672779726,11.422691173317446 L-41.9854518888429,11.342932094378137 L-41.87633470068985,11.258866137573847 L-41.76796298729731,11.170607231680428 L-41.66048361735163,11.078274987887578 L-41.55404225020784,10.981994537698071 L-41.44878313848757,10.881896363345685 L-41.34484893258345,10.778116120961654 L-41.24238048733493,10.670794456729311 L-41.1415166711374,10.56007681627603 L-41.04239417774355,10.446113247560838 L-40.945147341011705,10.329058197524787 L-40.84990795285246,10.209070302779715 L-40.75680508462026,10.086312174619 L-40.66596491219186,9.960950178641735 L-40.57751054496893,9.833154209288942 L-40.49156185903638,9.703097459597378 L-40.408235334702624,9.570956186483007 L-40.327643898641824,9.436909471872182 L-40.24989677085223,9.301138980004307 L-40.17509931663784,9.163828711234853 L-40.10335290381412,9.025164752672415 L-40.03475476533118,8.885335025987718 L-39.96939786750071,8.744529032736377 L-39.90737078400518,8.602937597540551 L-39.84875757586001,8.460752609477536 L-39.79363767749154,8.318166762025765 L-39.742085789085,8.175373291920668 L-39.69417177534858,8.0325657172743 L-39.64996057083055,7.889937575313624 L-39.60951209191801,7.747682160092893 L-39.572881155636345,7.605992260535594 L-39.54011740535948,7.465059899160962 L-39.51126524353168,7.3250760718491295 L-39.48636377149197,7.186230488997633 L-39.46544673648282,7.048711318420033 L-39.448542485914786,6.912704930335092 L-39.43567392894929,6.778395644792106 L-39.426858505451385,6.645965481874701 L-39.42210816235472,6.515593915021597 L-39.42142933747067,6.387457627798673 L-39.42482295076365,6.261730274451958 L-39.43228440310432,6.138582244566042 L-39.44380358250248,6.018180432146851 L-39.459364877811154,5.900688009441762 L-39.47894719988329,5.7862642058035245 L-39.50252401015242,5.67506409189775 L-39.530063356598546,5.5672383695463585 L-39.561527917050526,5.4629331674918244 L-39.59687504976618,5.3622898433590045 L-39.63605685122175,5.2654447920829215 L-39.67902022103218,5.172529261062149 L-39.72570693391444,5.083669172288291 L-39.776053718596174,4.998984951692613 L-39.82999234356295,4.918591365941115 L-39.88744970952763,4.842597366899204 L-39.948347948496846,4.771105943976764 L-40.01260452930005,4.7042139845537445 L-40.080132369438346,4.6420121426753855 L-40.15083995310135,4.5845847161950655 L-40.224631455192224,4.532009532531257 L-40.301406871192846,4.484357843193404 " />
			<path d="M-40.30140687119285,4.484357843193398 L-40.354196992074606,4.455357493099745 L-40.408235334702624,4.42859167234457 L-40.46348934839993,4.404076503657453 L-40.51992575021475,4.381826754059334 L-40.57751054496893,4.361855825967398 L-40.63620904573534,4.344175749121964 L-40.695985894732,4.328797173340227 L-40.75680508462026,4.315729362101193 L-40.81862998019433,4.304980186965716 L-40.88142334044888,4.2965561228349625 L-40.945147341011705,4.290462244050165 L-41.00976359692764,4.286702221336041 L-41.07523318578029,4.285278319589676 L-41.1415166711374,4.286191396516241 L-41.208574126305884,4.289440902112335 L-41.276365158382184,4.295024878997295 L-41.34484893258345,4.3029399635922445 L-41.413984196844886,4.313181388146187 L-41.48372930666842,4.325742983607921 L-41.55404225020784,4.340617183342052 L-41.624880673575134,4.357795027686839 L-41.69620190635287,4.377266169351172 L-41.76796298729731,4.399018879647384 L-41.8401206902166,4.4230400555561795 L-41.9854518888429,4.477828568655887 L-42.131845386644784,4.541499718323333 L-42.27894850886348,4.613900115182032 L-42.42640687119285,4.694855340334426 L-42.57386523352223,4.784170365552283 L-42.72096835574092,4.881630023116783 L-42.8673618535428,4.986999524176389 L-43.012693052169105,5.100025024373776 L-43.15661183603284,5.220434235379102 L-43.29877149217786,5.347937080856453 L-43.43882954554082,5.482226395283146 L-43.57644858400352,5.622978663938369 L-43.7112970712483,5.769854802278493 L-43.843050145458065,5.922500972821424 L-43.97139040193682,6.080549437572098 L-44.096008657765445,6.243619443935525 L-44.21660469665037,6.411318141983125 L-44.33288799217095,6.583241530862629 L-44.44457840768308,6.758975432071518 L-44.55140687119285,6.938096487249307 L-44.653116023574604,7.120173178084923 L-44.749460838571586,7.304766865882108 L-44.84020921308566,7.4914328482784605 L-44.92514252633399,7.679721430572382 L-45.0040561665257,7.8691790090769915 L-45.07676002378953,8.059349163891143 L-45.14307894816524,8.249773758454957 L-45.202853171555155,8.439994043240903 L-45.25593869261952,8.6295517609216 L-45.30220762368835,8.817990250351865 L-45.341548498854024,9.004855546705395 L-45.37386654250241,9.189697475115807 L-45.39908389763564,9.372070735187322 L-45.417139813436414,9.551535973762416 L-45.42799079162206,9.727660843362061 L-45.43161069123568,9.90002104374868 L-45.42799079162206,10.068201344102567 L-45.417139813436414,10.231796583349315 L-45.39908389763564,10.390412646228325 L-45.37386654250242,10.543667412751 L-45.358590639608565,10.618168404512236 L-45.341548498854024,10.691191678761255 L-45.32275038578716,10.762693249008166 L-45.30220762368835,10.832630045380668 L-45.27993258674936,10.900959940567734 L-45.25593869261952,10.967641775195519 L-45.23024039432346,11.03263538262024 L-45.202853171555155,11.09590161312305 L-45.173793521353524,11.157402357492375 L-45.14307894816524,11.217100569979461 L-45.1107279533007,11.274960290613372 L-45.07676002378953,11.33094666686191 L-45.04119562064233,11.385025974625488 L-45.00405616652569,11.437165638551265 L-44.965364032858076,11.487334251655321 L-44.92514252633399,11.535501594241046 L-44.883415874884996,11.581638652102358 L-44.84020921308566,11.62571763400078 L-44.79554856701345,11.667711988405834 L-44.749460838571586,11.707596419488697 L-44.70197378928436,11.745346902359458 L-44.653116023574604,11.78094069753882 L-44.602916971533475,11.814356364655502 L-44.551406871192874,11.845573775361116 " />
			<path d="M-44.55140687119285,11.845573775361128 L-44.4986167503111,11.87457412545478 L-44.44457840768308,11.901339946209955 L-44.389324393985774,11.925855114897072 L-44.33288799217095,11.94810486449519 L-44.275303197416775,11.968075792587127 L-44.21660469665037,11.98575586943256 L-44.156827847653716,12.001134445214298 L-44.096008657765445,12.014202256453332 L-44.034183762191375,12.024951431588809 L-43.97139040193682,12.033375495719563 L-43.907666401374,12.03946937450436 L-43.843050145458065,12.043229397218484 L-43.777580556605415,12.04465329896485 L-43.7112970712483,12.043740222038284 L-43.64423961607982,12.04049071644219 L-43.57644858400352,12.03490673955723 L-43.50796480980225,12.02699165496228 L-43.43882954554082,12.016750230408338 L-43.369084435717284,12.004188634946605 L-43.29877149217786,11.989314435212474 L-43.22793306881057,11.972136590867686 L-43.15661183603284,11.952665449203353 L-43.0848507550884,11.930912738907141 L-43.012693052169105,11.906891562998345 L-42.8673618535428,11.852103049898638 L-42.72096835574092,11.788431900231192 L-42.57386523352223,11.716031503372491 L-42.42640687119285,11.635076278220101 " />
			<path d="M-56.568542494923804,32.65986323710904 L-56.568542494923804,-8.164965809277263 " />
			<path d="M-43.01492618265215,5.1018282533215835 L-43.038551901827624,5.240100239339734 L-43.06612930298893,5.379566661560792 L-43.09762110846825,5.520038996674373 L-43.13298474931369,5.661327361630408 L-43.172172422831714,5.803240770312982 L-43.215131157204304,5.94558739170523 L-43.26180288309344,6.08817480919633 L-43.31212451213616,6.230810280680069 L-43.366028022224064,6.373300999093395 L-43.42344054945197,6.51545435304278 L-43.484284486611514,6.657078187166075 L-43.54847758809642,6.797981061877943 L-43.61593308107776,6.937972512147729 L-43.686559782798874,7.076863304959985 L-43.760262223831354,7.214465695109617 L-43.83694077712559,7.350593678985903 L-43.91649179268129,7.485063246002293 L-43.998807737656094,7.617692627332165 L-44.08377734172271,7.748302541614281 L-44.1712857474783,7.876716437295819 L-44.26121466570258,8.002760731285392 L-44.35344253525494,8.126265043593468 L-44.44784468739431,8.247062427642996 L-44.544293514299795,8.364989595938933 L-44.642658641564125,8.479887140791615 L-44.742807104426866,8.59159974979562 L-44.84460352750914,8.699976415772834 L-44.947910307806886,8.804870640895942 L-45.05258780069526,8.906140634716419 L-45.158494508692876,9.003649505829339 L-45.26548727273059,9.097265446915914 L-45.37342146566628,9.186861912913617 " />
			<path d="M-7.659587123324769,-15.310586269871573 L-7.683212842500245,-15.172314283853423 L-7.71079024366155,-15.032847861632364 L-7.742282049140872,-14.892375526518784 L-7.777645689986312,-14.751087161562747 L-7.816833363504337,-14.609173752880174 L-7.859792097876926,-14.466827131487927 L-7.906463823766062,-14.324239713996826 L-7.9567854528087825,-14.181604242513087 L-8.010688962896683,-14.03911352409976 L-8.068101490124594,-13.896960170150376 L-8.128945427284137,-13.75533633602708 L-8.19313852876904,-13.614433461315212 L-8.260594021750382,-13.474442011045426 L-8.331220723471493,-13.33555121823317 L-8.404923164503977,-13.197948828083538 L-8.481601717798213,-13.06182084420725 L-8.561152733353916,-12.927351277190862 L-8.643468678328714,-12.79472189586099 L-8.728438282395333,-12.664111981578873 L-8.815946688150923,-12.535698085897335 L-8.905875606375204,-12.409653791907761 L-8.99810347592756,-12.286149479599686 L-9.092505628066933,-12.165352095550158 L-9.188954454972418,-12.047424927254221 L-9.287319582236748,-11.932527382401538 L-9.38746804509949,-11.820814773397533 L-9.489264468181767,-11.71243810742032 L-9.592571248479508,-11.607543882297211 L-9.697248741367881,-11.506273888476734 L-9.803155449365502,-11.408765017363814 L-9.910148213403213,-11.315149076277239 L-10.018082406338905,-11.225552610279536 " />
			<path d="M-8.838834764831844,-9.797958971132713 L-8.972678418048478,-9.724127615125685 L-9.106256451122524,-9.65732940794755 L-9.239303771049274,-9.597696914340002 L-9.37155633805365,-9.545348478289284 L-9.50275168959178,-9.500387988165999 L-9.632629461222418,-9.462904670552883 L-9.760931903314631,-9.432972913169712 L-9.887404392566188,-9.410652117246752 " />
			<path d="M-6.02249818413112,-16.10486603674469 L-5.992204491229799,-16.023894741217042 L-5.964491855046424,-15.94042472238382 L-5.939385402794197,-15.854531663011016 L-5.916907898643742,-15.76629344284999 L-5.897079723082693,-15.675790068023431 L-5.8799188544365855,-15.583103598483332 L-5.865440852567798,-15.488318073606738 L-5.853658844767337,-15.391519435996738 L-5.844583513852241,-15.292795453557794 L-5.838223088479401,-15.192235639916055 L-5.834583335684597,-15.089931173256817 L-5.833667555653488,-14.985974813652716 L-5.835476578729312,-14.880460818957614 L-5.840008764660013,-14.77348485934244 L-5.847260004085462,-14.665143930550473 L-5.857223722263444,-14.555536265950714 L-5.869890885031014,-14.444761247469112 L-5.885250006995823,-14.332919315478375 L-5.903287161949999,-14.22011187772807 L-5.923985995497117,-14.106441217397633 L-5.947327739880833,-13.99201040035557 L-5.973291231001716,-13.876923181709033 L-6.001852927606869,-13.761283911728448 L-6.03298693263492,-13.645197441232485 L-6.0666650166970415,-13.5287690265192 L-6.102856643672714,-13.412104233929519 L-6.141528998397002,-13.295308844129606 L-6.182647016414261,-13.178488756198895 L-6.226173415771296,-13.061749891610768 L-6.272068730821122,-12.945198098192911 L-6.320291348006709,-12.828939054154462 L-6.370797543592245,-12.71307817226694 L-6.423541523307702,-12.597720504285864 L-6.478475463870783,-12.48297064569968 L-6.5355495563485695,-12.368932640892425 L-6.59471205131959,-12.255709888806047 L-6.655909305795321,-12.143405049187969 L-6.7190858318586075,-12.032119949508884 L-6.7841843469748975,-11.92195549263517 L-6.851145825930651,-11.81301156533967 L-6.919909554351856,-11.70538694773374 L-6.990413183754118,-11.599179223702741 L-7.062592788074402,-11.494484692426147 L-7.136382921633175,-11.391398281062497 L-7.211716678474401,-11.290013458678374 L-7.288525753029568,-11.190422151499439 L-7.366740502050757,-11.09271465956038 L-7.4462900077565894,-10.996979574829322 L-7.52710214213381,-10.90330370088096 L-7.609103632336182,-10.811771974191243 L-7.692220127121422,-10.722467387124956 L-7.776376264265911,-10.635470912686051 L-7.861495738896077,-10.550861431098934 L-7.947501372674481,-10.468715658287298 L-8.034315183777878,-10.389108076315338 L-8.121858457603796,-10.312110865854402 L-8.210051818141551,-10.237793840736368 L-8.29881529994294,-10.166224384653006 L-8.388068420627395,-10.097467390058782 L-8.477730253855844,-10.031585199332493 L-8.567719502707103,-9.968637548251047 L-8.657954573390276,-9.908681511826684 L-8.748353649226345,-9.851771452556711 L-8.838834764831828,-9.797958971132724 " />
			<path d="M-44.19417382415922,10.61445555206044 L-44.32801747737586,10.688286908067468 L-44.461595510449904,10.755085115245603 L-44.59464283037665,10.814717608853151 L-44.72689539738103,10.867066044903869 L-44.85809074891915,10.912026535027152 L-44.98796852054979,10.949509852640269 L-45.116270962642005,10.97944161002344 L-45.24274345189356,11.001762405946401 " />
			<path d="M-41.3778372434585,4.307548486448461 L-41.34754355055718,4.388519781976109 L-41.3198309143738,4.471989800809331 L-41.29472446212158,4.557882860182134 L-41.27224695797112,4.6461210803431605 L-41.25241878241007,4.73662445516972 L-41.23525791376396,4.8293109247098185 L-41.22077991189518,4.924096449586413 L-41.208997904094716,5.020895087196413 L-41.19992257317962,5.119619069635357 L-41.19356214780678,5.220178883277097 L-41.189922395011976,5.322483349936334 L-41.18900661498087,5.426439709540435 L-41.19081563805669,5.531953704235535 L-41.19534782398739,5.63892966385071 L-41.20259906341284,5.747270592642678 L-41.21256278159082,5.856878257242437 L-41.22522994435839,5.967653275724039 L-41.2405890663232,6.079495207714777 L-41.258626221277375,6.19230264546508 L-41.2793250548245,6.3059733057955185 L-41.30266679920821,6.420404122837582 L-41.328630290329095,6.535491341484117 L-41.35719198693425,6.651130611464701 L-41.3883259919623,6.767217081960665 L-41.42200407602442,6.883645496673951 L-41.458195703000094,7.000310289263632 L-41.49686805772438,7.117105679063545 L-41.537986075741635,7.233925766994254 L-41.58151247509867,7.350664631582381 L-41.627407790148496,7.467216425000239 L-41.67563040733408,7.58347546903869 L-41.726136602919624,7.6993363509262105 L-41.77888058263508,7.814694018907288 L-41.83381452319816,7.929443877493473 L-41.89088861567595,8.043481882300728 L-41.95005111064697,8.156704634387104 L-42.0112483651227,8.269009474005182 L-42.074424891185984,8.380294573684267 L-42.139523406302274,8.49045903055798 L-42.20648488525803,8.599402957853481 L-42.27524861367923,8.707027575459414 L-42.34575224308149,8.813235299490412 L-42.417931847401775,8.917929830767005 L-42.49172198096055,9.021016242130655 L-42.56705573780178,9.12240106451478 L-42.643864812356945,9.221992371693712 L-42.72207956137813,9.319699863632772 L-42.801629067083965,9.415434948363831 L-42.882441201461184,9.509110822312191 L-42.96444269166356,9.600642549001908 L-43.0475591864488,9.689947136068195 L-43.13171532359329,9.776943610507102 L-43.21683479822345,9.86155309209422 L-43.30284043200186,9.943698864905855 L-43.389654243105255,10.023306446877815 L-43.47719751693117,10.100303657338749 L-43.56539087746893,10.174620682456784 L-43.654154359270315,10.246190138540147 L-43.74340747995477,10.31494713313437 L-43.83306931318322,10.38082932386066 L-43.92305856203448,10.443776974942105 L-44.013293632717655,10.503733011366469 L-44.10369270855372,10.560643070636441 L-44.19417382415921,10.614455552060429 " />
			<path d="M5.6568542494923815,7.348469228349534 L5.6568542494923815,-33.47635981803677 " />
			<path d="M-5.6568542494923815,-16.125807473322595 L-5.6568542494923815,-33.47635981803677 " />
			<path d="M-5.6568542494923815,7.348469228349534 L-5.6568542494923815,-10.002083116364648 " />

       </g>
    </g>
    
</svg>
