999
FreeCAD v1.0 39285 (Git)
  0
SECTION
  2
HEADER
  9
$ACADVER
  1
AC1014
  9
$ACADMAINTVER
 70
     9
  9
$DWGCODEPAGE
  3
ANSI_1252
  9
$TEXTSTYLE
  7
STANDARD
  9
$DIMSTYLE
  2
STANDARD
  9
$DIMTXSTY
  7
STANDARD
  9
$CMLSTYLE
  2
STANDARD
  9
$LUNITS
 70
2
  9
$INSUNITS
 70
4
  9
$PEXTMAX
 10
50
 20
50
 30
50
  9
$PEXTMIN
 10
0
 20
0
 30
0
  9
$HANDSEED
  5
FFFF
  0
ENDSEC
  0
SECTION
  2
CLASSES
  0
CLASS
  1
ACDBDICTIONARYWDFLT
  2
AcDbDictionaryWithDefault
  3
ObjectDBX Classes
 90
        0
280
     0
281
     0
  0
CLASS
  1
XRECORD
  2
AcDbXrecord
  3
ObjectDBX Classes
 90
        0
280
     0
281
     0
  0
CLASS
  1
LWPOLYLINE
  2
AcDbPolyline
  3
ObjectDBX Classes
 90
        0
280
     0
281
     1
  0
ENDSEC
  0
SECTION
  2
TABLES
  0
TABLE
  2
VPORT
  5
20
330
0
100
AcDbSymbolTable
 70
     1
  0
VPORT
  5
21
330
20
100
AcDbSymbolTableRecord
100
AcDbViewportTableRecord
  2
*ACTIVE
 70
     0
  0
ENDTAB
  0
TABLE
  2
LTYPE
  5
22
330
0
100
AcDbSymbolTable
 70
     1
  0
LTYPE
  5
23
330
21
100
AcDbSymbolTableRecord
100
AcDbLinetypeTableRecord
  2
BYBLOCK
 70
     0
  3

 72
    65
 73
     0
 40
0.0
  0
LTYPE
  5
24
330
21
100
AcDbSymbolTableRecord
100
AcDbLinetypeTableRecord
  2
BYLAYER
 70
     0
  3

 72
    65
 73
     0
 40
0.0
  0
LTYPE
  5
25
330
21
100
AcDbSymbolTableRecord
100
AcDbLinetypeTableRecord
  2
CONTINUOUS
 70
     0
  3
Solid line
 72
    65
 73
     0
 40
0.0
  0
ENDTAB
  0
TABLE
  2
LAYER
  5
A4A
330
0
100
AcDbSymbolTable
 70
5
  0
LAYER
  5
A4B
330
A4A
100
AcDbSymbolTableRecord
100
AcDbLayerTableRecord
  2
0
 70
   0
 62
   7
  6
CONTINUOUS
  0
LAYER
  5
A4C
330
A4A
100
AcDbSymbolTableRecord
100
AcDbLayerTableRecord
  2
Front
 70
    0
 62
    7
  6
CONTINUOUS
  0
LAYER
  5
A4D
330
A4A
100
AcDbSymbolTableRecord
100
AcDbLayerTableRecord
  2
Right
 70
    0
 62
    7
  6
CONTINUOUS
  0
LAYER
  5
A4E
330
A4A
100
AcDbSymbolTableRecord
100
AcDbLayerTableRecord
  2
Top
 70
    0
 62
    7
  6
CONTINUOUS
  0
LAYER
  5
A4F
330
A4A
100
AcDbSymbolTableRecord
100
AcDbLayerTableRecord
  2
Iso
 70
    0
 62
    7
  6
CONTINUOUS
  0
ENDTAB
  0
TABLE
  2
STYLE
  5
70
330
0
100
AcDbSymbolTable
 70
     2
  0
STYLE
  5
71
330
70
100
AcDbSymbolTableRecord
100
AcDbTextStyleTableRecord
  2
STANDARD
 70
     0
 40
0.0
 41
1.0
 50
0.0
 71
     0
 42
2.5
  3
arial.ttf
  4

  0
STYLE
  5
72
330
70
100
AcDbSymbolTableRecord
100
AcDbTextStyleTableRecord
  2
ANNOTATIVE
 70
     0
 40
0.0
 41
1.0
 50
0.0
 71
     0
 42
2.5
  3
arial.ttf
  4

  0
ENDTAB
  0
TABLE
  2
VIEW
  5
73
330
0
100
AcDbSymbolTable
 70
     0
  0
ENDTAB
  0
TABLE
  2
UCS
  5
74
330
0
100
AcDbSymbolTable
 70
     0
  0
ENDTAB
  0
TABLE
  2
APPID
  5
75
330
0
100
AcDbSymbolTable
 70
     2
  0
APPID
  5
76
330
75
100
AcDbSymbolTableRecord
100
AcDbRegAppTableRecord
  2
ACAD
 70
     0
  0
APPID
  5
77
330
75
100
AcDbSymbolTableRecord
100
AcDbRegAppTableRecord
  2
ACADANNOTATIVE
 70
     0
  0
ENDTAB
  0
TABLE
  2
DIMSTYLE
  5
78
330
0
100
AcDbSymbolTable
 70
     2
  0
DIMSTYLE
105
79
330
78
100
AcDbSymbolTableRecord
100
AcDbDimStyleTableRecord
  2
STANDARD
 70
     0
  3

  4

  5

  6

  7

 40
0.0
 41
2.5
 42
0.625
 43
3.75
 44
1.25
 45
0.0
 46
0.0
 47
0.0
 48
0.0
140
2.5
141
2.5
142
0.0
143
0.03937007874016
144
1.0
145
0.0
146
1.0
147
0.625
 71
     0
 72
     0
 73
     0
 74
     0
 75
     0
 76
     0
 77
     1
 78
     8
170
     0
171
     3
172
     1
173
     0
174
     0
175
     0
176
     0
177
     0
178
     0
270
     2
271
     2
272
     2
273
     2
274
     3
340
71
275
     0
280
     0
281
     0
282
     0
283
     0
284
     8
285
     0
286
     0
287
     3
288
     0
  0
ENDTAB
  0
TABLE
  2
BLOCK_RECORD
  5
A01
330
0
100
AcDbSymbolTable
  70
5
  0
BLOCK_RECORD
  5
A02
330
A01
100
AcDbSymbolTableRecord
100
AcDbBlockTableRecord
  2
*MODEL_SPACE
  0
BLOCK_RECORD
  5
A03
330
A01
100
AcDbSymbolTableRecord
100
AcDbBlockTableRecord
  2
*PAPER_SPACE
  0
ENDTAB
  0
ENDSEC
  0
SECTION
  2
BLOCKS
  0
BLOCK
  5
A04
330
A02
100
AcDbEntity
  8
0
100
AcDbBlockBegin
  2
*MODEL_SPACE
 70
   0
 10
0
 20
0
 30
0
  3
*MODEL_SPACE
  1
 
  0
ENDBLK
  5
A05
330
A02
100
AcDbEntity
  8
0
100
AcDbBlockEnd
  0
BLOCK
  5
A06
330
A03
100
AcDbEntity
 67
1
  8
0
100
AcDbBlockBegin
  2
*PAPER_SPACE
 70
   0
 10
0
 20
0
 30
0
  3
*PAPER_SPACE
  1
 
  0
ENDBLK
  5
A07
330
A03
100
AcDbEntity
 67
    1
  8
0
100
AcDbBlockEnd
  0
ENDSEC
  0
SECTION
  2
ENTITIES
  0
LINE
  5
A08
330
A02
100
AcDbEntity
  8
Front
100
AcDbLine
 10
109.000000000
 20
136.000000000
 30
0.000000000
 11
57.000000000
 21
136.000000000
 31
0.000000000
  0
SPLINE
  5
A09
330
A02
100
AcDbEntity
  8
Front
100
AcDbSpline
210
0
220
0
230
1
 70
8
 71
2
 72
6
 73
3
 74
0
 40
0.880870746
 40
0.880870746
 40
0.880870746
 40
1.000000000
 40
1.000000000
 40
1.000000000
 10
53.569496582
 20
136.772853524
 30
0.000000000
 10
53.346199864
 20
136.878790650
 30
0.000000000
 10
53.127016654
 20
137.000000000
 30
0.000000000
  0
SPLINE
  5
A0A
330
A02
100
AcDbEntity
  8
Front
100
AcDbSpline
210
0
220
0
230
1
 70
8
 71
3
 72
11
 73
7
 74
0
 40
0.000000000
 40
0.000000000
 40
0.000000000
 40
0.000000000
 40
0.091169057
 40
0.091169057
 40
0.091169057
 40
0.134474819
 40
0.134474819
 40
0.134474819
 40
0.134474819
 10
53.127016654
 20
137.000000000
 30
0.000000000
 10
52.597571614
 20
137.292642673
 30
0.000000000
 10
52.085096269
 20
137.655945363
 30
0.000000000
 10
51.617591662
 20
138.081412290
 30
0.000000000
 10
51.394653643
 20
138.284360082
 30
0.000000000
 10
51.185278949
 20
138.497377327
 30
0.000000000
 10
50.989467578
 20
138.720464025
 30
0.000000000
  0
SPLINE
  5
A0B
330
A02
100
AcDbEntity
  8
Front
100
AcDbSpline
210
0
220
0
230
1
 70
8
 71
1
 72
4
 73
2
 74
0
 40
0.149480879
 40
0.149480879
 40
0.150829258
 40
0.150829258
 10
50.793004232
 20
138.952901478
 30
0.000000000
 10
50.775987861
 20
138.973900834
 30
0.000000000
  0
SPLINE
  5
A0C
330
A02
100
AcDbEntity
  8
Front
100
AcDbSpline
210
0
220
0
230
1
 70
8
 71
2
 72
6
 73
3
 74
0
 40
0.177141436
 40
0.177141436
 40
0.177141436
 40
0.225943336
 40
0.225943336
 40
0.225943336
 10
50.466925451
 20
139.382756553
 30
0.000000000
 10
50.201182625
 20
139.762882650
 30
0.000000000
 10
50.019114649
 20
140.092668436
 30
0.000000000
  0
SPLINE
  5
A0D
330
A02
100
AcDbEntity
  8
Front
100
AcDbSpline
210
0
220
0
230
1
 70
8
 71
3
 72
11
 73
7
 74
0
 40
0.230382000
 40
0.230382000
 40
0.230382000
 40
0.230382000
 40
0.306635282
 40
0.306635282
 40
0.306635282
 40
0.394462730
 40
0.394462730
 40
0.394462730
 40
0.394462730
 10
49.986599264
 20
140.151336543
 30
0.000000000
 10
49.804179654
 20
140.484419362
 30
0.000000000
 10
49.687278110
 20
140.750603332
 30
0.000000000
 10
49.611019271
 20
140.933574755
 30
0.000000000
 10
49.526562807
 20
141.144768914
 30
0.000000000
 10
49.485393183
 20
141.250243995
 30
0.000000000
 10
49.487510399
 20
141.250000000
 30
0.000000000
  0
ARC
  5
A0E
330
A02
100
AcDbEntity
  8
Front
100
AcDbCircle
 10
57.000000000
 20
144.000000000
 30
0.000000000
 40
8.000000000
100
AcDbArc
 50
180.000000000
 51
-90.000000000
  0
LINE
  5
A0F
330
A02
100
AcDbEntity
  8
Front
100
AcDbLine
 10
109.000000000
 20
122.000000000
 30
0.000000000
 11
109.000000000
 21
136.000000000
 31
0.000000000
  0
LINE
  5
A10
330
A02
100
AcDbEntity
  8
Front
100
AcDbLine
 10
49.000000000
 20
144.000000000
 30
0.000000000
 11
49.000000000
 21
202.000000000
 31
0.000000000
  0
LINE
  5
A11
330
A02
100
AcDbEntity
  8
Front
100
AcDbLine
 10
49.000000000
 20
202.000000000
 30
0.000000000
 11
35.000000000
 21
202.000000000
 31
0.000000000
  0
LINE
  5
A12
330
A02
100
AcDbEntity
  8
Front
100
AcDbLine
 10
35.000000000
 20
202.000000000
 30
0.000000000
 11
35.000000000
 21
122.000000000
 31
0.000000000
  0
LINE
  5
A13
330
A02
100
AcDbEntity
  8
Front
100
AcDbLine
 10
35.000000000
 20
122.000000000
 30
0.000000000
 11
109.000000000
 21
122.000000000
 31
0.000000000
  0
LINE
  5
A14
330
A02
100
AcDbEntity
  8
Right
100
AcDbLine
 10
179.000000000
 20
136.000000000
 30
0.000000000
 11
129.000000000
 21
136.000000000
 31
0.000000000
  0
SPLINE
  5
A15
330
A02
100
AcDbEntity
  8
Right
100
AcDbSpline
210
0
220
0
230
1
 70
8
 71
1
 72
17
 73
15
 74
0
 40
0.000000000
 40
0.000000000
 40
0.112199738
 40
0.224399475
 40
0.336599213
 40
0.448798951
 40
0.560998688
 40
0.673198426
 40
0.785398163
 40
0.897597901
 40
1.009797639
 40
1.121997376
 40
1.234197114
 40
1.346396852
 40
1.458596589
 40
1.570796327
 40
1.570796327
 10
179.000000000
 20
136.000000000
 30
0.000000000
 10
179.000000000
 20
136.050302321
 30
0.000000000
 10
179.000000000
 20
136.200576703
 30
0.000000000
 10
179.000000000
 20
136.448933358
 30
0.000000000
 10
179.000000000
 20
136.792249057
 30
0.000000000
 10
179.000000000
 20
137.226206406
 30
0.000000000
 10
179.000000000
 20
137.745348140
 30
0.000000000
 10
179.000000000
 20
138.343145751
 30
0.000000000
 10
179.000000000
 20
139.012081585
 30
0.000000000
 10
179.000000000
 20
139.743743388
 30
0.000000000
 10
179.000000000
 20
140.528930087
 30
0.000000000
 10
179.000000000
 20
141.357767504
 30
0.000000000
 10
179.000000000
 20
142.219832528
 30
0.000000000
 10
179.000000000
 20
143.104284191
 30
0.000000000
 10
179.000000000
 20
144.000000000
 30
0.000000000
  0
LINE
  5
A16
330
A02
100
AcDbEntity
  8
Right
100
AcDbLine
 10
179.000000000
 20
144.000000000
 30
0.000000000
 11
179.000000000
 21
202.000000000
 31
0.000000000
  0
LINE
  5
A17
330
A02
100
AcDbEntity
  8
Right
100
AcDbLine
 10
179.000000000
 20
122.000000000
 30
0.000000000
 11
179.000000000
 21
136.000000000
 31
0.000000000
  0
SPLINE
  5
A18
330
A02
100
AcDbEntity
  8
Right
100
AcDbSpline
210
0
220
0
230
1
 70
8
 71
3
 72
11
 73
7
 74
0
 40
0.000000000
 40
0.000000000
 40
0.000000000
 40
0.000000000
 40
0.403459582
 40
0.403459582
 40
0.403459582
 40
1.000000000
 40
1.000000000
 40
1.000000000
 40
1.000000000
 10
158.130677910
 20
136.000000000
 30
0.000000000
 10
158.131510002
 20
135.999902814
 30
0.000000000
 10
158.143372382
 20
136.053407718
 30
0.000000000
 10
158.166265048
 20
136.160514713
 30
0.000000000
 10
158.197054658
 20
136.319241973
 30
0.000000000
 10
158.248734085
 20
136.595355874
 30
0.000000000
 10
158.250000000
 20
137.000000000
 30
0.000000000
  0
SPLINE
  5
A19
330
A02
100
AcDbEntity
  8
Right
100
AcDbSpline
210
0
220
0
230
1
 70
8
 71
3
 72
41
 73
37
 74
0
 40
0.000000000
 40
0.000000000
 40
0.000000000
 40
0.000000000
 40
0.124851419
 40
0.124851419
 40
0.124851419
 40
0.186239673
 40
0.186239673
 40
0.186239673
 40
0.239444235
 40
0.239444235
 40
0.239444235
 40
0.306635282
 40
0.306635282
 40
0.306635282
 40
0.394462730
 40
0.394462730
 40
0.394462730
 40
0.482526474
 40
0.482526474
 40
0.482526474
 40
0.549234892
 40
0.549234892
 40
0.549234892
 40
0.603625987
 40
0.603625987
 40
0.603625987
 40
0.709052478
 40
0.709052478
 40
0.709052478
 40
0.812386185
 40
0.812386185
 40
0.812386185
 40
0.915719891
 40
0.915719891
 40
0.915719891
 40
1.000000000
 40
1.000000000
 40
1.000000000
 40
1.000000000
 10
158.250000000
 20
137.000000000
 30
0.000000000
 10
158.248614277
 20
137.398726918
 30
0.000000000
 10
158.198664563
 20
137.938638067
 30
0.000000000
 10
157.947972028
 20
138.573536422
 30
0.000000000
 10
157.824793773
 20
138.883441227
 30
0.000000000
 10
157.650346714
 20
139.211162412
 30
0.000000000
 10
157.420868498
 20
139.521935510
 30
0.000000000
 10
157.222557131
 20
139.791368166
 30
0.000000000
 10
156.984188271
 20
140.046122537
 30
0.000000000
 10
156.718161826
 20
140.267123549
 30
0.000000000
 10
156.382348365
 20
140.546798287
 30
0.000000000
 10
156.004431538
 20
140.772161548
 30
0.000000000
 10
155.609189128
 20
140.933574755
 30
0.000000000
 10
155.092158133
 20
141.145030327
 30
0.000000000
 10
154.545482255
 20
141.249982582
 30
0.000000000
 10
154.000000000
 20
141.250000000
 30
0.000000000
 10
153.453051333
 20
141.249982949
 30
0.000000000
 10
152.904892541
 20
141.144463360
 30
0.000000000
 10
152.386636873
 20
140.931864624
 30
0.000000000
 10
151.994356175
 20
140.771168804
 30
0.000000000
 10
151.619236422
 20
140.547468494
 30
0.000000000
 10
151.285525262
 20
140.270187594
 30
0.000000000
 10
151.013291319
 20
140.044572763
 30
0.000000000
 10
150.769910700
 20
139.783539652
 30
0.000000000
 10
150.568608983
 20
139.507599588
 30
0.000000000
 10
150.174517008
 20
138.969996196
 30
0.000000000
 10
149.955443736
 20
138.396480365
 30
0.000000000
 10
149.851904000
 20
137.925094362
 30
0.000000000
 10
149.749060141
 20
137.459248428
 30
0.000000000
 10
149.741474311
 20
137.079513603
 30
0.000000000
 10
149.755360696
 20
136.786605591
 30
0.000000000
 10
149.770639940
 20
136.493416075
 30
0.000000000
 10
149.808990945
 20
136.285331550
 30
0.000000000
 10
149.834482518
 20
136.156813124
 30
0.000000000
 10
149.856914505
 20
136.052178517
 30
0.000000000
 10
149.868527695
 20
135.999907476
 30
0.000000000
 10
149.869322090
 20
136.000000000
 30
0.000000000
  0
SPLINE
  5
A1A
330
A02
100
AcDbEntity
  8
Right
100
AcDbSpline
210
0
220
0
230
1
 70
8
 71
1
 72
17
 73
15
 74
0
 40
0.000000000
 40
0.000000000
 40
0.112199738
 40
0.224399475
 40
0.336599213
 40
0.448798951
 40
0.560998688
 40
0.673198426
 40
0.785398163
 40
0.897597901
 40
1.009797639
 40
1.121997376
 40
1.234197114
 40
1.346396852
 40
1.458596589
 40
1.570796327
 40
1.570796327
 10
129.000000000
 20
136.000000000
 30
0.000000000
 10
129.000000000
 20
136.050302321
 30
0.000000000
 10
129.000000000
 20
136.200576703
 30
0.000000000
 10
129.000000000
 20
136.448933358
 30
0.000000000
 10
129.000000000
 20
136.792249057
 30
0.000000000
 10
129.000000000
 20
137.226206406
 30
0.000000000
 10
129.000000000
 20
137.745348140
 30
0.000000000
 10
129.000000000
 20
138.343145751
 30
0.000000000
 10
129.000000000
 20
139.012081585
 30
0.000000000
 10
129.000000000
 20
139.743743388
 30
0.000000000
 10
129.000000000
 20
140.528930087
 30
0.000000000
 10
129.000000000
 20
141.357767504
 30
0.000000000
 10
129.000000000
 20
142.219832528
 30
0.000000000
 10
129.000000000
 20
143.104284191
 30
0.000000000
 10
129.000000000
 20
144.000000000
 30
0.000000000
  0
LINE
  5
A1B
330
A02
100
AcDbEntity
  8
Right
100
AcDbLine
 10
179.000000000
 20
122.000000000
 30
0.000000000
 11
129.000000000
 21
122.000000000
 31
0.000000000
  0
LINE
  5
A1C
330
A02
100
AcDbEntity
  8
Right
100
AcDbLine
 10
129.000000000
 20
122.000000000
 30
0.000000000
 11
129.000000000
 21
136.000000000
 31
0.000000000
  0
LINE
  5
A1D
330
A02
100
AcDbEntity
  8
Right
100
AcDbLine
 10
129.000000000
 20
144.000000000
 30
0.000000000
 11
129.000000000
 21
202.000000000
 31
0.000000000
  0
LINE
  5
A1E
330
A02
100
AcDbEntity
  8
Right
100
AcDbLine
 10
179.000000000
 20
202.000000000
 30
0.000000000
 11
129.000000000
 21
202.000000000
 31
0.000000000
  0
CIRCLE
  5
A1F
330
A02
100
AcDbEntity
  8
Right
100
AcDbCircle
 10
154.000000000
 20
187.000000000
 30
0.000000000
 40
4.250000000
  0
LINE
  5
A20
330
A02
100
AcDbEntity
  8
Right
100
AcDbLine
 10
179.000000000
 20
144.000000000
 30
0.000000000
 11
129.000000000
 21
144.000000000
 31
0.000000000
  0
LINE
  5
A21
330
A02
100
AcDbEntity
  8
Top
100
AcDbLine
 10
109.000000000
 20
272.000000000
 30
0.000000000
 11
57.000000000
 21
272.000000000
 31
0.000000000
  0
LINE
  5
A22
330
A02
100
AcDbEntity
  8
Top
100
AcDbLine
 10
109.000000000
 20
272.000000000
 30
0.000000000
 11
109.000000000
 21
222.000000000
 31
0.000000000
  0
LINE
  5
A23
330
A02
100
AcDbEntity
  8
Top
100
AcDbLine
 10
109.000000000
 20
222.000000000
 30
0.000000000
 11
57.000000000
 21
222.000000000
 31
0.000000000
  0
LINE
  5
A24
330
A02
100
AcDbEntity
  8
Top
100
AcDbLine
 10
57.000000000
 20
251.130677910
 30
0.000000000
 11
57.000000000
 21
242.869322090
 31
0.000000000
  0
SPLINE
  5
A25
330
A02
100
AcDbEntity
  8
Top
100
AcDbSpline
210
0
220
0
230
1
 70
8
 71
1
 72
17
 73
15
 74
0
 40
0.000000000
 40
0.000000000
 40
0.112199738
 40
0.224399475
 40
0.336599213
 40
0.448798951
 40
0.560998688
 40
0.673198426
 40
0.785398163
 40
0.897597901
 40
1.009797639
 40
1.121997376
 40
1.234197114
 40
1.346396852
 40
1.458596589
 40
1.570796327
 40
1.570796327
 10
57.000000000
 20
272.000000000
 30
0.000000000
 10
56.104284191
 20
272.000000000
 30
0.000000000
 10
55.219832528
 20
272.000000000
 30
0.000000000
 10
54.357767504
 20
272.000000000
 30
0.000000000
 10
53.528930087
 20
272.000000000
 30
0.000000000
 10
52.743743388
 20
272.000000000
 30
0.000000000
 10
52.012081585
 20
272.000000000
 30
0.000000000
 10
51.343145751
 20
272.000000000
 30
0.000000000
 10
50.745348140
 20
272.000000000
 30
0.000000000
 10
50.226206406
 20
272.000000000
 30
0.000000000
 10
49.792249057
 20
272.000000000
 30
0.000000000
 10
49.448933358
 20
272.000000000
 30
0.000000000
 10
49.200576703
 20
272.000000000
 30
0.000000000
 10
49.050302321
 20
272.000000000
 30
0.000000000
 10
49.000000000
 20
272.000000000
 30
0.000000000
  0
LINE
  5
A26
330
A02
100
AcDbEntity
  8
Top
100
AcDbLine
 10
49.000000000
 20
272.000000000
 30
0.000000000
 11
35.000000000
 21
272.000000000
 31
0.000000000
  0
SPLINE
  5
A27
330
A02
100
AcDbEntity
  8
Top
100
AcDbSpline
210
0
220
0
230
1
 70
8
 71
3
 72
11
 73
7
 74
0
 40
0.000000000
 40
0.000000000
 40
0.000000000
 40
0.000000000
 40
0.403459582
 40
0.403459582
 40
0.403459582
 40
1.000000000
 40
1.000000000
 40
1.000000000
 40
1.000000000
 10
57.000000000
 20
251.130677910
 30
0.000000000
 10
56.465381355
 20
251.131510002
 30
0.000000000
 10
55.933877156
 20
251.143372382
 30
0.000000000
 10
55.405487401
 20
251.166265048
 30
0.000000000
 10
54.626152131
 20
251.197054658
 30
0.000000000
 10
53.858932664
 20
251.248734085
 30
0.000000000
 10
53.127016654
 20
251.250000000
 30
0.000000000
  0
SPLINE
  5
A28
330
A02
100
AcDbEntity
  8
Top
100
AcDbSpline
210
0
220
0
230
1
 70
8
 71
3
 72
29
 73
25
 74
0
 40
0.000000000
 40
0.000000000
 40
0.000000000
 40
0.000000000
 40
0.091169057
 40
0.091169057
 40
0.091169057
 40
0.186239673
 40
0.186239673
 40
0.186239673
 40
0.306635282
 40
0.306635282
 40
0.306635282
 40
0.394462730
 40
0.394462730
 40
0.394462730
 40
0.482526474
 40
0.482526474
 40
0.482526474
 40
0.603625987
 40
0.603625987
 40
0.603625987
 40
0.709052478
 40
0.709052478
 40
0.709052478
 40
0.788880251
 40
0.788880251
 40
0.788880251
 40
0.788880251
 10
53.127016654
 20
251.250000000
 30
0.000000000
 10
52.597571614
 20
251.249515078
 30
0.000000000
 10
52.085096269
 20
251.221438296
 30
0.000000000
 10
51.617591662
 20
251.110115261
 30
0.000000000
 10
51.130100307
 20
250.995435282
 30
0.000000000
 10
50.694774639
 20
250.777924105
 30
0.000000000
 10
50.370751292
 20
250.420868498
 30
0.000000000
 10
49.956295240
 20
249.972223051
 30
0.000000000
 10
49.730086771
 20
249.316661615
 30
0.000000000
 10
49.611019271
 20
248.609189128
 30
0.000000000
 10
49.523865697
 20
248.092158133
 30
0.000000000
 10
49.488090293
 20
247.545482255
 30
0.000000000
 10
49.487510399
 20
247.000000000
 30
0.000000000
 10
49.488096539
 20
246.453051333
 30
0.000000000
 10
49.524050354
 20
245.904892541
 30
0.000000000
 10
49.611729207
 20
245.386636873
 30
0.000000000
 10
49.731825991
 20
244.675251292
 30
0.000000000
 10
49.960784420
 20
244.016657045
 30
0.000000000
 10
50.380457830
 20
243.568608983
 30
0.000000000
 10
50.742359208
 20
243.174517008
 30
0.000000000
 10
51.240463046
 20
242.955443736
 30
0.000000000
 10
51.794664133
 20
242.851904000
 30
0.000000000
 10
52.214413122
 20
242.772081006
 30
0.000000000
 10
52.663230911
 20
242.750331946
 30
0.000000000
 10
53.127016637
 20
242.749999981
 30
0.000000000
  0
SPLINE
  5
A29
330
A02
100
AcDbEntity
  8
Top
100
AcDbSpline
210
0
220
0
230
1
 70
8
 71
3
 72
11
 73
7
 74
0
 40
0.788880251
 40
0.788880251
 40
0.788880251
 40
0.788880251
 40
0.915719891
 40
0.915719891
 40
0.915719891
 40
1.000000000
 40
1.000000000
 40
1.000000000
 40
1.000000000
 10
53.127016637
 20
242.749999981
 30
0.000000000
 10
53.864539439
 20
242.751293372
 30
0.000000000
 10
54.639377827
 20
242.803766228
 30
0.000000000
 10
55.423795818
 20
242.834482518
 30
0.000000000
 10
55.946188297
 20
242.856914505
 30
0.000000000
 10
56.471589691
 20
242.868527695
 30
0.000000000
 10
57.000000000
 20
242.869322090
 30
0.000000000
  0
SPLINE
  5
A2A
330
A02
100
AcDbEntity
  8
Top
100
AcDbSpline
210
0
220
0
230
1
 70
8
 71
1
 72
17
 73
15
 74
0
 40
0.000000000
 40
0.000000000
 40
0.112199738
 40
0.224399475
 40
0.336599213
 40
0.448798951
 40
0.560998688
 40
0.673198426
 40
0.785398163
 40
0.897597901
 40
1.009797639
 40
1.121997376
 40
1.234197114
 40
1.346396852
 40
1.458596589
 40
1.570796327
 40
1.570796327
 10
57.000000000
 20
222.000000000
 30
0.000000000
 10
56.104284191
 20
222.000000000
 30
0.000000000
 10
55.219832528
 20
222.000000000
 30
0.000000000
 10
54.357767504
 20
222.000000000
 30
0.000000000
 10
53.528930087
 20
222.000000000
 30
0.000000000
 10
52.743743388
 20
222.000000000
 30
0.000000000
 10
52.012081585
 20
222.000000000
 30
0.000000000
 10
51.343145751
 20
222.000000000
 30
0.000000000
 10
50.745348140
 20
222.000000000
 30
0.000000000
 10
50.226206406
 20
222.000000000
 30
0.000000000
 10
49.792249057
 20
222.000000000
 30
0.000000000
 10
49.448933358
 20
222.000000000
 30
0.000000000
 10
49.200576703
 20
222.000000000
 30
0.000000000
 10
49.050302321
 20
222.000000000
 30
0.000000000
 10
49.000000000
 20
222.000000000
 30
0.000000000
  0
LINE
  5
A2B
330
A02
100
AcDbEntity
  8
Top
100
AcDbLine
 10
49.000000000
 20
222.000000000
 30
0.000000000
 11
35.000000000
 21
222.000000000
 31
0.000000000
  0
LINE
  5
A2C
330
A02
100
AcDbEntity
  8
Top
100
AcDbLine
 10
49.000000000
 20
272.000000000
 30
0.000000000
 11
49.000000000
 21
222.000000000
 31
0.000000000
  0
LINE
  5
A2D
330
A02
100
AcDbEntity
  8
Top
100
AcDbLine
 10
35.000000000
 20
272.000000000
 30
0.000000000
 11
35.000000000
 21
222.000000000
 31
0.000000000
  0
LINE
  5
A2E
330
A02
100
AcDbEntity
  8
Top
100
AcDbLine
 10
57.000000000
 20
242.869322090
 30
0.000000000
 11
57.000000000
 21
222.000000000
 31
0.000000000
  0
LINE
  5
A2F
330
A02
100
AcDbEntity
  8
Top
100
AcDbLine
 10
57.000000000
 20
272.000000000
 30
0.000000000
 11
57.000000000
 21
251.130677910
 31
0.000000000
  0
LINE
  5
A30
330
A02
100
AcDbEntity
  8
Iso
100
AcDbLine
 10
290.840620434
 20
135.872109410
 30
0.000000000
 11
254.071067812
 21
157.101020514
 31
0.000000000
  0
LINE
  5
A31
330
A02
100
AcDbEntity
  8
Iso
100
AcDbLine
 10
290.840620434
 20
135.872109410
 30
0.000000000
 11
255.485281374
 21
115.459694887
 31
0.000000000
  0
LINE
  5
A32
330
A02
100
AcDbEntity
  8
Iso
100
AcDbLine
 10
255.485281374
 20
115.459694887
 30
0.000000000
 11
218.715728753
 21
136.688605991
 31
0.000000000
  0
LINE
  5
A33
330
A02
100
AcDbEntity
  8
Iso
100
AcDbLine
 10
239.314228644
 20
148.581155448
 30
0.000000000
 11
233.472567921
 21
145.208471057
 31
0.000000000
  0
ELLIPSE
  5
A34
330
A02
100
AcDbEntity
  8
Iso
100
AcDbEllipse
 10
254.071067812
 20
163.632993162
 30
0.000000000
 11
4.000000000
 21
-6.928203230
 31
0.000000000
 40
0.577350269
 41
-2.356194490
 42
-0.785398163
  0
LINE
  5
A35
330
A02
100
AcDbEntity
  8
Iso
100
AcDbLine
 10
248.414213562
 20
166.898979486
 30
0.000000000
 11
248.414213562
 21
214.255781179
 31
0.000000000
  0
LINE
  5
A36
330
A02
100
AcDbEntity
  8
Iso
100
AcDbLine
 10
248.414213562
 20
214.255781179
 30
0.000000000
 11
238.514718626
 21
219.971257246
 31
0.000000000
  0
LINE
  5
A37
330
A02
100
AcDbEntity
  8
Iso
100
AcDbLine
 10
290.840620434
 20
124.441157277
 30
0.000000000
 11
290.840620434
 21
135.872109410
 31
0.000000000
  0
SPLINE
  5
A38
330
A02
100
AcDbEntity
  8
Iso
100
AcDbSpline
210
0
220
0
230
1
 70
8
 71
3
 72
11
 73
7
 74
0
 40
0.000000000
 40
0.000000000
 40
0.000000000
 40
0.000000000
 40
0.403459582
 40
0.403459582
 40
0.403459582
 40
1.000000000
 40
1.000000000
 40
1.000000000
 40
1.000000000
 10
239.314228644
 20
148.581155448
 30
0.000000000
 10
238.936784552
 20
148.799672944
 30
0.000000000
 10
238.569342298
 20
149.065187992
 30
0.000000000
 10
238.211901879
 20
149.377700593
 30
0.000000000
 10
237.682600166
 20
149.838032955
 30
0.000000000
 10
237.176636952
 20
150.397793085
 30
0.000000000
 10
236.659989315
 20
151.027503898
 30
0.000000000
  0
SPLINE
  5
A39
330
A02
100
AcDbEntity
  8
Iso
100
AcDbSpline
210
0
220
0
230
1
 70
8
 71
3
 72
11
 73
7
 74
0
 40
0.000000000
 40
0.000000000
 40
0.000000000
 40
0.000000000
 40
0.124851419
 40
0.124851419
 40
0.124851419
 40
0.219487619
 40
0.219487619
 40
0.219487619
 40
0.219487619
 10
236.659989315
 20
151.027503898
 30
0.000000000
 10
236.147143896
 20
151.648023067
 30
0.000000000
 10
235.618969778
 20
152.353016372
 30
0.000000000
 10
235.028505488
 20
153.007623826
 30
0.000000000
 10
234.582459261
 20
153.501628634
 30
0.000000000
 10
234.100709635
 20
153.944893312
 30
0.000000000
 10
233.617296176
 20
154.221570418
 30
0.000000000
  0
SPLINE
  5
A3A
330
A02
100
AcDbEntity
  8
Iso
100
AcDbSpline
210
0
220
0
230
1
 70
8
 71
3
 72
29
 73
25
 74
0
 40
0.219487619
 40
0.219487619
 40
0.219487619
 40
0.219487619
 40
0.394462730
 40
0.394462730
 40
0.394462730
 40
0.482526474
 40
0.482526474
 40
0.482526474
 40
0.549234892
 40
0.549234892
 40
0.549234892
 40
0.603625987
 40
0.603625987
 40
0.603625987
 40
0.709052478
 40
0.709052478
 40
0.709052478
 40
0.812386185
 40
0.812386185
 40
0.812386185
 40
0.915719891
 40
0.915719891
 40
0.915719891
 40
1.000000000
 40
1.000000000
 40
1.000000000
 40
1.000000000
 10
233.617296176
 20
154.221570418
 30
0.000000000
 10
232.721383574
 20
154.742545633
 30
0.000000000
 10
231.850275095
 20
154.691159376
 30
0.000000000
 10
231.081265942
 20
154.248381339
 30
0.000000000
 10
230.694929294
 20
154.024837268
 30
0.000000000
 10
230.332745682
 20
153.700217911
 30
0.000000000
 10
230.028281895
 20
153.279260038
 30
0.000000000
 10
229.798225984
 20
152.960579444
 30
0.000000000
 10
229.602347658
 20
152.584735315
 30
0.000000000
 10
229.469551773
 20
152.162532126
 30
0.000000000
 10
229.361087004
 20
151.818662469
 30
0.000000000
 10
229.296189268
 20
151.444279108
 30
0.000000000
 10
229.286315269
 20
151.060313581
 30
0.000000000
 10
229.263553079
 20
150.312729256
 30
0.000000000
 10
229.460857485
 20
149.551669211
 30
0.000000000
 10
229.779523182
 20
148.898262586
 30
0.000000000
 10
230.091149646
 20
148.254011691
 30
0.000000000
 10
230.503967533
 20
147.699425182
 30
0.000000000
 10
230.945871690
 20
147.216471494
 30
0.000000000
 10
231.389109472
 20
146.733655254
 30
0.000000000
 10
231.863398043
 20
146.321237781
 30
0.000000000
 10
232.333387958
 20
145.965767904
 30
0.000000000
 10
232.718637032
 20
145.676226090
 30
0.000000000
 10
233.098363686
 20
145.423793807
 30
0.000000000
 10
233.472567921
 20
145.208471057
 30
0.000000000
  0
ELLIPSE
  5
A3B
330
A02
100
AcDbEntity
  8
Iso
100
AcDbEllipse
 10
218.715728753
 20
143.220578639
 30
0.000000000
 11
4.000000000
 21
-6.928203230
 31
0.000000000
 40
0.577350269
 41
-2.356194490
 42
-0.785398163
  0
LINE
  5
A3C
330
A02
100
AcDbEntity
  8
Iso
100
AcDbLine
 10
290.840620434
 20
124.441157277
 30
0.000000000
 11
255.485281374
 21
104.028742754
 31
0.000000000
  0
LINE
  5
A3D
330
A02
100
AcDbEntity
  8
Iso
100
AcDbLine
 10
255.485281374
 20
104.028742754
 30
0.000000000
 11
255.485281374
 21
115.459694887
 31
0.000000000
  0
LINE
  5
A3E
330
A02
100
AcDbEntity
  8
Iso
100
AcDbLine
 10
213.058874503
 20
146.486564962
 30
0.000000000
 11
213.058874503
 21
193.843366656
 31
0.000000000
  0
LINE
  5
A3F
330
A02
100
AcDbEntity
  8
Iso
100
AcDbLine
 10
213.058874503
 20
193.843366656
 30
0.000000000
 11
203.159379566
 21
199.558842723
 31
0.000000000
  0
LINE
  5
A40
330
A02
100
AcDbEntity
  8
Iso
100
AcDbLine
 10
203.159379566
 20
199.558842723
 30
0.000000000
 11
203.159379566
 21
134.239116248
 31
0.000000000
  0
LINE
  5
A41
330
A02
100
AcDbEntity
  8
Iso
100
AcDbLine
 10
203.159379566
 20
134.239116248
 30
0.000000000
 11
255.485281374
 21
104.028742754
 31
0.000000000
  0
LINE
  5
A42
330
A02
100
AcDbEntity
  8
Iso
100
AcDbLine
 10
248.414213562
 20
214.255781179
 30
0.000000000
 11
213.058874503
 21
193.843366656
 31
0.000000000
  0
ELLIPSE
  5
A43
330
A02
100
AcDbEntity
  8
Iso
100
AcDbEllipse
 10
230.736544033
 20
191.802125204
 30
0.000000000
 11
2.125000000
 21
3.680607966
 31
0.000000000
 40
0.577350269
 41
-3.141592654
 42
-0.785398163
  0
ELLIPSE
  5
A44
330
A02
100
AcDbEntity
  8
Iso
100
AcDbEllipse
 10
230.736544033
 20
191.802125204
 30
0.000000000
 11
2.125000000
 21
3.680607966
 31
0.000000000
 40
0.577350269
 41
-0.000000000
 42
-3.141592654
  0
ELLIPSE
  5
A45
330
A02
100
AcDbEntity
  8
Iso
100
AcDbEllipse
 10
230.736544033
 20
191.802125204
 30
0.000000000
 11
2.125000000
 21
3.680607966
 31
0.000000000
 40
0.577350269
 41
-0.785398163
 42
-0.000000000
  0
LINE
  5
A46
330
A02
100
AcDbEntity
  8
Iso
100
AcDbLine
 10
238.514718626
 20
219.971257246
 30
0.000000000
 11
203.159379566
 21
199.558842723
 31
0.000000000
  0
LINE
  5
A47
330
A02
100
AcDbEntity
  8
Iso
100
AcDbLine
 10
233.472567921
 20
145.208471057
 30
0.000000000
 11
218.715728753
 21
136.688605991
 31
0.000000000
  0
LINE
  5
A48
330
A02
100
AcDbEntity
  8
Iso
100
AcDbLine
 10
254.071067812
 20
157.101020514
 30
0.000000000
 11
239.314228644
 21
148.581155448
 31
0.000000000
  0
LINE
  5
A49
330
A02
100
AcDbEntity
  8
Iso
100
AcDbLine
 10
248.414213562
 20
166.898979486
 30
0.000000000
 11
213.058874503
 21
146.486564962
 31
0.000000000
  0
ENDSEC
  0
SECTION
  2
OBJECTS
  0
DICTIONARY
  5
F000
330
0
100
AcDbDictionary
  3
ACAD_GROUP
350
F001
  0
DICTIONARY
  5
F001
330
F000
100
AcDbDictionary
  0
ENDSEC
  0
EOF