999
FreeCAD v1.0 39285 (Git)
  0
SECTION
  2
HEADER
  9
$ACADVER
  1
AC1014
  9
$ACADMAINTVER
 70
     9
  9
$DWGCODEPAGE
  3
ANSI_1252
  9
$TEXTSTYLE
  7
STANDARD
  9
$DIMSTYLE
  2
STANDARD
  9
$DIMTXSTY
  7
STANDARD
  9
$CMLSTYLE
  2
STANDARD
  9
$LUNITS
 70
2
  9
$INSUNITS
 70
4
  9
$PEXTMAX
 10
50
 20
50
 30
50
  9
$PEXTMIN
 10
0
 20
0
 30
0
  9
$HANDSEED
  5
FFFF
  0
ENDSEC
  0
SECTION
  2
CLASSES
  0
CLASS
  1
ACDBDICTIONARYWDFLT
  2
AcDbDictionaryWithDefault
  3
ObjectDBX Classes
 90
        0
280
     0
281
     0
  0
CLASS
  1
XRECORD
  2
AcDbXrecord
  3
ObjectDBX Classes
 90
        0
280
     0
281
     0
  0
CLASS
  1
LWPOLYLINE
  2
AcDbPolyline
  3
ObjectDBX Classes
 90
        0
280
     0
281
     1
  0
ENDSEC
  0
SECTION
  2
TABLES
  0
TABLE
  2
VPORT
  5
20
330
0
100
AcDbSymbolTable
 70
     1
  0
VPORT
  5
21
330
20
100
AcDbSymbolTableRecord
100
AcDbViewportTableRecord
  2
*ACTIVE
 70
     0
  0
ENDTAB
  0
TABLE
  2
LTYPE
  5
22
330
0
100
AcDbSymbolTable
 70
     1
  0
LTYPE
  5
23
330
21
100
AcDbSymbolTableRecord
100
AcDbLinetypeTableRecord
  2
BYBLOCK
 70
     0
  3

 72
    65
 73
     0
 40
0.0
  0
LTYPE
  5
24
330
21
100
AcDbSymbolTableRecord
100
AcDbLinetypeTableRecord
  2
BYLAYER
 70
     0
  3

 72
    65
 73
     0
 40
0.0
  0
LTYPE
  5
25
330
21
100
AcDbSymbolTableRecord
100
AcDbLinetypeTableRecord
  2
CONTINUOUS
 70
     0
  3
Solid line
 72
    65
 73
     0
 40
0.0
  0
ENDTAB
  0
TABLE
  2
LAYER
  5
A6A
330
0
100
AcDbSymbolTable
 70
9
  0
LAYER
  5
A6B
330
A6A
100
AcDbSymbolTableRecord
100
AcDbLayerTableRecord
  2
0
 70
   0
 62
   7
  6
CONTINUOUS
  0
LAYER
  5
A6C
330
A6A
100
AcDbSymbolTableRecord
100
AcDbLayerTableRecord
  2
FRONT
 70
    0
 62
    7
  6
CONTINUOUS
  0
LAYER
  5
A6D
330
A6A
100
AcDbSymbolTableRecord
100
AcDbLayerTableRecord
  2
RIGHT
 70
    0
 62
    7
  6
CONTINUOUS
  0
LAYER
  5
A6E
330
A6A
100
AcDbSymbolTableRecord
100
AcDbLayerTableRecord
  2
TOP
 70
    0
 62
    7
  6
CONTINUOUS
  0
LAYER
  5
A6F
330
A6A
100
AcDbSymbolTableRecord
100
AcDbLayerTableRecord
  2
ISOMETRIC
 70
    0
 62
    7
  6
CONTINUOUS
  0
LAYER
  5
A70
330
A6A
100
AcDbSymbolTableRecord
100
AcDbLayerTableRecord
  2
DimHeight
 70
    0
 62
    7
  6
CONTINUOUS
  0
LAYER
  5
A71
330
A6A
100
AcDbSymbolTableRecord
100
AcDbLayerTableRecord
  2
DimFillet
 70
    0
 62
    7
  6
CONTINUOUS
  0
LAYER
  5
A72
330
A6A
100
AcDbSymbolTableRecord
100
AcDbLayerTableRecord
  2
DimHoleDia
 70
    0
 62
    7
  6
CONTINUOUS
  0
LAYER
  5
A73
330
A6A
100
AcDbSymbolTableRecord
100
AcDbLayerTableRecord
  2
DimBracketWidth
 70
    0
 62
    7
  6
CONTINUOUS
  0
ENDTAB
  0
TABLE
  2
STYLE
  5
70
330
0
100
AcDbSymbolTable
 70
     2
  0
STYLE
  5
71
330
70
100
AcDbSymbolTableRecord
100
AcDbTextStyleTableRecord
  2
STANDARD
 70
     0
 40
0.0
 41
1.0
 50
0.0
 71
     0
 42
2.5
  3
arial.ttf
  4

  0
STYLE
  5
72
330
70
100
AcDbSymbolTableRecord
100
AcDbTextStyleTableRecord
  2
ANNOTATIVE
 70
     0
 40
0.0
 41
1.0
 50
0.0
 71
     0
 42
2.5
  3
arial.ttf
  4

  0
ENDTAB
  0
TABLE
  2
VIEW
  5
73
330
0
100
AcDbSymbolTable
 70
     0
  0
ENDTAB
  0
TABLE
  2
UCS
  5
74
330
0
100
AcDbSymbolTable
 70
     0
  0
ENDTAB
  0
TABLE
  2
APPID
  5
75
330
0
100
AcDbSymbolTable
 70
     2
  0
APPID
  5
76
330
75
100
AcDbSymbolTableRecord
100
AcDbRegAppTableRecord
  2
ACAD
 70
     0
  0
APPID
  5
77
330
75
100
AcDbSymbolTableRecord
100
AcDbRegAppTableRecord
  2
ACADANNOTATIVE
 70
     0
  0
ENDTAB
  0
TABLE
  2
DIMSTYLE
  5
78
330
0
100
AcDbSymbolTable
 70
     2
  0
DIMSTYLE
105
79
330
78
100
AcDbSymbolTableRecord
100
AcDbDimStyleTableRecord
  2
STANDARD
 70
     0
  3

  4

  5

  6

  7

 40
0.0
 41
2.5
 42
0.625
 43
3.75
 44
1.25
 45
0.0
 46
0.0
 47
0.0
 48
0.0
140
2.5
141
2.5
142
0.0
143
0.03937007874016
144
1.0
145
0.0
146
1.0
147
0.625
 71
     0
 72
     0
 73
     0
 74
     0
 75
     0
 76
     0
 77
     1
 78
     8
170
     0
171
     3
172
     1
173
     0
174
     0
175
     0
176
     0
177
     0
178
     0
270
     2
271
     2
272
     2
273
     2
274
     3
340
71
275
     0
280
     0
281
     0
282
     0
283
     0
284
     8
285
     0
286
     0
287
     3
288
     0
  0
ENDTAB
  0
TABLE
  2
BLOCK_RECORD
  5
A01
330
0
100
AcDbSymbolTable
  70
5
  0
BLOCK_RECORD
  5
A02
330
A01
100
AcDbSymbolTableRecord
100
AcDbBlockTableRecord
  2
*MODEL_SPACE
  0
BLOCK_RECORD
  5
A03
330
A01
100
AcDbSymbolTableRecord
100
AcDbBlockTableRecord
  2
*PAPER_SPACE
  0
BLOCK_RECORD
  5
A48
330
A01
100
AcDbSymbolTableRecord
100
AcDbBlockTableRecord
  2
*DimHeight
  0
BLOCK_RECORD
  5
A52
330
A01
100
AcDbSymbolTableRecord
100
AcDbBlockTableRecord
  2
*DimFillet
  0
BLOCK_RECORD
  5
A59
330
A01
100
AcDbSymbolTableRecord
100
AcDbBlockTableRecord
  2
*DimHoleDia
  0
BLOCK_RECORD
  5
A61
330
A01
100
AcDbSymbolTableRecord
100
AcDbBlockTableRecord
  2
*DimBracketWidth
  0
ENDTAB
  0
ENDSEC
  0
SECTION
  2
BLOCKS
  0
BLOCK
  5
A04
330
A02
100
AcDbEntity
  8
0
100
AcDbBlockBegin
  2
*MODEL_SPACE
 70
   0
 10
0
 20
0
 30
0
  3
*MODEL_SPACE
  1
 
  0
ENDBLK
  5
A05
330
A02
100
AcDbEntity
  8
0
100
AcDbBlockEnd
  0
BLOCK
  5
A06
330
A03
100
AcDbEntity
 67
1
  8
0
100
AcDbBlockBegin
  2
*PAPER_SPACE
 70
   0
 10
0
 20
0
 30
0
  3
*PAPER_SPACE
  1
 
  0
ENDBLK
  5
A07
330
A03
100
AcDbEntity
 67
    1
  8
0
100
AcDbBlockEnd
  0
BLOCK
  5
A49
330
A48
100
AcDbEntity
  8
DimHeight
100
AcDbBlockBegin
  2
*DimHeight
 70
   1
 10
0
 20
0
 30
0
  3
*DimHeight
  1
 
  0
LINE
  5
A4A
330
A48
100
AcDbEntity
  8
DimHeight
100
AcDbLine
 10
63.75
 20
127.5
 30
0
 11
51.25
 21
127.5
 31
0
  0
LINE
  5
A4B
330
A48
100
AcDbEntity
  8
DimHeight
100
AcDbLine
 10
63.75
 20
207.5
 30
0
 11
51.25
 21
207.5
 31
0
  0
LINE
  5
A4C
330
A48
100
AcDbEntity
  8
DimHeight
100
AcDbLine
 10
51.25
 20
207.5
 30
0
 11
51.25
 21
127.5
 31
0
  0
TEXT
  5
A4D
330
A48
100
AcDbEntity
  8
DimHeight
100
AcDbText
 10
46.25
 20
167.5
 30
0
 40
3.5
  1
80
  7
STANDARD
 72
1
 11
51.25
 21
167.5
 31
0
100
AcDbText
  0
SOLID
  5
A4E
330
A48
100
AcDbEntity
  8
0
 62
     0
100
AcDbTrace
 10
50.8333
 20
212.5
 30
0
 11
51.6667
 21
212.5
 31
0
 12
51.25
 22
207.5
 32
0
 13
51.25
 23
207.5
 33
0
  0
SOLID
  5
A4F
330
A48
100
AcDbEntity
  8
0
 62
     0
100
AcDbTrace
 10
50.8333
 20
122.5
 30
0
 11
51.6667
 21
122.5
 31
0
 12
51.25
 22
127.5
 32
0
 13
51.25
 23
127.5
 33
0
  0
ENDBLK
  5
A50
330
A48
100
AcDbEntity
  8
DimHeight
100
AcDbBlockEnd
  0
BLOCK
  5
A53
330
A52
100
AcDbEntity
  8
DimFillet
100
AcDbBlockBegin
  2
*DimFillet
 70
   1
 10
0
 20
0
 30
0
  3
*DimFillet
  1
 
  0
LINE
  5
A54
330
A52
100
AcDbEntity
  8
DimFillet
100
AcDbLine
 10
76.75
 20
140.5
 30
0
 11
74.4251
 21
132.845
 31
0
  0
TEXT
  5
A55
330
A52
100
AcDbEntity
  8
DimFillet
100
AcDbText
 10
81.25
 20
182.5
 30
0
 40
3.5
  1
R8
  7
STANDARD
 72
1
 11
81.25
 21
182.5
 31
0
100
AcDbText
  0
SOLID
  5
A56
330
A52
100
AcDbEntity
  8
0
 62
     0
100
AcDbTrace
 10
76.2768
 20
137.508
 30
0
 11
75.4795
 21
137.751
 31
0
 12
74.4251
 22
132.845
 32
0
 13
74.4251
 23
132.845
 33
0
  0
ENDBLK
  5
A57
330
A52
100
AcDbEntity
  8
DimFillet
100
AcDbBlockEnd
  0
BLOCK
  5
A5A
330
A59
100
AcDbEntity
  8
DimHoleDia
100
AcDbBlockBegin
  2
*DimHoleDia
 70
   1
 10
0
 20
0
 30
0
  3
*DimHoleDia
  1
 
  0
LINE
  5
A5B
330
A59
100
AcDbEntity
  8
DimHoleDia
100
AcDbLine
 10
177.739
 20
191.033
 30
0
 11
169.761
 21
193.967
 31
0
  0
TEXT
  5
A5C
330
A59
100
AcDbEntity
  8
DimHoleDia
100
AcDbText
 10
208.75
 20
187.5
 30
0
 40
3.5
  1
2X ⌀8.5 H9
  7
STANDARD
 72
1
 11
208.75
 21
187.5
 31
0
100
AcDbText
  0
SOLID
  5
A5D
330
A59
100
AcDbEntity
  8
0
 62
     0
100
AcDbTrace
 10
172.902
 20
192.368
 30
0
 11
173.19
 21
193.15
 31
0
 12
177.739
 22
191.033
 32
0
 13
177.739
 23
191.033
 33
0
  0
SOLID
  5
A5E
330
A59
100
AcDbEntity
  8
0
 62
     0
100
AcDbTrace
 10
174.31
 20
191.85
 30
0
 11
174.598
 21
192.632
 31
0
 12
169.761
 22
193.967
 32
0
 13
169.761
 23
193.967
 33
0
  0
ENDBLK
  5
A5F
330
A59
100
AcDbEntity
  8
DimHoleDia
100
AcDbBlockEnd
  0
BLOCK
  5
A62
330
A61
100
AcDbEntity
  8
DimBracketWidth
100
AcDbBlockBegin
  2
*DimBracketWidth
 70
   1
 10
0
 20
0
 30
0
  3
*DimBracketWidth
  1
 
  0
LINE
  5
A63
330
A61
100
AcDbEntity
  8
DimBracketWidth
100
AcDbLine
 10
148.75
 20
132.5
 30
0
 11
148.75
 21
132.5
 31
0
  0
LINE
  5
A64
330
A61
100
AcDbEntity
  8
DimBracketWidth
100
AcDbLine
 10
198.75
 20
132.5
 30
0
 11
198.75
 21
132.5
 31
0
  0
LINE
  5
A65
330
A61
100
AcDbEntity
  8
DimBracketWidth
100
AcDbLine
 10
198.75
 20
132.5
 30
0
 11
148.75
 21
132.5
 31
0
  0
TEXT
  5
A66
330
A61
100
AcDbEntity
  8
DimBracketWidth
100
AcDbText
 10
173.75
 20
127.5
 30
0
 40
3.5
  1
50
  7
STANDARD
 72
1
 11
173.75
 21
132.5
 31
0
100
AcDbText
  0
SOLID
  5
A67
330
A61
100
AcDbEntity
  8
0
 62
     0
100
AcDbTrace
 10
203.75
 20
132.083
 30
0
 11
203.75
 21
132.917
 31
0
 12
198.75
 22
132.5
 32
0
 13
198.75
 23
132.5
 33
0
  0
SOLID
  5
A68
330
A61
100
AcDbEntity
  8
0
 62
     0
100
AcDbTrace
 10
143.75
 20
132.083
 30
0
 11
143.75
 21
132.917
 31
0
 12
148.75
 22
132.5
 32
0
 13
148.75
 23
132.5
 33
0
  0
ENDBLK
  5
A69
330
A61
100
AcDbEntity
  8
DimBracketWidth
100
AcDbBlockEnd
  0
ENDSEC
  0
SECTION
  2
ENTITIES
  0
LINE
  5
A08
330
A02
100
AcDbEntity
  8
FRONT
100
AcDbLine
 10
128.750000000
 20
132.500000000
 30
0.000000000
 11
76.750000000
 21
132.500000000
 31
0.000000000
  0
ARC
  5
A09
330
A02
100
AcDbEntity
  8
FRONT
100
AcDbCircle
 10
76.750000000
 20
140.500000000
 30
0.000000000
 40
8.000000000
100
AcDbArc
 50
180.000000000
 51
-90.000000000
  0
SPLINE
  5
A0A
330
A02
100
AcDbEntity
  8
FRONT
100
AcDbSpline
210
0
220
0
230
1
 70
8
 71
1
 72
4
 73
2
 74
0
 40
0.000000000
 40
0.000000000
 40
0.004348002
 40
0.004348002
 10
68.750000000
 20
140.500000000
 30
0.000000000
 10
68.750104857
 20
140.459040179
 30
0.000000000
  0
LINE
  5
A0B
330
A02
100
AcDbEntity
  8
FRONT
100
AcDbLine
 10
128.750000000
 20
127.500000000
 30
0.000000000
 11
128.750000000
 21
132.500000000
 31
0.000000000
  0
LINE
  5
A0C
330
A02
100
AcDbEntity
  8
FRONT
100
AcDbLine
 10
68.750000000
 20
140.500000000
 30
0.000000000
 11
68.750000000
 21
207.500000000
 31
0.000000000
  0
LINE
  5
A0D
330
A02
100
AcDbEntity
  8
FRONT
100
AcDbLine
 10
68.750000000
 20
207.500000000
 30
0.000000000
 11
63.750000000
 21
207.500000000
 31
0.000000000
  0
LINE
  5
A0E
330
A02
100
AcDbEntity
  8
FRONT
100
AcDbLine
 10
63.750000000
 20
207.500000000
 30
0.000000000
 11
63.750000000
 21
127.500000000
 31
0.000000000
  0
LINE
  5
A0F
330
A02
100
AcDbEntity
  8
FRONT
100
AcDbLine
 10
63.750000000
 20
127.500000000
 30
0.000000000
 11
128.750000000
 21
127.500000000
 31
0.000000000
  0
LINE
  5
A10
330
A02
100
AcDbEntity
  8
RIGHT
100
AcDbLine
 10
198.750000000
 20
132.500000000
 30
0.000000000
 11
148.750000000
 21
132.500000000
 31
0.000000000
  0
SPLINE
  5
A11
330
A02
100
AcDbEntity
  8
RIGHT
100
AcDbSpline
210
0
220
0
230
1
 70
8
 71
1
 72
17
 73
15
 74
0
 40
0.000000000
 40
0.000000000
 40
0.112199738
 40
0.224399475
 40
0.336599213
 40
0.448798951
 40
0.560998688
 40
0.673198426
 40
0.785398163
 40
0.897597901
 40
1.009797639
 40
1.121997376
 40
1.234197114
 40
1.346396852
 40
1.458596589
 40
1.570796327
 40
1.570796327
 10
198.750000000
 20
132.500000000
 30
0.000000000
 10
198.750000000
 20
132.550302321
 30
0.000000000
 10
198.750000000
 20
132.700576703
 30
0.000000000
 10
198.750000000
 20
132.948933358
 30
0.000000000
 10
198.750000000
 20
133.292249057
 30
0.000000000
 10
198.750000000
 20
133.726206406
 30
0.000000000
 10
198.750000000
 20
134.245348140
 30
0.000000000
 10
198.750000000
 20
134.843145751
 30
0.000000000
 10
198.750000000
 20
135.512081585
 30
0.000000000
 10
198.750000000
 20
136.243743388
 30
0.000000000
 10
198.750000000
 20
137.028930087
 30
0.000000000
 10
198.750000000
 20
137.857767504
 30
0.000000000
 10
198.750000000
 20
138.719832528
 30
0.000000000
 10
198.750000000
 20
139.604284191
 30
0.000000000
 10
198.750000000
 20
140.500000000
 30
0.000000000
  0
LINE
  5
A12
330
A02
100
AcDbEntity
  8
RIGHT
100
AcDbLine
 10
198.750000000
 20
140.500000000
 30
0.000000000
 11
198.750000000
 21
207.500000000
 31
0.000000000
  0
LINE
  5
A13
330
A02
100
AcDbEntity
  8
RIGHT
100
AcDbLine
 10
198.750000000
 20
127.500000000
 30
0.000000000
 11
198.750000000
 21
132.500000000
 31
0.000000000
  0
SPLINE
  5
A14
330
A02
100
AcDbEntity
  8
RIGHT
100
AcDbSpline
210
0
220
0
230
1
 70
8
 71
1
 72
17
 73
15
 74
0
 40
0.000000000
 40
0.000000000
 40
0.112199738
 40
0.224399475
 40
0.336599213
 40
0.448798951
 40
0.560998688
 40
0.673198426
 40
0.785398163
 40
0.897597901
 40
1.009797639
 40
1.121997376
 40
1.234197114
 40
1.346396852
 40
1.458596589
 40
1.570796327
 40
1.570796327
 10
148.750000000
 20
132.500000000
 30
0.000000000
 10
148.750000000
 20
132.550302321
 30
0.000000000
 10
148.750000000
 20
132.700576703
 30
0.000000000
 10
148.750000000
 20
132.948933358
 30
0.000000000
 10
148.750000000
 20
133.292249057
 30
0.000000000
 10
148.750000000
 20
133.726206406
 30
0.000000000
 10
148.750000000
 20
134.245348140
 30
0.000000000
 10
148.750000000
 20
134.843145751
 30
0.000000000
 10
148.750000000
 20
135.512081585
 30
0.000000000
 10
148.750000000
 20
136.243743388
 30
0.000000000
 10
148.750000000
 20
137.028930087
 30
0.000000000
 10
148.750000000
 20
137.857767504
 30
0.000000000
 10
148.750000000
 20
138.719832528
 30
0.000000000
 10
148.750000000
 20
139.604284191
 30
0.000000000
 10
148.750000000
 20
140.500000000
 30
0.000000000
  0
SPLINE
  5
A15
330
A02
100
AcDbEntity
  8
RIGHT
100
AcDbSpline
210
0
220
0
230
1
 70
8
 71
3
 72
17
 73
13
 74
0
 40
0.000000000
 40
0.000000000
 40
0.000000000
 40
0.000000000
 40
0.230745620
 40
0.230745620
 40
0.230745620
 40
0.500054121
 40
0.500054121
 40
0.500054121
 40
0.769192707
 40
0.769192707
 40
0.769192707
 40
1.000000000
 40
1.000000000
 40
1.000000000
 40
1.000000000
 10
170.000000000
 20
140.500000000
 30
0.000000000
 10
170.391170704
 20
139.769805693
 30
0.000000000
 10
170.940926453
 20
139.236960765
 30
0.000000000
 10
171.531704683
 20
138.874856432
 30
0.000000000
 10
172.224678715
 20
138.452145269
 30
0.000000000
 10
172.988165035
 20
138.250831487
 30
0.000000000
 10
173.750000000
 20
138.250000000
 30
0.000000000
 10
174.511515845
 20
138.250857375
 30
0.000000000
 10
175.274499571
 20
138.451908313
 30
0.000000000
 10
175.967305234
 20
138.874250767
 30
0.000000000
 10
176.558467931
 20
139.236369761
 30
0.000000000
 10
177.108606859
 20
139.769396952
 30
0.000000000
 10
177.500000000
 20
140.500000000
 30
0.000000000
  0
LINE
  5
A16
330
A02
100
AcDbEntity
  8
RIGHT
100
AcDbLine
 10
198.750000000
 20
127.500000000
 30
0.000000000
 11
148.750000000
 21
127.500000000
 31
0.000000000
  0
LINE
  5
A17
330
A02
100
AcDbEntity
  8
RIGHT
100
AcDbLine
 10
148.750000000
 20
127.500000000
 30
0.000000000
 11
148.750000000
 21
132.500000000
 31
0.000000000
  0
LINE
  5
A18
330
A02
100
AcDbEntity
  8
RIGHT
100
AcDbLine
 10
148.750000000
 20
140.500000000
 30
0.000000000
 11
148.750000000
 21
207.500000000
 31
0.000000000
  0
ARC
  5
A19
330
A02
100
AcDbEntity
  8
RIGHT
100
AcDbCircle
 10
173.750000000
 20
142.500000000
 30
0.000000000
 40
4.250000000
100
AcDbArc
 50
-28.072486936
 51
0.000000000
  0
ARC
  5
A1A
330
A02
100
AcDbEntity
  8
RIGHT
100
AcDbCircle
 10
173.750000000
 20
142.500000000
 30
0.000000000
 40
4.250000000
100
AcDbArc
 50
0.000000000
 51
-151.927513064
  0
LINE
  5
A1B
330
A02
100
AcDbEntity
  8
RIGHT
100
AcDbLine
 10
198.750000000
 20
207.500000000
 30
0.000000000
 11
148.750000000
 21
207.500000000
 31
0.000000000
  0
CIRCLE
  5
A1C
330
A02
100
AcDbEntity
  8
RIGHT
100
AcDbCircle
 10
173.750000000
 20
192.500000000
 30
0.000000000
 40
4.250000000
  0
LINE
  5
A1D
330
A02
100
AcDbEntity
  8
RIGHT
100
AcDbLine
 10
170.000000000
 20
140.500000000
 30
0.000000000
 11
148.750000000
 21
140.500000000
 31
0.000000000
  0
LINE
  5
A1E
330
A02
100
AcDbEntity
  8
RIGHT
100
AcDbLine
 10
198.750000000
 20
140.500000000
 30
0.000000000
 11
177.500000000
 21
140.500000000
 31
0.000000000
  0
LINE
  5
A1F
330
A02
100
AcDbEntity
  8
TOP
100
AcDbLine
 10
128.750000000
 20
277.500000000
 30
0.000000000
 11
76.750000000
 21
277.500000000
 31
0.000000000
  0
LINE
  5
A20
330
A02
100
AcDbEntity
  8
TOP
100
AcDbLine
 10
128.750000000
 20
277.500000000
 30
0.000000000
 11
128.750000000
 21
227.500000000
 31
0.000000000
  0
LINE
  5
A21
330
A02
100
AcDbEntity
  8
TOP
100
AcDbLine
 10
128.750000000
 20
227.500000000
 30
0.000000000
 11
76.750000000
 21
227.500000000
 31
0.000000000
  0
SPLINE
  5
A22
330
A02
100
AcDbEntity
  8
TOP
100
AcDbSpline
210
0
220
0
230
1
 70
8
 71
1
 72
17
 73
15
 74
0
 40
0.000000000
 40
0.000000000
 40
0.112199738
 40
0.224399475
 40
0.336599213
 40
0.448798951
 40
0.560998688
 40
0.673198426
 40
0.785398163
 40
0.897597901
 40
1.009797639
 40
1.121997376
 40
1.234197114
 40
1.346396852
 40
1.458596589
 40
1.570796327
 40
1.570796327
 10
76.750000000
 20
277.500000000
 30
0.000000000
 10
75.854284191
 20
277.500000000
 30
0.000000000
 10
74.969832528
 20
277.500000000
 30
0.000000000
 10
74.107767504
 20
277.500000000
 30
0.000000000
 10
73.278930087
 20
277.500000000
 30
0.000000000
 10
72.493743388
 20
277.500000000
 30
0.000000000
 10
71.762081585
 20
277.500000000
 30
0.000000000
 10
71.093145751
 20
277.500000000
 30
0.000000000
 10
70.495348140
 20
277.500000000
 30
0.000000000
 10
69.976206406
 20
277.500000000
 30
0.000000000
 10
69.542249057
 20
277.500000000
 30
0.000000000
 10
69.198933358
 20
277.500000000
 30
0.000000000
 10
68.950576703
 20
277.500000000
 30
0.000000000
 10
68.800302321
 20
277.500000000
 30
0.000000000
 10
68.750000000
 20
277.500000000
 30
0.000000000
  0
LINE
  5
A23
330
A02
100
AcDbEntity
  8
TOP
100
AcDbLine
 10
68.750000000
 20
277.500000000
 30
0.000000000
 11
63.750000000
 21
277.500000000
 31
0.000000000
  0
SPLINE
  5
A24
330
A02
100
AcDbEntity
  8
TOP
100
AcDbSpline
210
0
220
0
230
1
 70
8
 71
1
 72
17
 73
15
 74
0
 40
0.000000000
 40
0.000000000
 40
0.112199738
 40
0.224399475
 40
0.336599213
 40
0.448798951
 40
0.560998688
 40
0.673198426
 40
0.785398163
 40
0.897597901
 40
1.009797639
 40
1.121997376
 40
1.234197114
 40
1.346396852
 40
1.458596589
 40
1.570796327
 40
1.570796327
 10
76.750000000
 20
227.500000000
 30
0.000000000
 10
75.854284191
 20
227.500000000
 30
0.000000000
 10
74.969832528
 20
227.500000000
 30
0.000000000
 10
74.107767504
 20
227.500000000
 30
0.000000000
 10
73.278930087
 20
227.500000000
 30
0.000000000
 10
72.493743388
 20
227.500000000
 30
0.000000000
 10
71.762081585
 20
227.500000000
 30
0.000000000
 10
71.093145751
 20
227.500000000
 30
0.000000000
 10
70.495348140
 20
227.500000000
 30
0.000000000
 10
69.976206406
 20
227.500000000
 30
0.000000000
 10
69.542249057
 20
227.500000000
 30
0.000000000
 10
69.198933358
 20
227.500000000
 30
0.000000000
 10
68.950576703
 20
227.500000000
 30
0.000000000
 10
68.800302321
 20
227.500000000
 30
0.000000000
 10
68.750000000
 20
227.500000000
 30
0.000000000
  0
SPLINE
  5
A25
330
A02
100
AcDbEntity
  8
TOP
100
AcDbSpline
210
0
220
0
230
1
 70
8
 71
3
 72
17
 73
13
 74
0
 40
0.000000000
 40
0.000000000
 40
0.000000000
 40
0.000000000
 40
0.230745620
 40
0.230745620
 40
0.230745620
 40
0.500054121
 40
0.500054121
 40
0.500054121
 40
0.769192707
 40
0.769192707
 40
0.769192707
 40
1.000000000
 40
1.000000000
 40
1.000000000
 40
1.000000000
 10
68.750000000
 20
248.750000000
 30
0.000000000
 10
68.751773593
 20
249.141170704
 30
0.000000000
 10
68.843222218
 20
249.690926453
 30
0.000000000
 10
68.916807268
 20
250.281704683
 30
0.000000000
 10
69.006488035
 20
250.974678715
 30
0.000000000
 10
69.074661919
 20
251.738165035
 30
0.000000000
 10
69.072923734
 20
252.500000000
 30
0.000000000
 10
69.074651984
 20
253.261515845
 30
0.000000000
 10
69.006568866
 20
254.024499571
 30
0.000000000
 10
68.916932949
 20
254.717305234
 30
0.000000000
 10
68.843318998
 20
255.308467931
 30
0.000000000
 10
68.751777558
 20
255.858606859
 30
0.000000000
 10
68.750000000
 20
256.250000000
 30
0.000000000
  0
LINE
  5
A26
330
A02
100
AcDbEntity
  8
TOP
100
AcDbLine
 10
68.750000000
 20
227.500000000
 30
0.000000000
 11
63.750000000
 21
227.500000000
 31
0.000000000
  0
LINE
  5
A27
330
A02
100
AcDbEntity
  8
TOP
100
AcDbLine
 10
68.750000000
 20
277.500000000
 30
0.000000000
 11
68.750000000
 21
227.500000000
 31
0.000000000
  0
LINE
  5
A28
330
A02
100
AcDbEntity
  8
TOP
100
AcDbLine
 10
63.750000000
 20
277.500000000
 30
0.000000000
 11
63.750000000
 21
227.500000000
 31
0.000000000
  0
LINE
  5
A29
330
A02
100
AcDbEntity
  8
TOP
100
AcDbLine
 10
76.750000000
 20
277.500000000
 30
0.000000000
 11
76.750000000
 21
227.500000000
 31
0.000000000
  0
LINE
  5
A2A
330
A02
100
AcDbEntity
  8
ISOMETRIC
100
AcDbLine
 10
346.908639918
 20
145.860757489
 30
0.000000000
 11
310.139087297
 21
167.089668593
 31
0.000000000
  0
LINE
  5
A2B
330
A02
100
AcDbEntity
  8
ISOMETRIC
100
AcDbLine
 10
346.908639918
 20
145.860757489
 30
0.000000000
 11
311.553300859
 21
125.448342966
 31
0.000000000
  0
LINE
  5
A2C
330
A02
100
AcDbEntity
  8
ISOMETRIC
100
AcDbLine
 10
311.553300859
 20
125.448342966
 30
0.000000000
 11
274.783748237
 21
146.677254070
 31
0.000000000
  0
ELLIPSE
  5
A2D
330
A02
100
AcDbEntity
  8
ISOMETRIC
100
AcDbEllipse
 10
310.139087297
 20
173.621641241
 30
0.000000000
 11
4.000000000
 21
-6.928203230
 31
0.000000000
 40
0.577350269
 41
-2.356194490
 42
-0.785398163
  0
LINE
  5
A2E
330
A02
100
AcDbEntity
  8
ISOMETRIC
100
AcDbLine
 10
304.482233047
 20
176.887627564
 30
0.000000000
 11
304.482233047
 21
231.592898486
 31
0.000000000
  0
LINE
  5
A2F
330
A02
100
AcDbEntity
  8
ISOMETRIC
100
AcDbLine
 10
304.482233047
 20
231.592898486
 30
0.000000000
 11
300.946699141
 21
233.634139939
 31
0.000000000
  0
LINE
  5
A30
330
A02
100
AcDbEntity
  8
ISOMETRIC
100
AcDbLine
 10
346.908639918
 20
141.778274584
 30
0.000000000
 11
346.908639918
 21
145.860757489
 31
0.000000000
  0
ELLIPSE
  5
A31
330
A02
100
AcDbEntity
  8
ISOMETRIC
100
AcDbEllipse
 10
274.783748237
 20
153.209226717
 30
0.000000000
 11
4.000000000
 21
-6.928203230
 31
0.000000000
 40
0.577350269
 41
-2.356194490
 42
-0.785398163
  0
SPLINE
  5
A32
330
A02
100
AcDbEntity
  8
ISOMETRIC
100
AcDbSpline
210
0
220
0
230
1
 70
8
 71
3
 72
8
 73
4
 74
0
 40
0.000000000
 40
0.000000000
 40
0.000000000
 40
0.000000000
 40
0.123224756
 40
0.123224756
 40
0.123224756
 40
0.123224756
 10
284.152913088
 20
165.150489213
 30
0.000000000
 10
284.299729179
 20
164.917537251
 30
0.000000000
 10
284.500651465
 20
164.737078974
 30
0.000000000
 10
284.724396506
 20
164.607921162
 30
0.000000000
  0
SPLINE
  5
A33
330
A02
100
AcDbEntity
  8
ISOMETRIC
100
AcDbSpline
210
0
220
0
230
1
 70
8
 71
3
 72
17
 73
13
 74
0
 40
0.123224756
 40
0.123224756
 40
0.123224756
 40
0.123224756
 40
0.283617887
 40
0.283617887
 40
0.283617887
 40
0.500054121
 40
0.500054121
 40
0.500054121
 40
0.769192707
 40
0.769192707
 40
0.769192707
 40
1.000000000
 40
1.000000000
 40
1.000000000
 40
1.000000000
 10
284.724396506
 20
164.607921162
 30
0.000000000
 10
285.016551698
 20
164.439613401
 30
0.000000000
 10
285.347486486
 20
164.356046758
 30
0.000000000
 10
285.683052565
 20
164.347578240
 30
0.000000000
 10
286.137173058
 20
164.336356126
 30
0.000000000
 10
286.600325313
 20
164.462397316
 30
0.000000000
 10
287.032905079
 20
164.712469933
 30
0.000000000
 10
287.572600155
 20
165.023351964
 30
0.000000000
 10
288.063969086
 20
165.526790986
 30
0.000000000
 10
288.490474504
 20
166.191062593
 30
0.000000000
 10
288.856436733
 20
166.758125443
 30
0.000000000
 10
289.180714126
 20
167.455305236
 30
0.000000000
 10
289.456213947
 20
168.212351392
 30
0.000000000
  0
LINE
  5
A34
330
A02
100
AcDbEntity
  8
ISOMETRIC
100
AcDbLine
 10
346.908639918
 20
141.778274584
 30
0.000000000
 11
311.553300859
 21
121.365860061
 31
0.000000000
  0
LINE
  5
A35
330
A02
100
AcDbEntity
  8
ISOMETRIC
100
AcDbLine
 10
311.553300859
 20
121.365860061
 30
0.000000000
 11
311.553300859
 21
125.448342966
 31
0.000000000
  0
LINE
  5
A36
330
A02
100
AcDbEntity
  8
ISOMETRIC
100
AcDbLine
 10
269.126893988
 20
156.475213041
 30
0.000000000
 11
269.126893988
 21
211.180483963
 31
0.000000000
  0
LINE
  5
A37
330
A02
100
AcDbEntity
  8
ISOMETRIC
100
AcDbLine
 10
269.126893988
 20
211.180483963
 30
0.000000000
 11
265.591360082
 21
213.221725416
 31
0.000000000
  0
LINE
  5
A38
330
A02
100
AcDbEntity
  8
ISOMETRIC
100
AcDbLine
 10
265.591360082
 20
213.221725416
 30
0.000000000
 11
265.591360082
 21
147.901998941
 31
0.000000000
  0
LINE
  5
A39
330
A02
100
AcDbEntity
  8
ISOMETRIC
100
AcDbLine
 10
265.591360082
 20
147.901998941
 30
0.000000000
 11
311.553300859
 21
121.365860061
 31
0.000000000
  0
ELLIPSE
  5
A3A
330
A02
100
AcDbEntity
  8
ISOMETRIC
100
AcDbEllipse
 10
286.804563517
 20
168.314413465
 30
0.000000000
 11
2.125000000
 21
3.680607966
 31
0.000000000
 40
0.577350269
 41
-1.275355490
 42
-0.785398163
  0
ELLIPSE
  5
A3B
330
A02
100
AcDbEntity
  8
ISOMETRIC
100
AcDbEllipse
 10
286.804563517
 20
168.314413465
 30
0.000000000
 11
2.125000000
 21
3.680607966
 31
0.000000000
 40
0.577350269
 41
-0.000000000
 42
-3.437033491
  0
ELLIPSE
  5
A3C
330
A02
100
AcDbEntity
  8
ISOMETRIC
100
AcDbEllipse
 10
286.804563517
 20
168.314413465
 30
0.000000000
 11
2.125000000
 21
3.680607966
 31
0.000000000
 40
0.577350269
 41
-0.785398163
 42
-0.000000000
  0
LINE
  5
A3D
330
A02
100
AcDbEntity
  8
ISOMETRIC
100
AcDbLine
 10
304.482233047
 20
231.592898486
 30
0.000000000
 11
269.126893988
 21
211.180483963
 31
0.000000000
  0
ELLIPSE
  5
A3E
330
A02
100
AcDbEntity
  8
ISOMETRIC
100
AcDbEllipse
 10
286.804563517
 20
209.139242511
 30
0.000000000
 11
2.125000000
 21
3.680607966
 31
0.000000000
 40
0.577350269
 41
-3.141592654
 42
-0.785398163
  0
ELLIPSE
  5
A3F
330
A02
100
AcDbEntity
  8
ISOMETRIC
100
AcDbEllipse
 10
286.804563517
 20
209.139242511
 30
0.000000000
 11
2.125000000
 21
3.680607966
 31
0.000000000
 40
0.577350269
 41
-0.000000000
 42
-3.141592654
  0
ELLIPSE
  5
A40
330
A02
100
AcDbEntity
  8
ISOMETRIC
100
AcDbEllipse
 10
286.804563517
 20
209.139242511
 30
0.000000000
 11
2.125000000
 21
3.680607966
 31
0.000000000
 40
0.577350269
 41
-0.785398163
 42
-0.000000000
  0
LINE
  5
A41
330
A02
100
AcDbEntity
  8
ISOMETRIC
100
AcDbLine
 10
300.946699141
 20
233.634139939
 30
0.000000000
 11
265.591360082
 21
213.221725416
 31
0.000000000
  0
ELLIPSE
  5
A42
330
A02
100
AcDbEntity
  8
ISOMETRIC
100
AcDbEllipse
 10
283.269029611
 20
211.180483963
 30
0.000000000
 11
-2.125000000
 21
-3.680607966
 31
0.000000000
 40
0.577350269
 41
0.982505407
 42
2.159087246
  0
ELLIPSE
  5
A43
330
A02
100
AcDbEntity
  8
ISOMETRIC
100
AcDbEllipse
 10
283.269029611
 20
170.355654917
 30
0.000000000
 11
-2.125000000
 21
-3.680607966
 31
0.000000000
 40
0.577350269
 41
0.982505407
 42
2.159087246
  0
LINE
  5
A44
330
A02
100
AcDbEntity
  8
ISOMETRIC
100
AcDbLine
 10
310.139087297
 20
167.089668593
 30
0.000000000
 11
274.783748237
 21
146.677254070
 31
0.000000000
  0
LINE
  5
A45
330
A02
100
AcDbEntity
  8
ISOMETRIC
100
AcDbLine
 10
284.152913088
 20
165.150489213
 30
0.000000000
 11
269.126893988
 21
156.475213041
 31
0.000000000
  0
LINE
  5
A46
330
A02
100
AcDbEntity
  8
ISOMETRIC
100
AcDbLine
 10
304.482233047
 20
176.887627564
 30
0.000000000
 11
289.456213947
 21
168.212351392
 31
0.000000000
  0
DIMENSION
  5
A47
330
A02
100
AcDbEntity
  8
DimHeight
100
AcDbDimension
  2
*DimHeight
 10
51.250000000
 20
167.500000000
 30
0.000000000
 11
46.250000000
 21
167.500000000
 31
0.000000000
 70
32
  1
80
  3
STANDARD
100
AcDbAlignedDimension
 13
63.750000000
 23
207.500000000
 33
0.000000000
 14
63.750000000
 24
127.500000000
 34
0.000000000
 50
90
100
AcDbRotatedDimension
  0
DIMENSION
  5
A51
330
A02
100
AcDbEntity
  8
DimFillet
100
AcDbDimension
  2
*DimFillet
 10
76.750000000
 20
140.500000000
 30
0.000000000
 11
81.250000000
 21
182.500000000
 31
0.000000000
 70
4
  1
R8
  3
STANDARD
100
AcDbRadialDimension
 15
74.425089165
 25
132.845276647
 35
0.000000000
 40
0
  0
DIMENSION
  5
A58
330
A02
100
AcDbEntity
  8
DimHoleDia
100
AcDbDimension
  2
*DimHoleDia
 10
177.738761256
 20
191.032933660
 30
0.000000000
 11
208.750000000
 21
187.500000000
 31
0.000000000
 70
3
  1
2X ⌀8.5 H9
  3
STANDARD
100
AcDbDiametricDimension
 15
169.761238744
 25
193.967066340
 35
0.000000000
 40
0
  0
DIMENSION
  5
A60
330
A02
100
AcDbEntity
  8
DimBracketWidth
100
AcDbDimension
  2
*DimBracketWidth
 10
173.750000000
 20
132.500000000
 30
0.000000000
 11
173.750000000
 21
127.500000000
 31
0.000000000
 70
32
  1
50
  3
STANDARD
100
AcDbAlignedDimension
 13
198.750000000
 23
132.500000000
 33
0.000000000
 14
148.750000000
 24
132.500000000
 34
0.000000000
100
AcDbRotatedDimension
  0
ENDSEC
  0
SECTION
  2
OBJECTS
  0
DICTIONARY
  5
F000
330
0
100
AcDbDictionary
  3
ACAD_GROUP
350
F001
  0
DICTIONARY
  5
F001
330
F000
100
AcDbDictionary
  0
ENDSEC
  0
EOF