999
FreeCAD v1.0 39285 (Git)
  0
SECTION
  2
HEADER
  9
$ACADVER
  1
AC1014
  9
$ACADMAINTVER
 70
     9
  9
$DWGCODEPAGE
  3
ANSI_1252
  9
$TEXTSTYLE
  7
STANDARD
  9
$DIMSTYLE
  2
STANDARD
  9
$DIMTXSTY
  7
STANDARD
  9
$CMLSTYLE
  2
STANDARD
  9
$LUNITS
 70
2
  9
$INSUNITS
 70
4
  9
$PEXTMAX
 10
50
 20
50
 30
50
  9
$PEXTMIN
 10
0
 20
0
 30
0
  9
$HANDSEED
  5
FFFF
  0
ENDSEC
  0
SECTION
  2
CLASSES
  0
CLASS
  1
ACDBDICTIONARYWDFLT
  2
AcDbDictionaryWithDefault
  3
ObjectDBX Classes
 90
        0
280
     0
281
     0
  0
CLASS
  1
XRECORD
  2
AcDbXrecord
  3
ObjectDBX Classes
 90
        0
280
     0
281
     0
  0
CLASS
  1
LWPOLYLINE
  2
AcDbPolyline
  3
ObjectDBX Classes
 90
        0
280
     0
281
     1
  0
ENDSEC
  0
SECTION
  2
TABLES
  0
TABLE
  2
VPORT
  5
20
330
0
100
AcDbSymbolTable
 70
     1
  0
VPORT
  5
21
330
20
100
AcDbSymbolTableRecord
100
AcDbViewportTableRecord
  2
*ACTIVE
 70
     0
  0
ENDTAB
  0
TABLE
  2
LTYPE
  5
22
330
0
100
AcDbSymbolTable
 70
     1
  0
LTYPE
  5
23
330
21
100
AcDbSymbolTableRecord
100
AcDbLinetypeTableRecord
  2
BYBLOCK
 70
     0
  3

 72
    65
 73
     0
 40
0.0
  0
LTYPE
  5
24
330
21
100
AcDbSymbolTableRecord
100
AcDbLinetypeTableRecord
  2
BYLAYER
 70
     0
  3

 72
    65
 73
     0
 40
0.0
  0
LTYPE
  5
25
330
21
100
AcDbSymbolTableRecord
100
AcDbLinetypeTableRecord
  2
CONTINUOUS
 70
     0
  3
Solid line
 72
    65
 73
     0
 40
0.0
  0
ENDTAB
  0
TABLE
  2
LAYER
  5
A7C
330
0
100
AcDbSymbolTable
 70
11
  0
LAYER
  5
A7D
330
A7C
100
AcDbSymbolTableRecord
100
AcDbLayerTableRecord
  2
0
 70
   0
 62
   7
  6
CONTINUOUS
  0
LAYER
  5
A7E
330
A7C
100
AcDbSymbolTableRecord
100
AcDbLayerTableRecord
  2
FRONT
 70
    0
 62
    7
  6
CONTINUOUS
  0
LAYER
  5
A7F
330
A7C
100
AcDbSymbolTableRecord
100
AcDbLayerTableRecord
  2
RIGHT
 70
    0
 62
    7
  6
CONTINUOUS
  0
LAYER
  5
A80
330
A7C
100
AcDbSymbolTableRecord
100
AcDbLayerTableRecord
  2
TOP
 70
    0
 62
    7
  6
CONTINUOUS
  0
LAYER
  5
A81
330
A7C
100
AcDbSymbolTableRecord
100
AcDbLayerTableRecord
  2
ISOMETRIC
 70
    0
 62
    7
  6
CONTINUOUS
  0
LAYER
  5
A82
330
A7C
100
AcDbSymbolTableRecord
100
AcDbLayerTableRecord
  2
DimHeight
 70
    0
 62
    7
  6
CONTINUOUS
  0
LAYER
  5
A83
330
A7C
100
AcDbSymbolTableRecord
100
AcDbLayerTableRecord
  2
DimWidth
 70
    0
 62
    7
  6
CONTINUOUS
  0
LAYER
  5
A84
330
A7C
100
AcDbSymbolTableRecord
100
AcDbLayerTableRecord
  2
DimThickness
 70
    0
 62
    7
  6
CONTINUOUS
  0
LAYER
  5
A85
330
A7C
100
AcDbSymbolTableRecord
100
AcDbLayerTableRecord
  2
DimFillet
 70
    0
 62
    7
  6
CONTINUOUS
  0
LAYER
  5
A86
330
A7C
100
AcDbSymbolTableRecord
100
AcDbLayerTableRecord
  2
DimHoleDia
 70
    0
 62
    7
  6
CONTINUOUS
  0
LAYER
  5
A87
330
A7C
100
AcDbSymbolTableRecord
100
AcDbLayerTableRecord
  2
DimBracketWidth
 70
    0
 62
    7
  6
CONTINUOUS
  0
ENDTAB
  0
TABLE
  2
STYLE
  5
70
330
0
100
AcDbSymbolTable
 70
     2
  0
STYLE
  5
71
330
70
100
AcDbSymbolTableRecord
100
AcDbTextStyleTableRecord
  2
STANDARD
 70
     0
 40
0.0
 41
1.0
 50
0.0
 71
     0
 42
2.5
  3
arial.ttf
  4

  0
STYLE
  5
72
330
70
100
AcDbSymbolTableRecord
100
AcDbTextStyleTableRecord
  2
ANNOTATIVE
 70
     0
 40
0.0
 41
1.0
 50
0.0
 71
     0
 42
2.5
  3
arial.ttf
  4

  0
ENDTAB
  0
TABLE
  2
VIEW
  5
73
330
0
100
AcDbSymbolTable
 70
     0
  0
ENDTAB
  0
TABLE
  2
UCS
  5
74
330
0
100
AcDbSymbolTable
 70
     0
  0
ENDTAB
  0
TABLE
  2
APPID
  5
75
330
0
100
AcDbSymbolTable
 70
     2
  0
APPID
  5
76
330
75
100
AcDbSymbolTableRecord
100
AcDbRegAppTableRecord
  2
ACAD
 70
     0
  0
APPID
  5
77
330
75
100
AcDbSymbolTableRecord
100
AcDbRegAppTableRecord
  2
ACADANNOTATIVE
 70
     0
  0
ENDTAB
  0
TABLE
  2
DIMSTYLE
  5
78
330
0
100
AcDbSymbolTable
 70
     2
  0
DIMSTYLE
105
79
330
78
100
AcDbSymbolTableRecord
100
AcDbDimStyleTableRecord
  2
STANDARD
 70
     0
  3

  4

  5

  6

  7

 40
0.0
 41
2.5
 42
0.625
 43
3.75
 44
1.25
 45
0.0
 46
0.0
 47
0.0
 48
0.0
140
2.5
141
2.5
142
0.0
143
0.03937007874016
144
1.0
145
0.0
146
1.0
147
0.625
 71
     0
 72
     0
 73
     0
 74
     0
 75
     0
 76
     0
 77
     1
 78
     8
170
     0
171
     3
172
     1
173
     0
174
     0
175
     0
176
     0
177
     0
178
     0
270
     2
271
     2
272
     2
273
     2
274
     3
340
71
275
     0
280
     0
281
     0
282
     0
283
     0
284
     8
285
     0
286
     0
287
     3
288
     0
  0
ENDTAB
  0
TABLE
  2
BLOCK_RECORD
  5
A01
330
0
100
AcDbSymbolTable
  70
5
  0
BLOCK_RECORD
  5
A02
330
A01
100
AcDbSymbolTableRecord
100
AcDbBlockTableRecord
  2
*MODEL_SPACE
  0
BLOCK_RECORD
  5
A03
330
A01
100
AcDbSymbolTableRecord
100
AcDbBlockTableRecord
  2
*PAPER_SPACE
  0
BLOCK_RECORD
  5
A46
330
A01
100
AcDbSymbolTableRecord
100
AcDbBlockTableRecord
  2
*DimHeight
  0
BLOCK_RECORD
  5
A50
330
A01
100
AcDbSymbolTableRecord
100
AcDbBlockTableRecord
  2
*DimWidth
  0
BLOCK_RECORD
  5
A5A
330
A01
100
AcDbSymbolTableRecord
100
AcDbBlockTableRecord
  2
*DimThickness
  0
BLOCK_RECORD
  5
A64
330
A01
100
AcDbSymbolTableRecord
100
AcDbBlockTableRecord
  2
*DimFillet
  0
BLOCK_RECORD
  5
A6B
330
A01
100
AcDbSymbolTableRecord
100
AcDbBlockTableRecord
  2
*DimHoleDia
  0
BLOCK_RECORD
  5
A73
330
A01
100
AcDbSymbolTableRecord
100
AcDbBlockTableRecord
  2
*DimBracketWidth
  0
ENDTAB
  0
ENDSEC
  0
SECTION
  2
BLOCKS
  0
BLOCK
  5
A04
330
A02
100
AcDbEntity
  8
0
100
AcDbBlockBegin
  2
*MODEL_SPACE
 70
   0
 10
0
 20
0
 30
0
  3
*MODEL_SPACE
  1
 
  0
ENDBLK
  5
A05
330
A02
100
AcDbEntity
  8
0
100
AcDbBlockEnd
  0
BLOCK
  5
A06
330
A03
100
AcDbEntity
 67
1
  8
0
100
AcDbBlockBegin
  2
*PAPER_SPACE
 70
   0
 10
0
 20
0
 30
0
  3
*PAPER_SPACE
  1
 
  0
ENDBLK
  5
A07
330
A03
100
AcDbEntity
 67
    1
  8
0
100
AcDbBlockEnd
  0
BLOCK
  5
A47
330
A46
100
AcDbEntity
  8
DimHeight
100
AcDbBlockBegin
  2
*DimHeight
 70
   1
 10
0
 20
0
 30
0
  3
*DimHeight
  1
 
  0
LINE
  5
A48
330
A46
100
AcDbEntity
  8
DimHeight
100
AcDbLine
 10
59.25
 20
127.5
 30
0
 11
51.25
 21
127.5
 31
0
  0
LINE
  5
A49
330
A46
100
AcDbEntity
  8
DimHeight
100
AcDbLine
 10
59.25
 20
207.5
 30
0
 11
51.25
 21
207.5
 31
0
  0
LINE
  5
A4A
330
A46
100
AcDbEntity
  8
DimHeight
100
AcDbLine
 10
51.25
 20
207.5
 30
0
 11
51.25
 21
127.5
 31
0
  0
TEXT
  5
A4B
330
A46
100
AcDbEntity
  8
DimHeight
100
AcDbText
 10
46.25
 20
167.5
 30
0
 40
3.5
  1
80
  7
STANDARD
 72
1
 11
51.25
 21
167.5
 31
0
100
AcDbText
  0
SOLID
  5
A4C
330
A46
100
AcDbEntity
  8
0
 62
     0
100
AcDbTrace
 10
50.8333
 20
212.5
 30
0
 11
51.6667
 21
212.5
 31
0
 12
51.25
 22
207.5
 32
0
 13
51.25
 23
207.5
 33
0
  0
SOLID
  5
A4D
330
A46
100
AcDbEntity
  8
0
 62
     0
100
AcDbTrace
 10
50.8333
 20
122.5
 30
0
 11
51.6667
 21
122.5
 31
0
 12
51.25
 22
127.5
 32
0
 13
51.25
 23
127.5
 33
0
  0
ENDBLK
  5
A4E
330
A46
100
AcDbEntity
  8
DimHeight
100
AcDbBlockEnd
  0
BLOCK
  5
A51
330
A50
100
AcDbEntity
  8
DimWidth
100
AcDbBlockBegin
  2
*DimWidth
 70
   1
 10
0
 20
0
 30
0
  3
*DimWidth
  1
 
  0
LINE
  5
A52
330
A50
100
AcDbEntity
  8
DimWidth
100
AcDbLine
 10
133.25
 20
127.5
 30
0
 11
133.25
 21
112.5
 31
0
  0
LINE
  5
A53
330
A50
100
AcDbEntity
  8
DimWidth
100
AcDbLine
 10
59.25
 20
127.5
 30
0
 11
59.25
 21
112.5
 31
0
  0
LINE
  5
A54
330
A50
100
AcDbEntity
  8
DimWidth
100
AcDbLine
 10
59.25
 20
112.5
 30
0
 11
133.25
 21
112.5
 31
0
  0
TEXT
  5
A55
330
A50
100
AcDbEntity
  8
DimWidth
100
AcDbText
 10
96.25
 20
117.5
 30
0
 40
3.5
  1
74
  7
STANDARD
 72
1
 11
96.25
 21
112.5
 31
0
100
AcDbText
  0
SOLID
  5
A56
330
A50
100
AcDbEntity
  8
0
 62
     0
100
AcDbTrace
 10
54.25
 20
112.083
 30
0
 11
54.25
 21
112.917
 31
0
 12
59.25
 22
112.5
 32
0
 13
59.25
 23
112.5
 33
0
  0
SOLID
  5
A57
330
A50
100
AcDbEntity
  8
0
 62
     0
100
AcDbTrace
 10
138.25
 20
112.083
 30
0
 11
138.25
 21
112.917
 31
0
 12
133.25
 22
112.5
 32
0
 13
133.25
 23
112.5
 33
0
  0
ENDBLK
  5
A58
330
A50
100
AcDbEntity
  8
DimWidth
100
AcDbBlockEnd
  0
BLOCK
  5
A5B
330
A5A
100
AcDbEntity
  8
DimThickness
100
AcDbBlockBegin
  2
*DimThickness
 70
   1
 10
0
 20
0
 30
0
  3
*DimThickness
  1
 
  0
LINE
  5
A5C
330
A5A
100
AcDbEntity
  8
DimThickness
100
AcDbLine
 10
133.25
 20
141.5
 30
0
 11
116.25
 21
152.5
 31
0
  0
LINE
  5
A5D
330
A5A
100
AcDbEntity
  8
DimThickness
100
AcDbLine
 10
133.25
 20
127.5
 30
0
 11
116.25
 21
138.5
 31
0
  0
LINE
  5
A5E
330
A5A
100
AcDbEntity
  8
DimThickness
100
AcDbLine
 10
116.25
 20
138.5
 30
0
 11
116.25
 21
152.5
 31
0
  0
TEXT
  5
A5F
330
A5A
100
AcDbEntity
  8
DimThickness
100
AcDbText
 10
121.25
 20
152.5
 30
0
 40
3.5
  1
14
  7
STANDARD
 72
1
 11
116.25
 21
152.5
 31
0
100
AcDbText
  0
SOLID
  5
A60
330
A5A
100
AcDbEntity
  8
0
 62
     0
100
AcDbTrace
 10
116.6
 20
143.274
 30
0
 11
115.9
 21
143.726
 31
0
 12
116.25
 22
138.5
 32
0
 13
116.25
 23
138.5
 33
0
  0
SOLID
  5
A61
330
A5A
100
AcDbEntity
  8
0
 62
     0
100
AcDbTrace
 10
116.6
 20
147.274
 30
0
 11
115.9
 21
147.726
 31
0
 12
116.25
 22
152.5
 32
0
 13
116.25
 23
152.5
 33
0
  0
ENDBLK
  5
A62
330
A5A
100
AcDbEntity
  8
DimThickness
100
AcDbBlockEnd
  0
BLOCK
  5
A65
330
A64
100
AcDbEntity
  8
DimFillet
100
AcDbBlockBegin
  2
*DimFillet
 70
   1
 10
0
 20
0
 30
0
  3
*DimFillet
  1
 
  0
LINE
  5
A66
330
A64
100
AcDbEntity
  8
DimFillet
100
AcDbLine
 10
81.25
 20
149.5
 30
0
 11
79.3348
 21
141.733
 31
0
  0
TEXT
  5
A67
330
A64
100
AcDbEntity
  8
DimFillet
100
AcDbText
 10
81.25
 20
182.5
 30
0
 40
3.5
  1
R8
  7
STANDARD
 72
1
 11
81.25
 21
182.5
 31
0
100
AcDbText
  0
SOLID
  5
A68
330
A64
100
AcDbEntity
  8
0
 62
     0
100
AcDbTrace
 10
80.9364
 20
146.487
 30
0
 11
80.1273
 21
146.687
 31
0
 12
79.3348
 22
141.733
 32
0
 13
79.3348
 23
141.733
 33
0
  0
ENDBLK
  5
A69
330
A64
100
AcDbEntity
  8
DimFillet
100
AcDbBlockEnd
  0
BLOCK
  5
A6C
330
A6B
100
AcDbEntity
  8
DimHoleDia
100
AcDbBlockBegin
  2
*DimHoleDia
 70
   1
 10
0
 20
0
 30
0
  3
*DimHoleDia
  1
 
  0
LINE
  5
A6D
330
A6B
100
AcDbEntity
  8
DimHoleDia
100
AcDbLine
 10
182.277
 20
190.142
 30
0
 11
174.223
 21
192.858
 31
0
  0
TEXT
  5
A6E
330
A6B
100
AcDbEntity
  8
DimHoleDia
100
AcDbText
 10
213.25
 20
187.5
 30
0
 40
3.5
  1
2X ⌀8.5 H9
  7
STANDARD
 72
1
 11
213.25
 21
187.5
 31
0
100
AcDbText
  0
SOLID
  5
A6F
330
A6B
100
AcDbEntity
  8
0
 62
     0
100
AcDbTrace
 10
177.406
 20
191.345
 30
0
 11
177.672
 21
192.134
 31
0
 12
182.277
 22
190.142
 32
0
 13
182.277
 23
190.142
 33
0
  0
SOLID
  5
A70
330
A6B
100
AcDbEntity
  8
0
 62
     0
100
AcDbTrace
 10
178.828
 20
190.866
 30
0
 11
179.094
 21
191.655
 31
0
 12
174.223
 22
192.858
 32
0
 13
174.223
 23
192.858
 33
0
  0
ENDBLK
  5
A71
330
A6B
100
AcDbEntity
  8
DimHoleDia
100
AcDbBlockEnd
  0
BLOCK
  5
A74
330
A73
100
AcDbEntity
  8
DimBracketWidth
100
AcDbBlockBegin
  2
*DimBracketWidth
 70
   1
 10
0
 20
0
 30
0
  3
*DimBracketWidth
  1
 
  0
LINE
  5
A75
330
A73
100
AcDbEntity
  8
DimBracketWidth
100
AcDbLine
 10
153.25
 20
141.5
 30
0
 11
153.25
 21
132.5
 31
0
  0
LINE
  5
A76
330
A73
100
AcDbEntity
  8
DimBracketWidth
100
AcDbLine
 10
203.25
 20
141.5
 30
0
 11
203.25
 21
132.5
 31
0
  0
LINE
  5
A77
330
A73
100
AcDbEntity
  8
DimBracketWidth
100
AcDbLine
 10
203.25
 20
132.5
 30
0
 11
153.25
 21
132.5
 31
0
  0
TEXT
  5
A78
330
A73
100
AcDbEntity
  8
DimBracketWidth
100
AcDbText
 10
178.25
 20
127.5
 30
0
 40
3.5
  1
50
  7
STANDARD
 72
1
 11
178.25
 21
132.5
 31
0
100
AcDbText
  0
SOLID
  5
A79
330
A73
100
AcDbEntity
  8
0
 62
     0
100
AcDbTrace
 10
208.25
 20
132.083
 30
0
 11
208.25
 21
132.917
 31
0
 12
203.25
 22
132.5
 32
0
 13
203.25
 23
132.5
 33
0
  0
SOLID
  5
A7A
330
A73
100
AcDbEntity
  8
0
 62
     0
100
AcDbTrace
 10
148.25
 20
132.083
 30
0
 11
148.25
 21
132.917
 31
0
 12
153.25
 22
132.5
 32
0
 13
153.25
 23
132.5
 33
0
  0
ENDBLK
  5
A7B
330
A73
100
AcDbEntity
  8
DimBracketWidth
100
AcDbBlockEnd
  0
ENDSEC
  0
SECTION
  2
ENTITIES
  0
LINE
  5
A08
330
A02
100
AcDbEntity
  8
FRONT
100
AcDbLine
 10
133.250000000
 20
141.500000000
 30
0.000000000
 11
81.250000000
 21
141.500000000
 31
0.000000000
  0
ARC
  5
A09
330
A02
100
AcDbEntity
  8
FRONT
100
AcDbCircle
 10
81.250000000
 20
149.500000000
 30
0.000000000
 40
8.000000000
100
AcDbArc
 50
180.000000000
 51
-90.000000000
  0
SPLINE
  5
A0A
330
A02
100
AcDbEntity
  8
FRONT
100
AcDbSpline
210
0
220
0
230
1
 70
8
 71
1
 72
4
 73
2
 74
0
 40
0.000000000
 40
0.000000000
 40
0.004348002
 40
0.004348002
 10
73.250000000
 20
149.500000000
 30
0.000000000
 10
73.250104857
 20
149.459040179
 30
0.000000000
  0
LINE
  5
A0B
330
A02
100
AcDbEntity
  8
FRONT
100
AcDbLine
 10
133.250000000
 20
127.500000000
 30
0.000000000
 11
133.250000000
 21
141.500000000
 31
0.000000000
  0
LINE
  5
A0C
330
A02
100
AcDbEntity
  8
FRONT
100
AcDbLine
 10
73.250000000
 20
149.500000000
 30
0.000000000
 11
73.250000000
 21
207.500000000
 31
0.000000000
  0
LINE
  5
A0D
330
A02
100
AcDbEntity
  8
FRONT
100
AcDbLine
 10
73.250000000
 20
207.500000000
 30
0.000000000
 11
59.250000000
 21
207.500000000
 31
0.000000000
  0
LINE
  5
A0E
330
A02
100
AcDbEntity
  8
FRONT
100
AcDbLine
 10
59.250000000
 20
207.500000000
 30
0.000000000
 11
59.250000000
 21
127.500000000
 31
0.000000000
  0
LINE
  5
A0F
330
A02
100
AcDbEntity
  8
FRONT
100
AcDbLine
 10
59.250000000
 20
127.500000000
 30
0.000000000
 11
133.250000000
 21
127.500000000
 31
0.000000000
  0
LINE
  5
A10
330
A02
100
AcDbEntity
  8
RIGHT
100
AcDbLine
 10
203.250000000
 20
141.500000000
 30
0.000000000
 11
153.250000000
 21
141.500000000
 31
0.000000000
  0
SPLINE
  5
A11
330
A02
100
AcDbEntity
  8
RIGHT
100
AcDbSpline
210
0
220
0
230
1
 70
8
 71
1
 72
17
 73
15
 74
0
 40
0.000000000
 40
0.000000000
 40
0.112199738
 40
0.224399475
 40
0.336599213
 40
0.448798951
 40
0.560998688
 40
0.673198426
 40
0.785398163
 40
0.897597901
 40
1.009797639
 40
1.121997376
 40
1.234197114
 40
1.346396852
 40
1.458596589
 40
1.570796327
 40
1.570796327
 10
203.250000000
 20
141.500000000
 30
0.000000000
 10
203.250000000
 20
141.550302321
 30
0.000000000
 10
203.250000000
 20
141.700576703
 30
0.000000000
 10
203.250000000
 20
141.948933358
 30
0.000000000
 10
203.250000000
 20
142.292249057
 30
0.000000000
 10
203.250000000
 20
142.726206406
 30
0.000000000
 10
203.250000000
 20
143.245348140
 30
0.000000000
 10
203.250000000
 20
143.843145751
 30
0.000000000
 10
203.250000000
 20
144.512081585
 30
0.000000000
 10
203.250000000
 20
145.243743388
 30
0.000000000
 10
203.250000000
 20
146.028930087
 30
0.000000000
 10
203.250000000
 20
146.857767504
 30
0.000000000
 10
203.250000000
 20
147.719832528
 30
0.000000000
 10
203.250000000
 20
148.604284191
 30
0.000000000
 10
203.250000000
 20
149.500000000
 30
0.000000000
  0
LINE
  5
A12
330
A02
100
AcDbEntity
  8
RIGHT
100
AcDbLine
 10
203.250000000
 20
149.500000000
 30
0.000000000
 11
203.250000000
 21
207.500000000
 31
0.000000000
  0
LINE
  5
A13
330
A02
100
AcDbEntity
  8
RIGHT
100
AcDbLine
 10
203.250000000
 20
127.500000000
 30
0.000000000
 11
203.250000000
 21
141.500000000
 31
0.000000000
  0
SPLINE
  5
A14
330
A02
100
AcDbEntity
  8
RIGHT
100
AcDbSpline
210
0
220
0
230
1
 70
8
 71
1
 72
17
 73
15
 74
0
 40
0.000000000
 40
0.000000000
 40
0.112199738
 40
0.224399475
 40
0.336599213
 40
0.448798951
 40
0.560998688
 40
0.673198426
 40
0.785398163
 40
0.897597901
 40
1.009797639
 40
1.121997376
 40
1.234197114
 40
1.346396852
 40
1.458596589
 40
1.570796327
 40
1.570796327
 10
153.250000000
 20
141.500000000
 30
0.000000000
 10
153.250000000
 20
141.550302321
 30
0.000000000
 10
153.250000000
 20
141.700576703
 30
0.000000000
 10
153.250000000
 20
141.948933358
 30
0.000000000
 10
153.250000000
 20
142.292249057
 30
0.000000000
 10
153.250000000
 20
142.726206406
 30
0.000000000
 10
153.250000000
 20
143.245348140
 30
0.000000000
 10
153.250000000
 20
143.843145751
 30
0.000000000
 10
153.250000000
 20
144.512081585
 30
0.000000000
 10
153.250000000
 20
145.243743388
 30
0.000000000
 10
153.250000000
 20
146.028930087
 30
0.000000000
 10
153.250000000
 20
146.857767504
 30
0.000000000
 10
153.250000000
 20
147.719832528
 30
0.000000000
 10
153.250000000
 20
148.604284191
 30
0.000000000
 10
153.250000000
 20
149.500000000
 30
0.000000000
  0
SPLINE
  5
A15
330
A02
100
AcDbEntity
  8
RIGHT
100
AcDbSpline
210
0
220
0
230
1
 70
8
 71
3
 72
17
 73
13
 74
0
 40
0.000000000
 40
0.000000000
 40
0.000000000
 40
0.000000000
 40
0.230745618
 40
0.230745618
 40
0.230745618
 40
0.500054118
 40
0.500054118
 40
0.500054118
 40
0.769192709
 40
0.769192709
 40
0.769192709
 40
1.000000000
 40
1.000000000
 40
1.000000000
 40
1.000000000
 10
174.500000000
 20
149.500000000
 30
0.000000000
 10
174.891170704
 20
148.769805693
 30
0.000000000
 10
175.440926453
 20
148.236960765
 30
0.000000000
 10
176.031704683
 20
147.874856432
 30
0.000000000
 10
176.724678715
 20
147.452145269
 30
0.000000000
 10
177.488165035
 20
147.250831487
 30
0.000000000
 10
178.250000000
 20
147.250000000
 30
0.000000000
 10
179.011515834
 20
147.250857378
 30
0.000000000
 10
179.774499538
 20
147.451908297
 30
0.000000000
 10
180.467305234
 20
147.874250767
 30
0.000000000
 10
181.058467931
 20
148.236369761
 30
0.000000000
 10
181.608606859
 20
148.769396952
 30
0.000000000
 10
182.000000000
 20
149.500000000
 30
0.000000000
  0
LINE
  5
A16
330
A02
100
AcDbEntity
  8
RIGHT
100
AcDbLine
 10
203.250000000
 20
127.500000000
 30
0.000000000
 11
153.250000000
 21
127.500000000
 31
0.000000000
  0
LINE
  5
A17
330
A02
100
AcDbEntity
  8
RIGHT
100
AcDbLine
 10
153.250000000
 20
127.500000000
 30
0.000000000
 11
153.250000000
 21
141.500000000
 31
0.000000000
  0
LINE
  5
A18
330
A02
100
AcDbEntity
  8
RIGHT
100
AcDbLine
 10
153.250000000
 20
149.500000000
 30
0.000000000
 11
153.250000000
 21
207.500000000
 31
0.000000000
  0
ARC
  5
A19
330
A02
100
AcDbEntity
  8
RIGHT
100
AcDbCircle
 10
178.250000000
 20
151.500000000
 30
0.000000000
 40
4.250000000
100
AcDbArc
 50
-28.072486936
 51
0.000000000
  0
ARC
  5
A1A
330
A02
100
AcDbEntity
  8
RIGHT
100
AcDbCircle
 10
178.250000000
 20
151.500000000
 30
0.000000000
 40
4.250000000
100
AcDbArc
 50
0.000000000
 51
-151.927513064
  0
LINE
  5
A1B
330
A02
100
AcDbEntity
  8
RIGHT
100
AcDbLine
 10
203.250000000
 20
207.500000000
 30
0.000000000
 11
153.250000000
 21
207.500000000
 31
0.000000000
  0
CIRCLE
  5
A1C
330
A02
100
AcDbEntity
  8
RIGHT
100
AcDbCircle
 10
178.250000000
 20
191.500000000
 30
0.000000000
 40
4.250000000
  0
LINE
  5
A1D
330
A02
100
AcDbEntity
  8
RIGHT
100
AcDbLine
 10
174.500000000
 20
149.500000000
 30
0.000000000
 11
153.250000000
 21
149.500000000
 31
0.000000000
  0
LINE
  5
A1E
330
A02
100
AcDbEntity
  8
RIGHT
100
AcDbLine
 10
203.250000000
 20
149.500000000
 30
0.000000000
 11
182.000000000
 21
149.500000000
 31
0.000000000
  0
LINE
  5
A1F
330
A02
100
AcDbEntity
  8
TOP
100
AcDbLine
 10
133.250000000
 20
277.500000000
 30
0.000000000
 11
81.250000000
 21
277.500000000
 31
0.000000000
  0
LINE
  5
A20
330
A02
100
AcDbEntity
  8
TOP
100
AcDbLine
 10
133.250000000
 20
277.500000000
 30
0.000000000
 11
133.250000000
 21
227.500000000
 31
0.000000000
  0
LINE
  5
A21
330
A02
100
AcDbEntity
  8
TOP
100
AcDbLine
 10
133.250000000
 20
227.500000000
 30
0.000000000
 11
81.250000000
 21
227.500000000
 31
0.000000000
  0
SPLINE
  5
A22
330
A02
100
AcDbEntity
  8
TOP
100
AcDbSpline
210
0
220
0
230
1
 70
8
 71
1
 72
17
 73
15
 74
0
 40
0.000000000
 40
0.000000000
 40
0.112199738
 40
0.224399475
 40
0.336599213
 40
0.448798951
 40
0.560998688
 40
0.673198426
 40
0.785398163
 40
0.897597901
 40
1.009797639
 40
1.121997376
 40
1.234197114
 40
1.346396852
 40
1.458596589
 40
1.570796327
 40
1.570796327
 10
81.250000000
 20
277.500000000
 30
0.000000000
 10
80.354284191
 20
277.500000000
 30
0.000000000
 10
79.469832528
 20
277.500000000
 30
0.000000000
 10
78.607767504
 20
277.500000000
 30
0.000000000
 10
77.778930087
 20
277.500000000
 30
0.000000000
 10
76.993743388
 20
277.500000000
 30
0.000000000
 10
76.262081585
 20
277.500000000
 30
0.000000000
 10
75.593145751
 20
277.500000000
 30
0.000000000
 10
74.995348140
 20
277.500000000
 30
0.000000000
 10
74.476206406
 20
277.500000000
 30
0.000000000
 10
74.042249057
 20
277.500000000
 30
0.000000000
 10
73.698933358
 20
277.500000000
 30
0.000000000
 10
73.450576703
 20
277.500000000
 30
0.000000000
 10
73.300302321
 20
277.500000000
 30
0.000000000
 10
73.250000000
 20
277.500000000
 30
0.000000000
  0
LINE
  5
A23
330
A02
100
AcDbEntity
  8
TOP
100
AcDbLine
 10
73.250000000
 20
277.500000000
 30
0.000000000
 11
59.250000000
 21
277.500000000
 31
0.000000000
  0
SPLINE
  5
A24
330
A02
100
AcDbEntity
  8
TOP
100
AcDbSpline
210
0
220
0
230
1
 70
8
 71
1
 72
17
 73
15
 74
0
 40
0.000000000
 40
0.000000000
 40
0.112199738
 40
0.224399475
 40
0.336599213
 40
0.448798951
 40
0.560998688
 40
0.673198426
 40
0.785398163
 40
0.897597901
 40
1.009797639
 40
1.121997376
 40
1.234197114
 40
1.346396852
 40
1.458596589
 40
1.570796327
 40
1.570796327
 10
81.250000000
 20
227.500000000
 30
0.000000000
 10
80.354284191
 20
227.500000000
 30
0.000000000
 10
79.469832528
 20
227.500000000
 30
0.000000000
 10
78.607767504
 20
227.500000000
 30
0.000000000
 10
77.778930087
 20
227.500000000
 30
0.000000000
 10
76.993743388
 20
227.500000000
 30
0.000000000
 10
76.262081585
 20
227.500000000
 30
0.000000000
 10
75.593145751
 20
227.500000000
 30
0.000000000
 10
74.995348140
 20
227.500000000
 30
0.000000000
 10
74.476206406
 20
227.500000000
 30
0.000000000
 10
74.042249057
 20
227.500000000
 30
0.000000000
 10
73.698933358
 20
227.500000000
 30
0.000000000
 10
73.450576703
 20
227.500000000
 30
0.000000000
 10
73.300302321
 20
227.500000000
 30
0.000000000
 10
73.250000000
 20
227.500000000
 30
0.000000000
  0
SPLINE
  5
A25
330
A02
100
AcDbEntity
  8
TOP
100
AcDbSpline
210
0
220
0
230
1
 70
8
 71
3
 72
17
 73
13
 74
0
 40
0.000000000
 40
0.000000000
 40
0.000000000
 40
0.000000000
 40
0.230745618
 40
0.230745618
 40
0.230745618
 40
0.500054118
 40
0.500054118
 40
0.500054118
 40
0.769192709
 40
0.769192709
 40
0.769192709
 40
1.000000000
 40
1.000000000
 40
1.000000000
 40
1.000000000
 10
73.250000000
 20
248.750000000
 30
0.000000000
 10
73.251773593
 20
249.141170704
 30
0.000000000
 10
73.343222218
 20
249.690926453
 30
0.000000000
 10
73.416807268
 20
250.281704683
 30
0.000000000
 10
73.506488035
 20
250.974678715
 30
0.000000000
 10
73.574661919
 20
251.738165035
 30
0.000000000
 10
73.572923734
 20
252.500000000
 30
0.000000000
 10
73.574651984
 20
253.261515834
 30
0.000000000
 10
73.506568869
 20
254.024499538
 30
0.000000000
 10
73.416932949
 20
254.717305234
 30
0.000000000
 10
73.343318998
 20
255.308467931
 30
0.000000000
 10
73.251777558
 20
255.858606859
 30
0.000000000
 10
73.250000000
 20
256.250000000
 30
0.000000000
  0
LINE
  5
A26
330
A02
100
AcDbEntity
  8
TOP
100
AcDbLine
 10
73.250000000
 20
227.500000000
 30
0.000000000
 11
59.250000000
 21
227.500000000
 31
0.000000000
  0
LINE
  5
A27
330
A02
100
AcDbEntity
  8
TOP
100
AcDbLine
 10
73.250000000
 20
277.500000000
 30
0.000000000
 11
73.250000000
 21
227.500000000
 31
0.000000000
  0
LINE
  5
A28
330
A02
100
AcDbEntity
  8
TOP
100
AcDbLine
 10
59.250000000
 20
277.500000000
 30
0.000000000
 11
59.250000000
 21
227.500000000
 31
0.000000000
  0
LINE
  5
A29
330
A02
100
AcDbEntity
  8
TOP
100
AcDbLine
 10
81.250000000
 20
277.500000000
 30
0.000000000
 11
81.250000000
 21
227.500000000
 31
0.000000000
  0
LINE
  5
A2A
330
A02
100
AcDbEntity
  8
ISOMETRIC
100
AcDbLine
 10
350.090620434
 20
151.372109410
 30
0.000000000
 11
313.321067812
 21
172.601020514
 31
0.000000000
  0
LINE
  5
A2B
330
A02
100
AcDbEntity
  8
ISOMETRIC
100
AcDbLine
 10
350.090620434
 20
151.372109410
 30
0.000000000
 11
314.735281374
 21
130.959694887
 31
0.000000000
  0
LINE
  5
A2C
330
A02
100
AcDbEntity
  8
ISOMETRIC
100
AcDbLine
 10
314.735281374
 20
130.959694887
 30
0.000000000
 11
277.965728753
 21
152.188605991
 31
0.000000000
  0
ELLIPSE
  5
A2D
330
A02
100
AcDbEntity
  8
ISOMETRIC
100
AcDbEllipse
 10
313.321067812
 20
179.132993162
 30
0.000000000
 11
4.000000000
 21
-6.928203230
 31
0.000000000
 40
0.577350269
 41
-2.356194490
 42
-0.785398163
  0
LINE
  5
A2E
330
A02
100
AcDbEntity
  8
ISOMETRIC
100
AcDbLine
 10
307.664213562
 20
182.398979486
 30
0.000000000
 11
307.664213562
 21
229.755781179
 31
0.000000000
  0
LINE
  5
A2F
330
A02
100
AcDbEntity
  8
ISOMETRIC
100
AcDbLine
 10
307.664213562
 20
229.755781179
 30
0.000000000
 11
297.764718626
 21
235.471257246
 31
0.000000000
  0
LINE
  5
A30
330
A02
100
AcDbEntity
  8
ISOMETRIC
100
AcDbLine
 10
350.090620434
 20
139.941157277
 30
0.000000000
 11
350.090620434
 21
151.372109410
 31
0.000000000
  0
ELLIPSE
  5
A31
330
A02
100
AcDbEntity
  8
ISOMETRIC
100
AcDbEllipse
 10
277.965728753
 20
158.720578639
 30
0.000000000
 11
4.000000000
 21
-6.928203230
 31
0.000000000
 40
0.577350269
 41
-2.356194490
 42
-0.785398163
  0
SPLINE
  5
A32
330
A02
100
AcDbEntity
  8
ISOMETRIC
100
AcDbSpline
210
0
220
0
230
1
 70
8
 71
3
 72
8
 73
4
 74
0
 40
0.000000000
 40
0.000000000
 40
0.000000000
 40
0.000000000
 40
0.123224755
 40
0.123224755
 40
0.123224755
 40
0.123224755
 10
287.334893603
 20
170.661841135
 30
0.000000000
 10
287.481709694
 20
170.428889172
 30
0.000000000
 10
287.682631981
 20
170.248430895
 30
0.000000000
 10
287.906377022
 20
170.119273083
 30
0.000000000
  0
SPLINE
  5
A33
330
A02
100
AcDbEntity
  8
ISOMETRIC
100
AcDbSpline
210
0
220
0
230
1
 70
8
 71
3
 72
17
 73
13
 74
0
 40
0.123224755
 40
0.123224755
 40
0.123224755
 40
0.123224755
 40
0.283617885
 40
0.283617885
 40
0.283617885
 40
0.500054118
 40
0.500054118
 40
0.500054118
 40
0.769192709
 40
0.769192709
 40
0.769192709
 40
1.000000000
 40
1.000000000
 40
1.000000000
 40
1.000000000
 10
287.906377022
 20
170.119273083
 30
0.000000000
 10
288.198532214
 20
169.950965323
 30
0.000000000
 10
288.529467002
 20
169.867398679
 30
0.000000000
 10
288.865033080
 20
169.858930161
 30
0.000000000
 10
289.319153574
 20
169.847708047
 30
0.000000000
 10
289.782305829
 20
169.973749237
 30
0.000000000
 10
290.214885595
 20
170.223821855
 30
0.000000000
 10
290.754580662
 20
170.534703883
 30
0.000000000
 10
291.245949581
 20
171.038142879
 30
0.000000000
 10
291.672455020
 20
171.702414514
 30
0.000000000
 10
292.038417248
 20
172.269477365
 30
0.000000000
 10
292.362694642
 20
172.966657157
 30
0.000000000
 10
292.638194462
 20
173.723703313
 30
0.000000000
  0
LINE
  5
A34
330
A02
100
AcDbEntity
  8
ISOMETRIC
100
AcDbLine
 10
350.090620434
 20
139.941157277
 30
0.000000000
 11
314.735281374
 21
119.528742754
 31
0.000000000
  0
LINE
  5
A35
330
A02
100
AcDbEntity
  8
ISOMETRIC
100
AcDbLine
 10
314.735281374
 20
119.528742754
 30
0.000000000
 11
314.735281374
 21
130.959694887
 31
0.000000000
  0
LINE
  5
A36
330
A02
100
AcDbEntity
  8
ISOMETRIC
100
AcDbLine
 10
272.308874503
 20
161.986564962
 30
0.000000000
 11
272.308874503
 21
209.343366656
 31
0.000000000
  0
LINE
  5
A37
330
A02
100
AcDbEntity
  8
ISOMETRIC
100
AcDbLine
 10
272.308874503
 20
209.343366656
 30
0.000000000
 11
262.409379566
 21
215.058842723
 31
0.000000000
  0
LINE
  5
A38
330
A02
100
AcDbEntity
  8
ISOMETRIC
100
AcDbLine
 10
262.409379566
 20
215.058842723
 30
0.000000000
 11
262.409379566
 21
149.739116248
 31
0.000000000
  0
LINE
  5
A39
330
A02
100
AcDbEntity
  8
ISOMETRIC
100
AcDbLine
 10
262.409379566
 20
149.739116248
 30
0.000000000
 11
314.735281374
 21
119.528742754
 31
0.000000000
  0
ELLIPSE
  5
A3A
330
A02
100
AcDbEntity
  8
ISOMETRIC
100
AcDbEllipse
 10
289.986544033
 20
173.825765386
 30
0.000000000
 11
2.125000000
 21
3.680607966
 31
0.000000000
 40
0.577350269
 41
-1.275355490
 42
-0.785398163
  0
ELLIPSE
  5
A3B
330
A02
100
AcDbEntity
  8
ISOMETRIC
100
AcDbEllipse
 10
289.986544033
 20
173.825765386
 30
0.000000000
 11
2.125000000
 21
3.680607966
 31
0.000000000
 40
0.577350269
 41
-0.000000000
 42
-3.437033491
  0
ELLIPSE
  5
A3C
330
A02
100
AcDbEntity
  8
ISOMETRIC
100
AcDbEllipse
 10
289.986544033
 20
173.825765386
 30
0.000000000
 11
2.125000000
 21
3.680607966
 31
0.000000000
 40
0.577350269
 41
-0.785398163
 42
-0.000000000
  0
LINE
  5
A3D
330
A02
100
AcDbEntity
  8
ISOMETRIC
100
AcDbLine
 10
307.664213562
 20
229.755781179
 30
0.000000000
 11
272.308874503
 21
209.343366656
 31
0.000000000
  0
ELLIPSE
  5
A3E
330
A02
100
AcDbEntity
  8
ISOMETRIC
100
AcDbEllipse
 10
289.986544033
 20
206.485628623
 30
0.000000000
 11
2.125000000
 21
3.680607966
 31
0.000000000
 40
0.577350269
 41
-3.141592654
 42
-0.785398163
  0
ELLIPSE
  5
A3F
330
A02
100
AcDbEntity
  8
ISOMETRIC
100
AcDbEllipse
 10
289.986544033
 20
206.485628623
 30
0.000000000
 11
2.125000000
 21
3.680607966
 31
0.000000000
 40
0.577350269
 41
-0.000000000
 42
-3.141592654
  0
ELLIPSE
  5
A40
330
A02
100
AcDbEntity
  8
ISOMETRIC
100
AcDbEllipse
 10
289.986544033
 20
206.485628623
 30
0.000000000
 11
2.125000000
 21
3.680607966
 31
0.000000000
 40
0.577350269
 41
-0.785398163
 42
-0.000000000
  0
LINE
  5
A41
330
A02
100
AcDbEntity
  8
ISOMETRIC
100
AcDbLine
 10
297.764718626
 20
235.471257246
 30
0.000000000
 11
262.409379566
 21
215.058842723
 31
0.000000000
  0
LINE
  5
A42
330
A02
100
AcDbEntity
  8
ISOMETRIC
100
AcDbLine
 10
313.321067812
 20
172.601020514
 30
0.000000000
 11
277.965728753
 21
152.188605991
 31
0.000000000
  0
LINE
  5
A43
330
A02
100
AcDbEntity
  8
ISOMETRIC
100
AcDbLine
 10
287.334893603
 20
170.661841135
 30
0.000000000
 11
272.308874503
 21
161.986564962
 31
0.000000000
  0
LINE
  5
A44
330
A02
100
AcDbEntity
  8
ISOMETRIC
100
AcDbLine
 10
307.664213562
 20
182.398979486
 30
0.000000000
 11
292.638194462
 21
173.723703313
 31
0.000000000
  0
DIMENSION
  5
A45
330
A02
100
AcDbEntity
  8
DimHeight
100
AcDbDimension
  2
*DimHeight
 10
51.250000000
 20
167.500000000
 30
0.000000000
 11
46.250000000
 21
167.500000000
 31
0.000000000
 70
32
  1
80
  3
STANDARD
100
AcDbAlignedDimension
 13
59.250000000
 23
207.500000000
 33
0.000000000
 14
59.250000000
 24
127.500000000
 34
0.000000000
 50
90
100
AcDbRotatedDimension
  0
DIMENSION
  5
A4F
330
A02
100
AcDbEntity
  8
DimWidth
100
AcDbDimension
  2
*DimWidth
 10
96.250000000
 20
112.500000000
 30
0.000000000
 11
96.250000000
 21
117.500000000
 31
0.000000000
 70
32
  1
74
  3
STANDARD
100
AcDbAlignedDimension
 13
59.250000000
 23
127.500000000
 33
0.000000000
 14
133.250000000
 24
127.500000000
 34
0.000000000
100
AcDbRotatedDimension
  0
DIMENSION
  5
A59
330
A02
100
AcDbEntity
  8
DimThickness
100
AcDbDimension
  2
*DimThickness
 10
116.250000000
 20
152.500000000
 30
0.000000000
 11
121.250000000
 21
152.500000000
 31
0.000000000
 70
1
  1
14
  3
STANDARD
100
AcDbAlignedDimension
 13
133.250000000
 23
127.500000000
 33
0.000000000
 14
133.250000000
 24
141.500000000
 34
0.000000000
  0
DIMENSION
  5
A63
330
A02
100
AcDbEntity
  8
DimFillet
100
AcDbDimension
  2
*DimFillet
 10
81.250000000
 20
149.500000000
 30
0.000000000
 11
81.250000000
 21
182.500000000
 31
0.000000000
 70
4
  1
R8
  3
STANDARD
100
AcDbRadialDimension
 15
79.334848485
 25
141.732619832
 35
0.000000000
 40
0
  0
DIMENSION
  5
A6A
330
A02
100
AcDbEntity
  8
DimHoleDia
100
AcDbDimension
  2
*DimHoleDia
 10
182.277363567
 20
190.142486575
 30
0.000000000
 11
213.250000000
 21
187.500000000
 31
0.000000000
 70
3
  1
2X ⌀8.5 H9
  3
STANDARD
100
AcDbDiametricDimension
 15
174.222636433
 25
192.857513425
 35
0.000000000
 40
0
  0
DIMENSION
  5
A72
330
A02
100
AcDbEntity
  8
DimBracketWidth
100
AcDbDimension
  2
*DimBracketWidth
 10
178.250000000
 20
132.500000000
 30
0.000000000
 11
178.250000000
 21
127.500000000
 31
0.000000000
 70
32
  1
50
  3
STANDARD
100
AcDbAlignedDimension
 13
203.250000000
 23
141.500000000
 33
0.000000000
 14
153.250000000
 24
141.500000000
 34
0.000000000
100
AcDbRotatedDimension
  0
ENDSEC
  0
SECTION
  2
OBJECTS
  0
DICTIONARY
  5
F000
330
0
100
AcDbDictionary
  3
ACAD_GROUP
350
F001
  0
DICTIONARY
  5
F001
330
F000
100
AcDbDictionary
  0
ENDSEC
  0
EOF