<?xml version='1.0' encoding='UTF-8'?>
<svg xmlns="http://www.w3.org/2000/svg" xmlns:ns1="http://www.inkscape.org/namespaces/inkscape" baseProfile="tiny" height="297mm" version="1.2" viewBox="0 0 4200 2970" width="420mm">
 <title>FreeCAD SVG Export</title>
 <desc>Drawing page: Page exported from FreeCAD document: bracket</desc>
 <defs />
 <g id="Page" ns1:groupmode="layer" ns1:label="TechDraw">
  <g fill="none" fill-rule="evenodd" id="DrawingContent" stroke="black" stroke-linecap="square" stroke-linejoin="bevel" stroke-width="1">
   <g fill="#ffffff" fill-opacity="1" font-family="Sans Serif" font-size="31.75" font-style="normal" font-weight="400" stroke="none" transform="matrix(1,0,0,1,962.5,1295)">
    <path d="M325,400 L325,350 L-195,350 C-239.183,350 -275,314.183 -275,270 L-275,-400 L-325,-400 L-325,400 L325,400" fill-rule="evenodd" vector-effect="non-scaling-stroke" />
   </g>
   <g fill="none" font-family="Sans Serif" font-size="31.75" font-style="normal" font-weight="400" stroke="#000000" stroke-linecap="round" stroke-linejoin="bevel" stroke-opacity="1" stroke-width="7" transform="matrix(1,0,0,1,962.5,1295)">
    <path d="M325,350 L-195,350" fill-rule="evenodd" vector-effect="none" />
   </g>
   <g fill="none" font-family="Sans Serif" font-size="31.75" font-style="normal" font-weight="400" stroke="#000000" stroke-linecap="round" stroke-linejoin="bevel" stroke-opacity="1" stroke-width="7" transform="matrix(1,0,0,1,962.5,1295)">
    <path d="M-195,350 C-239.183,350 -275,314.183 -275,270 " fill-rule="evenodd" vector-effect="none" />
   </g>
   <g fill="none" font-family="Sans Serif" font-size="31.75" font-style="normal" font-weight="400" stroke="#000000" stroke-linecap="round" stroke-linejoin="bevel" stroke-opacity="1" stroke-width="7" transform="matrix(1,0,0,1,962.5,1295)">
    <path d="M325,400 L325,350" fill-rule="evenodd" vector-effect="none" />
   </g>
   <g fill="none" font-family="Sans Serif" font-size="31.75" font-style="normal" font-weight="400" stroke="#000000" stroke-linecap="round" stroke-linejoin="bevel" stroke-opacity="1" stroke-width="7" transform="matrix(1,0,0,1,962.5,1295)">
    <path d="M-275,270 L-275,-400" fill-rule="evenodd" vector-effect="none" />
   </g>
   <g fill="none" font-family="Sans Serif" font-size="31.75" font-style="normal" font-weight="400" stroke="#000000" stroke-linecap="round" stroke-linejoin="bevel" stroke-opacity="1" stroke-width="7" transform="matrix(1,0,0,1,962.5,1295)">
    <path d="M-275,-400 L-325,-400" fill-rule="evenodd" vector-effect="none" />
   </g>
   <g fill="none" font-family="Sans Serif" font-size="31.75" font-style="normal" font-weight="400" stroke="#000000" stroke-linecap="round" stroke-linejoin="bevel" stroke-opacity="1" stroke-width="7" transform="matrix(1,0,0,1,962.5,1295)">
    <path d="M-325,-400 L-325,400" fill-rule="evenodd" vector-effect="none" />
   </g>
   <g fill="none" font-family="Sans Serif" font-size="31.75" font-style="normal" font-weight="400" stroke="#000000" stroke-linecap="round" stroke-linejoin="bevel" stroke-opacity="1" stroke-width="7" transform="matrix(1,0,0,1,962.5,1295)">
    <path d="M-325,400 L325,400" fill-rule="evenodd" vector-effect="none" />
   </g>
   <g fill="none" font-family="Sans Serif" font-size="31.75" font-style="normal" font-weight="400" stroke="#000000" stroke-linecap="square" stroke-linejoin="bevel" stroke-opacity="1" stroke-width="1" transform="matrix(0,-1,1,0,414.5,1337.2)">
    <text fill="#000000" fill-opacity="1" font-family="osifont" font-size="67" font-style="normal" font-weight="400" stroke="none" x="4" xml:space="preserve" y="92.2188">80</text>
   </g>
   <g fill="none" font-family="Sans Serif" font-size="31.75" font-style="normal" font-weight="400" stroke="#000000" stroke-linecap="round" stroke-linejoin="bevel" stroke-opacity="1" stroke-width="3.5" transform="matrix(1,0,0,1,962.5,1295)">
    <path d="M-421,-400 L-421,400 M-325,400 L-449,400 M-325,-400 L-449,-400" fill-rule="evenodd" vector-effect="none" />
   </g>
   <g fill="#000000" fill-opacity="1" font-family="Sans Serif" font-size="31.75" font-style="normal" font-weight="400" stroke="#000000" stroke-linecap="round" stroke-linejoin="bevel" stroke-opacity="1" stroke-width="3.5" transform="matrix(1,0,0,1,541.5,1695)">
    <path d="M0,0 L5.83333,-35 L-5.83333,-35 L0,0" fill-rule="evenodd" vector-effect="none" />
   </g>
   <g fill="#000000" fill-opacity="1" font-family="Sans Serif" font-size="31.75" font-style="normal" font-weight="400" stroke="#000000" stroke-linecap="round" stroke-linejoin="bevel" stroke-opacity="1" stroke-width="3.5" transform="matrix(1,0,0,1,541.5,895)">
    <path d="M0,0 L-5.83333,35 L5.83333,35 L0,0" fill-rule="evenodd" vector-effect="none" />
   </g>
   <g fill="none" font-family="Sans Serif" font-size="31.75" font-style="normal" font-weight="400" stroke="#000000" stroke-linecap="square" stroke-linejoin="bevel" stroke-opacity="1" stroke-width="1" transform="matrix(0.290614,-0.95684,0.95684,0.290614,753.458,1174.23)">
    <text fill="#000000" fill-opacity="1" font-family="osifont" font-size="67" font-style="normal" font-weight="400" stroke="none" x="4" xml:space="preserve" y="92.2188">R8</text>
   </g>
   <g fill="none" font-family="Sans Serif" font-size="31.75" font-style="normal" font-weight="400" stroke="#000000" stroke-linecap="round" stroke-linejoin="bevel" stroke-opacity="1" stroke-width="3.5" transform="matrix(1,0,0,1,962.5,1295)">
    <path d="M-60.2791,-173.566 L-238.592,413.526" fill-rule="evenodd" vector-effect="none" />
   </g>
   <g fill="#000000" fill-opacity="1" font-family="Sans Serif" font-size="31.75" font-style="normal" font-weight="400" stroke="#000000" stroke-linecap="round" stroke-linejoin="bevel" stroke-opacity="1" stroke-width="3.5" transform="matrix(1,0,0,1,744.251,1641.55)">
    <path d="M0,0 L-15.7531,31.7942 L-4.58992,35.1847 L0,0" fill-rule="evenodd" vector-effect="none" />
   </g>
   <g fill="#ffffff" fill-opacity="1" font-family="Sans Serif" font-size="31.75" font-style="normal" font-weight="400" stroke="none" transform="matrix(1,0,0,1,1737.5,1295)">
    <path d="M250,400 L250,350 L250,270 L250,-400 L-250,-400 L-250,270 L-250,350 L-250,400 L250,400" fill-rule="evenodd" vector-effect="non-scaling-stroke" />
   </g>
   <g fill="#ffffff" fill-opacity="1" font-family="Sans Serif" font-size="31.75" font-style="normal" font-weight="400" stroke="none" transform="matrix(1,0,0,1,1737.5,1295)">
    <path d="M250,270 L250,-400 L-250,-400 L-250,270 L-37.5,270 C-45.8258,254.389 -43.6096,235.253 -31.9361,221.958 C-20.2625,208.664 -1.57377,203.991 14.9828,210.229 C31.5393,216.466 42.5,232.308 42.5,250 C42.5,256.976 40.7828,263.845 37.5,270 L250,270" fill-rule="evenodd" vector-effect="non-scaling-stroke" />
   </g>
   <g fill="#ffffff" fill-opacity="1" font-family="Sans Serif" font-size="31.75" font-style="normal" font-weight="400" stroke="none" transform="matrix(1,0,0,1,1737.5,1295)">
    <path d="M250,350 L250,270 L37.5,270 C30.1138,283.849 15.6958,292.5 2.60237e-15,292.5 C-15.6958,292.5 -30.1138,283.849 -37.5,270 L-250,270 L-250,350 L250,350" fill-rule="evenodd" vector-effect="non-scaling-stroke" />
   </g>
   <g fill="#ffffff" fill-opacity="1" font-family="Sans Serif" font-size="31.75" font-style="normal" font-weight="400" stroke="none" transform="matrix(1,0,0,1,1737.5,1295)">
    <path d="M250,400 L250,350 L-250,350 L-250,400 L250,400" fill-rule="evenodd" vector-effect="non-scaling-stroke" />
   </g>
   <g fill="#ffffff" fill-opacity="1" font-family="Sans Serif" font-size="31.75" font-style="normal" font-weight="400" stroke="none" transform="matrix(1,0,0,1,1737.5,1295)">
    <path d="M-37.5,270 C-45.8258,254.389 -43.6096,235.253 -31.9361,221.958 C-20.2625,208.664 -1.57377,203.991 14.9828,210.229 C31.5393,216.466 42.5,232.308 42.5,250 C42.5,256.976 40.7828,263.845 37.5,270 C30.1138,283.849 15.6958,292.5 2.60237e-15,292.5 C-15.6958,292.5 -30.1138,283.849 -37.5,270 " fill-rule="evenodd" vector-effect="non-scaling-stroke" />
   </g>
   <g fill="#ffffff" fill-opacity="1" font-family="Sans Serif" font-size="31.75" font-style="normal" font-weight="400" stroke="none" transform="matrix(1,0,0,1,1737.5,1295)">
    <path d="M42.5,-250 C42.5,-226.528 23.4721,-207.5 0,-207.5 C-23.4721,-207.5 -42.5,-226.528 -42.5,-250 C-42.5,-273.472 -23.4721,-292.5 0,-292.5 C23.4721,-292.5 42.5,-273.472 42.5,-250 " fill-rule="evenodd" vector-effect="non-scaling-stroke" />
   </g>
   <g fill="none" font-family="Sans Serif" font-size="31.75" font-style="normal" font-weight="400" stroke="#000000" stroke-linecap="round" stroke-linejoin="bevel" stroke-opacity="1" stroke-width="7" transform="matrix(1,0,0,1,1737.5,1295)">
    <path d="M250,350 L-250,350" fill-rule="evenodd" vector-effect="none" />
   </g>
   <g fill="none" font-family="Sans Serif" font-size="31.75" font-style="normal" font-weight="400" stroke="#000000" stroke-linecap="round" stroke-linejoin="bevel" stroke-opacity="1" stroke-width="7" transform="matrix(1,0,0,1,1737.5,1295)">
    <path d="M250,350 L250,270" fill-rule="evenodd" vector-effect="none" />
   </g>
   <g fill="none" font-family="Sans Serif" font-size="31.75" font-style="normal" font-weight="400" stroke="#000000" stroke-linecap="round" stroke-linejoin="bevel" stroke-opacity="1" stroke-width="7" transform="matrix(1,0,0,1,1737.5,1295)">
    <path d="M250,270 L250,-400" fill-rule="evenodd" vector-effect="none" />
   </g>
   <g fill="none" font-family="Sans Serif" font-size="31.75" font-style="normal" font-weight="400" stroke="#000000" stroke-linecap="round" stroke-linejoin="bevel" stroke-opacity="1" stroke-width="7" transform="matrix(1,0,0,1,1737.5,1295)">
    <path d="M250,400 L250,350" fill-rule="evenodd" vector-effect="none" />
   </g>
   <g fill="none" font-family="Sans Serif" font-size="31.75" font-style="normal" font-weight="400" stroke="#000000" stroke-linecap="round" stroke-linejoin="bevel" stroke-opacity="1" stroke-width="7" transform="matrix(1,0,0,1,1737.5,1295)">
    <path d="M-250,350 L-250,270" fill-rule="evenodd" vector-effect="none" />
   </g>
   <g fill="none" font-family="Sans Serif" font-size="31.75" font-style="normal" font-weight="400" stroke="#000000" stroke-linecap="round" stroke-linejoin="bevel" stroke-opacity="1" stroke-width="7" transform="matrix(1,0,0,1,1737.5,1295)">
    <path d="M-37.5,270 C-30.1138,283.849 -15.6958,292.5 -6.83452e-15,292.5 C15.6958,292.5 30.1138,283.849 37.5,270 " fill-rule="evenodd" vector-effect="none" />
   </g>
   <g fill="none" font-family="Sans Serif" font-size="31.75" font-style="normal" font-weight="400" stroke="#000000" stroke-linecap="round" stroke-linejoin="bevel" stroke-opacity="1" stroke-width="7" transform="matrix(1,0,0,1,1737.5,1295)">
    <path d="M250,400 L-250,400" fill-rule="evenodd" vector-effect="none" />
   </g>
   <g fill="none" font-family="Sans Serif" font-size="31.75" font-style="normal" font-weight="400" stroke="#000000" stroke-linecap="round" stroke-linejoin="bevel" stroke-opacity="1" stroke-width="7" transform="matrix(1,0,0,1,1737.5,1295)">
    <path d="M-250,400 L-250,350" fill-rule="evenodd" vector-effect="none" />
   </g>
   <g fill="none" font-family="Sans Serif" font-size="31.75" font-style="normal" font-weight="400" stroke="#000000" stroke-linecap="round" stroke-linejoin="bevel" stroke-opacity="1" stroke-width="7" transform="matrix(1,0,0,1,1737.5,1295)">
    <path d="M-250,270 L-250,-400" fill-rule="evenodd" vector-effect="none" />
   </g>
   <g fill="none" font-family="Sans Serif" font-size="31.75" font-style="normal" font-weight="400" stroke="#000000" stroke-linecap="round" stroke-linejoin="bevel" stroke-opacity="1" stroke-width="7" transform="matrix(1,0,0,1,1737.5,1295)">
    <path d="M42.5,250 C42.5,256.976 40.7828,263.845 37.5,270 " fill-rule="evenodd" vector-effect="none" />
   </g>
   <g fill="none" font-family="Sans Serif" font-size="31.75" font-style="normal" font-weight="400" stroke="#000000" stroke-linecap="round" stroke-linejoin="bevel" stroke-opacity="1" stroke-width="7" transform="matrix(1,0,0,1,1737.5,1295)">
    <path d="M-37.5,270 C-45.8258,254.389 -43.6096,235.253 -31.9361,221.958 C-20.2625,208.664 -1.57377,203.991 14.9828,210.229 C31.5393,216.466 42.5,232.308 42.5,250 " fill-rule="evenodd" vector-effect="none" />
   </g>
   <g fill="none" font-family="Sans Serif" font-size="31.75" font-style="normal" font-weight="400" stroke="#000000" stroke-linecap="round" stroke-linejoin="bevel" stroke-opacity="1" stroke-width="7" transform="matrix(1,0,0,1,1737.5,1295)">
    <path d="M250,-400 L-250,-400" fill-rule="evenodd" vector-effect="none" />
   </g>
   <g fill="none" font-family="Sans Serif" font-size="31.75" font-style="normal" font-weight="400" stroke="#000000" stroke-linecap="round" stroke-linejoin="bevel" stroke-opacity="1" stroke-width="7" transform="matrix(1,0,0,1,1737.5,1295)">
    <path d="M42.5,-250 C42.5,-226.528 23.4721,-207.5 0,-207.5 C-23.4721,-207.5 -42.5,-226.528 -42.5,-250 C-42.5,-273.472 -23.4721,-292.5 0,-292.5 C23.4721,-292.5 42.5,-273.472 42.5,-250 " fill-rule="evenodd" vector-effect="none" />
   </g>
   <g fill="none" font-family="Sans Serif" font-size="31.75" font-style="normal" font-weight="400" stroke="#000000" stroke-linecap="round" stroke-linejoin="bevel" stroke-opacity="1" stroke-width="7" transform="matrix(1,0,0,1,1737.5,1295)">
    <path d="M-37.5,270 L-250,270" fill-rule="evenodd" vector-effect="none" />
   </g>
   <g fill="none" font-family="Sans Serif" font-size="31.75" font-style="normal" font-weight="400" stroke="#000000" stroke-linecap="round" stroke-linejoin="bevel" stroke-opacity="1" stroke-width="7" transform="matrix(1,0,0,1,1737.5,1295)">
    <path d="M250,270 L37.5,270" fill-rule="evenodd" vector-effect="none" />
   </g>
   <g fill="none" font-family="Sans Serif" font-size="31.75" font-style="normal" font-weight="400" stroke="#000000" stroke-linecap="square" stroke-linejoin="bevel" stroke-opacity="1" stroke-width="1" transform="matrix(0.938532,0.345192,-0.345192,0.938532,1902.29,970.294)">
    <text fill="#000000" fill-opacity="1" font-family="osifont" font-size="67" font-style="normal" font-weight="400" stroke="none" x="4" xml:space="preserve" y="92.2188">2X ⌀8.5 H9</text>
   </g>
   <g fill="none" font-family="Sans Serif" font-size="31.75" font-style="normal" font-weight="400" stroke="#000000" stroke-linecap="square" stroke-linejoin="bevel" stroke-opacity="1" stroke-width="1" transform="matrix(0.938532,0.345192,-0.345192,0.938532,2226.89,1075)">
    <text fill="#000000" fill-opacity="1" font-family="osifont" font-size="33" font-style="normal" font-weight="400" stroke="none" x="4" xml:space="preserve" y="47.4531">+0.036</text>
   </g>
   <g fill="none" font-family="Sans Serif" font-size="31.75" font-style="normal" font-weight="400" stroke="#000000" stroke-linecap="square" stroke-linejoin="bevel" stroke-opacity="1" stroke-width="1" transform="matrix(0.938532,0.345192,-0.345192,0.938532,2214.35,1108.94)">
    <text fill="#000000" fill-opacity="1" font-family="osifont" font-size="33" font-style="normal" font-weight="400" stroke="none" x="4" xml:space="preserve" y="47.4531">+0</text>
   </g>
   <g fill="none" font-family="Sans Serif" font-size="31.75" font-style="normal" font-weight="400" stroke="#000000" stroke-linecap="round" stroke-linejoin="bevel" stroke-opacity="1" stroke-width="3.5" transform="matrix(1,0,0,1,1737.5,1295)">
    <path d="M-105.585,-288.834 L531.317,-54.5816" fill-rule="evenodd" vector-effect="none" />
   </g>
   <g fill="#000000" fill-opacity="1" font-family="Sans Serif" font-size="31.75" font-style="normal" font-weight="400" stroke="#000000" stroke-linecap="round" stroke-linejoin="bevel" stroke-opacity="1" stroke-width="3.5" transform="matrix(1,0,0,1,1777.39,1059.67)">
    <path d="M0,0 L30.835,17.5565 L34.8622,6.60695 L0,0" fill-rule="evenodd" vector-effect="none" />
   </g>
   <g fill="#000000" fill-opacity="1" font-family="Sans Serif" font-size="31.75" font-style="normal" font-weight="400" stroke="#000000" stroke-linecap="round" stroke-linejoin="bevel" stroke-opacity="1" stroke-width="3.5" transform="matrix(1,0,0,1,1697.61,1030.33)">
    <path d="M0,0 L-30.835,-17.5565 L-34.8622,-6.60695 L0,0" fill-rule="evenodd" vector-effect="none" />
   </g>
   <g fill="none" font-family="Sans Serif" font-size="31.75" font-style="normal" font-weight="400" stroke="#000000" stroke-linecap="square" stroke-linejoin="bevel" stroke-opacity="1" stroke-width="1" transform="matrix(1,0,0,1,1695.89,1647)">
    <text fill="#000000" fill-opacity="1" font-family="osifont" font-size="67" font-style="normal" font-weight="400" stroke="none" x="4" xml:space="preserve" y="92.2188">50</text>
   </g>
   <g fill="none" font-family="Sans Serif" font-size="31.75" font-style="normal" font-weight="400" stroke="#000000" stroke-linecap="round" stroke-linejoin="bevel" stroke-opacity="1" stroke-width="3.5" transform="matrix(1,0,0,1,1737.5,1295)">
    <path d="M250,479 L-250,479 M-250,350 L-250,507 M250,350 L250,507" fill-rule="evenodd" vector-effect="none" />
   </g>
   <g fill="#000000" fill-opacity="1" font-family="Sans Serif" font-size="31.75" font-style="normal" font-weight="400" stroke="#000000" stroke-linecap="round" stroke-linejoin="bevel" stroke-opacity="1" stroke-width="3.5" transform="matrix(1,0,0,1,1487.5,1774)">
    <path d="M0,0 L35,5.83333 L35,-5.83333 L0,0" fill-rule="evenodd" vector-effect="none" />
   </g>
   <g fill="#000000" fill-opacity="1" font-family="Sans Serif" font-size="31.75" font-style="normal" font-weight="400" stroke="#000000" stroke-linecap="round" stroke-linejoin="bevel" stroke-opacity="1" stroke-width="3.5" transform="matrix(1,0,0,1,1987.5,1774)">
    <path d="M0,0 L-35,-5.83333 L-35,5.83333 L0,0" fill-rule="evenodd" vector-effect="none" />
   </g>
   <g fill="#ffffff" fill-opacity="1" font-family="Sans Serif" font-size="31.75" font-style="normal" font-weight="400" stroke="none" transform="matrix(1,0,0,1,962.5,445)">
    <path d="M325,-250 L325,250 L-195,250 L-275,250 L-325,250 L-325,-250 L-275,-250 L-195,-250 L325,-250" fill-rule="evenodd" vector-effect="non-scaling-stroke" />
   </g>
   <g fill="#ffffff" fill-opacity="1" font-family="Sans Serif" font-size="31.75" font-style="normal" font-weight="400" stroke="none" transform="matrix(1,0,0,1,962.5,445)">
    <path d="M325,-250 L325,250 L-195,250 L-195,-250 L325,-250" fill-rule="evenodd" vector-effect="non-scaling-stroke" />
   </g>
   <g fill="#ffffff" fill-opacity="1" font-family="Sans Serif" font-size="31.75" font-style="normal" font-weight="400" stroke="none" transform="matrix(1,0,0,1,962.5,445)">
    <path d="M-195,-250 L-195,250 L-275,250 L-275,37.5 C-274.982,33.5883 -274.068,28.0907 -273.332,22.183 C-272.435,15.2532 -271.753,7.61835 -271.771,-7.1827e-11 C-271.753,-7.61516 -272.434,-15.245 -273.331,-22.1731 C-274.067,-28.0847 -274.982,-33.5861 -275,-37.5 L-275,-250 L-195,-250" fill-rule="evenodd" vector-effect="non-scaling-stroke" />
   </g>
   <g fill="#ffffff" fill-opacity="1" font-family="Sans Serif" font-size="31.75" font-style="normal" font-weight="400" stroke="none" transform="matrix(1,0,0,1,962.5,445)">
    <path d="M-275,-250 L-275,-37.5 L-275,37.5 L-275,250 L-325,250 L-325,-250 L-275,-250" fill-rule="evenodd" vector-effect="non-scaling-stroke" />
   </g>
   <g fill="#ffffff" fill-opacity="1" font-family="Sans Serif" font-size="31.75" font-style="normal" font-weight="400" stroke="none" transform="matrix(1,0,0,1,962.5,445)">
    <path d="M-275,37.5 C-274.982,33.5883 -274.068,28.0907 -273.332,22.183 C-272.435,15.2532 -271.753,7.61835 -271.771,-7.1827e-11 C-271.753,-7.61516 -272.434,-15.245 -273.331,-22.1731 C-274.067,-28.0847 -274.982,-33.5861 -275,-37.5 L-275,37.5" fill-rule="evenodd" vector-effect="non-scaling-stroke" />
   </g>
   <g fill="none" font-family="Sans Serif" font-size="31.75" font-style="normal" font-weight="400" stroke="#000000" stroke-linecap="round" stroke-linejoin="bevel" stroke-opacity="1" stroke-width="7" transform="matrix(1,0,0,1,962.5,445)">
    <path d="M325,-250 L-195,-250" fill-rule="evenodd" vector-effect="none" />
   </g>
   <g fill="none" font-family="Sans Serif" font-size="31.75" font-style="normal" font-weight="400" stroke="#000000" stroke-linecap="round" stroke-linejoin="bevel" stroke-opacity="1" stroke-width="7" transform="matrix(1,0,0,1,962.5,445)">
    <path d="M325,-250 L325,250" fill-rule="evenodd" vector-effect="none" />
   </g>
   <g fill="none" font-family="Sans Serif" font-size="31.75" font-style="normal" font-weight="400" stroke="#000000" stroke-linecap="round" stroke-linejoin="bevel" stroke-opacity="1" stroke-width="7" transform="matrix(1,0,0,1,962.5,445)">
    <path d="M325,250 L-195,250" fill-rule="evenodd" vector-effect="none" />
   </g>
   <g fill="none" font-family="Sans Serif" font-size="31.75" font-style="normal" font-weight="400" stroke="#000000" stroke-linecap="round" stroke-linejoin="bevel" stroke-opacity="1" stroke-width="7" transform="matrix(1,0,0,1,962.5,445)">
    <path d="M-195,-250 L-275,-250" fill-rule="evenodd" vector-effect="none" />
   </g>
   <g fill="none" font-family="Sans Serif" font-size="31.75" font-style="normal" font-weight="400" stroke="#000000" stroke-linecap="round" stroke-linejoin="bevel" stroke-opacity="1" stroke-width="7" transform="matrix(1,0,0,1,962.5,445)">
    <path d="M-275,-250 L-325,-250" fill-rule="evenodd" vector-effect="none" />
   </g>
   <g fill="none" font-family="Sans Serif" font-size="31.75" font-style="normal" font-weight="400" stroke="#000000" stroke-linecap="round" stroke-linejoin="bevel" stroke-opacity="1" stroke-width="7" transform="matrix(1,0,0,1,962.5,445)">
    <path d="M-195,250 L-275,250" fill-rule="evenodd" vector-effect="none" />
   </g>
   <g fill="none" font-family="Sans Serif" font-size="31.75" font-style="normal" font-weight="400" stroke="#000000" stroke-linecap="round" stroke-linejoin="bevel" stroke-opacity="1" stroke-width="7" transform="matrix(1,0,0,1,962.5,445)">
    <path d="M-275,37.5 C-274.982,33.5883 -274.068,28.0907 -273.332,22.183 C-272.435,15.2532 -271.753,7.61835 -271.771,-7.1827e-11 C-271.753,-7.61516 -272.434,-15.245 -273.331,-22.1731 C-274.067,-28.0847 -274.982,-33.5861 -275,-37.5 " fill-rule="evenodd" vector-effect="none" />
   </g>
   <g fill="none" font-family="Sans Serif" font-size="31.75" font-style="normal" font-weight="400" stroke="#000000" stroke-linecap="round" stroke-linejoin="bevel" stroke-opacity="1" stroke-width="7" transform="matrix(1,0,0,1,962.5,445)">
    <path d="M-275,250 L-325,250" fill-rule="evenodd" vector-effect="none" />
   </g>
   <g fill="none" font-family="Sans Serif" font-size="31.75" font-style="normal" font-weight="400" stroke="#000000" stroke-linecap="round" stroke-linejoin="bevel" stroke-opacity="1" stroke-width="7" transform="matrix(1,0,0,1,962.5,445)">
    <path d="M-275,-250 L-275,250" fill-rule="evenodd" vector-effect="none" />
   </g>
   <g fill="none" font-family="Sans Serif" font-size="31.75" font-style="normal" font-weight="400" stroke="#000000" stroke-linecap="round" stroke-linejoin="bevel" stroke-opacity="1" stroke-width="7" transform="matrix(1,0,0,1,962.5,445)">
    <path d="M-325,-250 L-325,250" fill-rule="evenodd" vector-effect="none" />
   </g>
   <g fill="none" font-family="Sans Serif" font-size="31.75" font-style="normal" font-weight="400" stroke="#000000" stroke-linecap="round" stroke-linejoin="bevel" stroke-opacity="1" stroke-width="7" transform="matrix(1,0,0,1,962.5,445)">
    <path d="M-195,-250 L-195,250" fill-rule="evenodd" vector-effect="none" />
   </g>
   <g fill="#ffffff" fill-opacity="1" font-family="Sans Serif" font-size="31.75" font-style="normal" font-weight="400" stroke="none" transform="matrix(1,0,0,1,3062.5,1195)">
    <path d="M406.586,357.217 L406.586,316.392 L38.8909,104.103 C7.64893,86.0658 -17.6777,42.1988 -17.6777,6.12372 L-17.6777,-540.929 L-53.033,-561.341 L-406.586,-357.217 L-406.586,295.98 L53.033,561.341 L406.586,357.217" fill-rule="evenodd" vector-effect="non-scaling-stroke" />
   </g>
   <g fill="#ffffff" fill-opacity="1" font-family="Sans Serif" font-size="31.75" font-style="normal" font-weight="400" stroke="none" transform="matrix(1,0,0,1,3062.5,1195)">
    <path d="M-17.6777,6.12372 L-17.6777,-540.929 L-371.231,-336.805 L-371.231,210.248 L-220.971,123.495 C-224.242,118.302 -225.286,110.732 -223.925,102.075 C-221.547,86.9577 -212.243,70.8417 -200.34,61.2245 C-190.489,53.2659 -180.307,50.949 -173.204,55.0498 C-167.569,58.3036 -164.402,65.302 -164.402,74.5053 C-164.402,80.2012 -165.617,86.5105 -167.938,92.8765 L-17.6777,6.12372" fill-rule="evenodd" vector-effect="non-scaling-stroke" />
   </g>
   <g fill="#ffffff" fill-opacity="1" font-family="Sans Serif" font-size="31.75" font-style="normal" font-weight="400" stroke="none" transform="matrix(1,0,0,1,3062.5,1195)">
    <path d="M406.586,316.392 L53.033,520.517 L-314.663,308.227 L38.8909,104.103 L406.586,316.392" fill-rule="evenodd" vector-effect="non-scaling-stroke" />
   </g>
   <g fill="#ffffff" fill-opacity="1" font-family="Sans Serif" font-size="31.75" font-style="normal" font-weight="400" stroke="none" transform="matrix(1,0,0,1,3062.5,1195)">
    <path d="M38.8909,104.103 C7.64893,86.0658 -17.6777,42.1988 -17.6777,6.12372 L-167.938,92.8765 C-170.693,100.447 -173.936,107.419 -177.595,113.089 C-181.86,119.732 -186.774,124.766 -192.171,127.875 C-196.497,130.376 -201.128,131.636 -205.669,131.524 C-209.025,131.44 -212.334,130.604 -215.256,128.921 C-217.493,127.629 -219.503,125.825 -220.971,123.495 L-371.231,210.248 C-371.231,246.323 -345.904,290.19 -314.663,308.227 L38.8909,104.103" fill-rule="evenodd" vector-effect="non-scaling-stroke" />
   </g>
   <g fill="#ffffff" fill-opacity="1" font-family="Sans Serif" font-size="31.75" font-style="normal" font-weight="400" stroke="none" transform="matrix(1,0,0,1,3062.5,1195)">
    <path d="M53.033,561.341 L53.033,520.517 L-314.663,308.227 C-345.904,290.19 -371.231,246.323 -371.231,210.248 L-371.231,-336.805 L-406.586,-357.217 L-406.586,295.98 L53.033,561.341" fill-rule="evenodd" vector-effect="non-scaling-stroke" />
   </g>
   <g fill="#ffffff" fill-opacity="1" font-family="Sans Serif" font-size="31.75" font-style="normal" font-weight="400" stroke="none" transform="matrix(1,0,0,1,3062.5,1195)">
    <path d="M406.586,357.217 L406.586,316.392 L53.033,520.517 L53.033,561.341 L406.586,357.217" fill-rule="evenodd" vector-effect="non-scaling-stroke" />
   </g>
   <g fill="#ffffff" fill-opacity="1" font-family="Sans Serif" font-size="31.75" font-style="normal" font-weight="400" stroke="none" transform="matrix(1,0,0,1,3062.5,1195)">
    <path d="M-17.6777,-540.929 L-53.033,-561.341 L-406.586,-357.217 L-371.231,-336.805 L-17.6777,-540.929" fill-rule="evenodd" vector-effect="non-scaling-stroke" />
   </g>
   <g fill="#ffffff" fill-opacity="1" font-family="Sans Serif" font-size="31.75" font-style="normal" font-weight="400" stroke="none" transform="matrix(1,0,0,1,3062.5,1195)">
    <path d="M-173.204,-353.199 C-167.569,-349.945 -164.402,-342.946 -164.402,-333.743 C-164.402,-319.708 -171.724,-302.827 -182.954,-290.973 C-194.184,-279.118 -207.11,-274.624 -215.704,-279.586 C-222.807,-283.687 -225.892,-293.663 -223.925,-306.173 C-221.547,-321.291 -212.243,-337.407 -200.34,-347.024 C-190.489,-354.982 -180.307,-357.299 -173.204,-353.199 " fill-rule="evenodd" vector-effect="non-scaling-stroke" />
   </g>
   <g fill="#ffffff" fill-opacity="1" font-family="Sans Serif" font-size="31.75" font-style="normal" font-weight="400" stroke="none" transform="matrix(1,0,0,1,3062.5,1195)">
    <path d="M-220.971,123.495 C-224.242,118.302 -225.286,110.732 -223.925,102.075 C-212.021,92.4576 -202.717,76.3417 -200.34,61.2245 C-190.489,53.2659 -180.307,50.949 -173.204,55.0498 C-167.569,58.3036 -164.402,65.302 -164.402,74.5053 C-164.402,80.2012 -165.617,86.5105 -167.938,92.8765 C-170.693,100.447 -173.936,107.419 -177.595,113.089 C-181.86,119.732 -186.774,124.766 -192.171,127.875 C-196.497,130.376 -201.128,131.636 -205.669,131.524 C-209.025,131.44 -212.334,130.604 -215.256,128.921 C-217.493,127.629 -219.503,125.825 -220.971,123.495 " fill-rule="evenodd" vector-effect="non-scaling-stroke" />
   </g>
   <g fill="#ffffff" fill-opacity="1" font-family="Sans Serif" font-size="31.75" font-style="normal" font-weight="400" stroke="none" transform="matrix(1,0,0,1,3062.5,1195)">
    <path d="M-173.204,-353.199 C-167.569,-349.945 -164.402,-342.946 -164.402,-333.743 C-164.402,-319.708 -171.724,-302.827 -182.954,-290.973 C-194.184,-279.118 -207.11,-274.624 -215.704,-279.586 C-222.807,-283.687 -225.892,-293.663 -223.925,-306.173 C-212.021,-315.791 -202.717,-331.907 -200.34,-347.024 C-190.489,-354.982 -180.307,-357.299 -173.204,-353.199 " fill-rule="evenodd" vector-effect="non-scaling-stroke" />
   </g>
   <g fill="#ffffff" fill-opacity="1" font-family="Sans Serif" font-size="31.75" font-style="normal" font-weight="400" stroke="none" transform="matrix(1,0,0,1,3062.5,1195)">
    <path d="M-223.925,102.075 C-212.021,92.4576 -202.717,76.3417 -200.34,61.2245 C-212.243,70.8417 -221.547,86.9577 -223.925,102.075 " fill-rule="evenodd" vector-effect="non-scaling-stroke" />
   </g>
   <g fill="#ffffff" fill-opacity="1" font-family="Sans Serif" font-size="31.75" font-style="normal" font-weight="400" stroke="none" transform="matrix(1,0,0,1,3062.5,1195)">
    <path d="M-223.925,-306.173 C-212.021,-315.791 -202.717,-331.907 -200.34,-347.024 C-212.243,-337.407 -221.547,-321.291 -223.925,-306.173 " fill-rule="evenodd" vector-effect="non-scaling-stroke" />
   </g>
   <g fill="none" font-family="Sans Serif" font-size="31.75" font-style="normal" font-weight="400" stroke="#000000" stroke-linecap="round" stroke-linejoin="bevel" stroke-opacity="1" stroke-width="7" transform="matrix(1,0,0,1,3062.5,1195)">
    <path d="M406.586,316.392 L38.8909,104.103" fill-rule="evenodd" vector-effect="none" />
   </g>
   <g fill="none" font-family="Sans Serif" font-size="31.75" font-style="normal" font-weight="400" stroke="#000000" stroke-linecap="round" stroke-linejoin="bevel" stroke-opacity="1" stroke-width="7" transform="matrix(1,0,0,1,3062.5,1195)">
    <path d="M406.586,316.392 L53.033,520.517" fill-rule="evenodd" vector-effect="none" />
   </g>
   <g fill="none" font-family="Sans Serif" font-size="31.75" font-style="normal" font-weight="400" stroke="#000000" stroke-linecap="round" stroke-linejoin="bevel" stroke-opacity="1" stroke-width="7" transform="matrix(1,0,0,1,3062.5,1195)">
    <path d="M53.033,520.517 L-314.663,308.227" fill-rule="evenodd" vector-effect="none" />
   </g>
   <g fill="none" font-family="Sans Serif" font-size="31.75" font-style="normal" font-weight="400" stroke="#000000" stroke-linecap="round" stroke-linejoin="bevel" stroke-opacity="1" stroke-width="7" transform="matrix(1,0,0,1,3062.5,1195)">
    <path d="M38.8909,104.103 C7.64893,86.0658 -17.6777,42.1988 -17.6777,6.12372 " fill-rule="evenodd" vector-effect="none" />
   </g>
   <g fill="none" font-family="Sans Serif" font-size="31.75" font-style="normal" font-weight="400" stroke="#000000" stroke-linecap="round" stroke-linejoin="bevel" stroke-opacity="1" stroke-width="7" transform="matrix(1,0,0,1,3062.5,1195)">
    <path d="M-17.6777,6.12372 L-17.6777,-540.929" fill-rule="evenodd" vector-effect="none" />
   </g>
   <g fill="none" font-family="Sans Serif" font-size="31.75" font-style="normal" font-weight="400" stroke="#000000" stroke-linecap="round" stroke-linejoin="bevel" stroke-opacity="1" stroke-width="7" transform="matrix(1,0,0,1,3062.5,1195)">
    <path d="M-17.6777,-540.929 L-53.033,-561.341" fill-rule="evenodd" vector-effect="none" />
   </g>
   <g fill="none" font-family="Sans Serif" font-size="31.75" font-style="normal" font-weight="400" stroke="#000000" stroke-linecap="round" stroke-linejoin="bevel" stroke-opacity="1" stroke-width="7" transform="matrix(1,0,0,1,3062.5,1195)">
    <path d="M406.586,357.217 L406.586,316.392" fill-rule="evenodd" vector-effect="none" />
   </g>
   <g fill="none" font-family="Sans Serif" font-size="31.75" font-style="normal" font-weight="400" stroke="#000000" stroke-linecap="round" stroke-linejoin="bevel" stroke-opacity="1" stroke-width="7" transform="matrix(1,0,0,1,3062.5,1195)">
    <path d="M-314.663,308.227 C-345.904,290.19 -371.231,246.323 -371.231,210.248 " fill-rule="evenodd" vector-effect="none" />
   </g>
   <g fill="none" font-family="Sans Serif" font-size="31.75" font-style="normal" font-weight="400" stroke="#000000" stroke-linecap="round" stroke-linejoin="bevel" stroke-opacity="1" stroke-width="7" transform="matrix(1,0,0,1,3062.5,1195)">
    <path d="M-220.971,123.495 C-219.503,125.825 -217.493,127.629 -215.256,128.921 " fill-rule="evenodd" vector-effect="none" />
   </g>
   <g fill="none" font-family="Sans Serif" font-size="31.75" font-style="normal" font-weight="400" stroke="#000000" stroke-linecap="round" stroke-linejoin="bevel" stroke-opacity="1" stroke-width="7" transform="matrix(1,0,0,1,3062.5,1195)">
    <path d="M-215.256,128.921 C-212.334,130.604 -209.025,131.44 -205.669,131.524 C-201.128,131.636 -196.497,130.376 -192.171,127.875 C-186.774,124.766 -181.86,119.732 -177.595,113.089 C-173.936,107.419 -170.693,100.447 -167.938,92.8765 " fill-rule="evenodd" vector-effect="none" />
   </g>
   <g fill="none" font-family="Sans Serif" font-size="31.75" font-style="normal" font-weight="400" stroke="#000000" stroke-linecap="round" stroke-linejoin="bevel" stroke-opacity="1" stroke-width="7" transform="matrix(1,0,0,1,3062.5,1195)">
    <path d="M406.586,357.217 L53.033,561.341" fill-rule="evenodd" vector-effect="none" />
   </g>
   <g fill="none" font-family="Sans Serif" font-size="31.75" font-style="normal" font-weight="400" stroke="#000000" stroke-linecap="round" stroke-linejoin="bevel" stroke-opacity="1" stroke-width="7" transform="matrix(1,0,0,1,3062.5,1195)">
    <path d="M53.033,561.341 L53.033,520.517" fill-rule="evenodd" vector-effect="none" />
   </g>
   <g fill="none" font-family="Sans Serif" font-size="31.75" font-style="normal" font-weight="400" stroke="#000000" stroke-linecap="round" stroke-linejoin="bevel" stroke-opacity="1" stroke-width="7" transform="matrix(1,0,0,1,3062.5,1195)">
    <path d="M-371.231,210.248 L-371.231,-336.805" fill-rule="evenodd" vector-effect="none" />
   </g>
   <g fill="none" font-family="Sans Serif" font-size="31.75" font-style="normal" font-weight="400" stroke="#000000" stroke-linecap="round" stroke-linejoin="bevel" stroke-opacity="1" stroke-width="7" transform="matrix(1,0,0,1,3062.5,1195)">
    <path d="M-371.231,-336.805 L-406.586,-357.217" fill-rule="evenodd" vector-effect="none" />
   </g>
   <g fill="none" font-family="Sans Serif" font-size="31.75" font-style="normal" font-weight="400" stroke="#000000" stroke-linecap="round" stroke-linejoin="bevel" stroke-opacity="1" stroke-width="7" transform="matrix(1,0,0,1,3062.5,1195)">
    <path d="M-406.586,-357.217 L-406.586,295.98" fill-rule="evenodd" vector-effect="none" />
   </g>
   <g fill="none" font-family="Sans Serif" font-size="31.75" font-style="normal" font-weight="400" stroke="#000000" stroke-linecap="round" stroke-linejoin="bevel" stroke-opacity="1" stroke-width="7" transform="matrix(1,0,0,1,3062.5,1195)">
    <path d="M-406.586,295.98 L53.033,561.341" fill-rule="evenodd" vector-effect="none" />
   </g>
   <g fill="none" font-family="Sans Serif" font-size="31.75" font-style="normal" font-weight="400" stroke="#000000" stroke-linecap="round" stroke-linejoin="bevel" stroke-opacity="1" stroke-width="7" transform="matrix(1,0,0,1,3062.5,1195)">
    <path d="M-164.402,74.5053 C-164.402,80.2012 -165.617,86.5105 -167.938,92.8765 " fill-rule="evenodd" vector-effect="none" />
   </g>
   <g fill="none" font-family="Sans Serif" font-size="31.75" font-style="normal" font-weight="400" stroke="#000000" stroke-linecap="round" stroke-linejoin="bevel" stroke-opacity="1" stroke-width="7" transform="matrix(1,0,0,1,3062.5,1195)">
    <path d="M-220.971,123.495 C-227.977,112.371 -224.308,91.4455 -212.345,74.3035 C-200.382,57.1616 -183.732,48.9714 -173.204,55.0498 " fill-rule="evenodd" vector-effect="none" />
   </g>
   <g fill="none" font-family="Sans Serif" font-size="31.75" font-style="normal" font-weight="400" stroke="#000000" stroke-linecap="round" stroke-linejoin="bevel" stroke-opacity="1" stroke-width="7" transform="matrix(1,0,0,1,3062.5,1195)">
    <path d="M-173.204,55.0498 C-167.569,58.3036 -164.402,65.302 -164.402,74.5053 " fill-rule="evenodd" vector-effect="none" />
   </g>
   <g fill="none" font-family="Sans Serif" font-size="31.75" font-style="normal" font-weight="400" stroke="#000000" stroke-linecap="round" stroke-linejoin="bevel" stroke-opacity="1" stroke-width="7" transform="matrix(1,0,0,1,3062.5,1195)">
    <path d="M-17.6777,-540.929 L-371.231,-336.805" fill-rule="evenodd" vector-effect="none" />
   </g>
   <g fill="none" font-family="Sans Serif" font-size="31.75" font-style="normal" font-weight="400" stroke="#000000" stroke-linecap="round" stroke-linejoin="bevel" stroke-opacity="1" stroke-width="7" transform="matrix(1,0,0,1,3062.5,1195)">
    <path d="M-164.402,-333.743 C-164.402,-319.708 -171.724,-302.827 -182.954,-290.973 C-194.184,-279.118 -207.11,-274.624 -215.704,-279.586 " fill-rule="evenodd" vector-effect="none" />
   </g>
   <g fill="none" font-family="Sans Serif" font-size="31.75" font-style="normal" font-weight="400" stroke="#000000" stroke-linecap="round" stroke-linejoin="bevel" stroke-opacity="1" stroke-width="7" transform="matrix(1,0,0,1,3062.5,1195)">
    <path d="M-215.704,-279.586 C-227.44,-286.362 -227.44,-308.334 -215.704,-328.661 C-203.968,-348.989 -184.94,-359.974 -173.204,-353.199 " fill-rule="evenodd" vector-effect="none" />
   </g>
   <g fill="none" font-family="Sans Serif" font-size="31.75" font-style="normal" font-weight="400" stroke="#000000" stroke-linecap="round" stroke-linejoin="bevel" stroke-opacity="1" stroke-width="7" transform="matrix(1,0,0,1,3062.5,1195)">
    <path d="M-173.204,-353.199 C-167.569,-349.945 -164.402,-342.946 -164.402,-333.743 " fill-rule="evenodd" vector-effect="none" />
   </g>
   <g fill="none" font-family="Sans Serif" font-size="31.75" font-style="normal" font-weight="400" stroke="#000000" stroke-linecap="round" stroke-linejoin="bevel" stroke-opacity="1" stroke-width="7" transform="matrix(1,0,0,1,3062.5,1195)">
    <path d="M-53.033,-561.341 L-406.586,-357.217" fill-rule="evenodd" vector-effect="none" />
   </g>
   <g fill="none" font-family="Sans Serif" font-size="31.75" font-style="normal" font-weight="400" stroke="#000000" stroke-linecap="round" stroke-linejoin="bevel" stroke-opacity="1" stroke-width="7" transform="matrix(1,0,0,1,3062.5,1195)">
    <path d="M-223.925,-306.173 C-212.021,-315.791 -202.717,-331.907 -200.34,-347.024 " fill-rule="evenodd" vector-effect="none" />
   </g>
   <g fill="none" font-family="Sans Serif" font-size="31.75" font-style="normal" font-weight="400" stroke="#000000" stroke-linecap="round" stroke-linejoin="bevel" stroke-opacity="1" stroke-width="7" transform="matrix(1,0,0,1,3062.5,1195)">
    <path d="M-223.925,102.075 C-212.021,92.4576 -202.717,76.3417 -200.34,61.2245 " fill-rule="evenodd" vector-effect="none" />
   </g>
   <g fill="none" font-family="Sans Serif" font-size="31.75" font-style="normal" font-weight="400" stroke="#000000" stroke-linecap="round" stroke-linejoin="bevel" stroke-opacity="1" stroke-width="7" transform="matrix(1,0,0,1,3062.5,1195)">
    <path d="M38.8909,104.103 L-314.663,308.227" fill-rule="evenodd" vector-effect="none" />
   </g>
   <g fill="none" font-family="Sans Serif" font-size="31.75" font-style="normal" font-weight="400" stroke="#000000" stroke-linecap="round" stroke-linejoin="bevel" stroke-opacity="1" stroke-width="7" transform="matrix(1,0,0,1,3062.5,1195)">
    <path d="M-220.971,123.495 L-371.231,210.248" fill-rule="evenodd" vector-effect="none" />
   </g>
   <g fill="none" font-family="Sans Serif" font-size="31.75" font-style="normal" font-weight="400" stroke="#000000" stroke-linecap="round" stroke-linejoin="bevel" stroke-opacity="1" stroke-width="7" transform="matrix(1,0,0,1,3062.5,1195)">
    <path d="M-17.6777,6.12372 L-167.938,92.8765" fill-rule="evenodd" vector-effect="none" />
   </g>
  </g>
 </g>
</svg>