999
FreeCAD v1.0 39285 (Git)
  0
SECTION
  2
HEADER
  9
$ACADVER
  1
AC1014
  9
$ACADMAINTVER
 70
     9
  9
$DWGCODEPAGE
  3
ANSI_1252
  9
$TEXTSTYLE
  7
STANDARD
  9
$DIMSTYLE
  2
STANDARD
  9
$DIMTXSTY
  7
STANDARD
  9
$CMLSTYLE
  2
STANDARD
  9
$LUNITS
 70
2
  9
$INSUNITS
 70
4
  9
$PEXTMAX
 10
50
 20
50
 30
50
  9
$PEXTMIN
 10
0
 20
0
 30
0
  9
$HANDSEED
  5
FFFF
  0
ENDSEC
  0
SECTION
  2
CLASSES
  0
CLASS
  1
ACDBDICTIONARYWDFLT
  2
AcDbDictionaryWithDefault
  3
ObjectDBX Classes
 90
        0
280
     0
281
     0
  0
CLASS
  1
XRECORD
  2
AcDbXrecord
  3
ObjectDBX Classes
 90
        0
280
     0
281
     0
  0
CLASS
  1
LWPOLYLINE
  2
AcDbPolyline
  3
ObjectDBX Classes
 90
        0
280
     0
281
     1
  0
ENDSEC
  0
SECTION
  2
TABLES
  0
TABLE
  2
VPORT
  5
20
330
0
100
AcDbSymbolTable
 70
     1
  0
VPORT
  5
21
330
20
100
AcDbSymbolTableRecord
100
AcDbViewportTableRecord
  2
*ACTIVE
 70
     0
  0
ENDTAB
  0
TABLE
  2
LTYPE
  5
22
330
0
100
AcDbSymbolTable
 70
     1
  0
LTYPE
  5
23
330
21
100
AcDbSymbolTableRecord
100
AcDbLinetypeTableRecord
  2
BYBLOCK
 70
     0
  3

 72
    65
 73
     0
 40
0.0
  0
LTYPE
  5
24
330
21
100
AcDbSymbolTableRecord
100
AcDbLinetypeTableRecord
  2
BYLAYER
 70
     0
  3

 72
    65
 73
     0
 40
0.0
  0
LTYPE
  5
25
330
21
100
AcDbSymbolTableRecord
100
AcDbLinetypeTableRecord
  2
CONTINUOUS
 70
     0
  3
Solid line
 72
    65
 73
     0
 40
0.0
  0
ENDTAB
  0
TABLE
  2
LAYER
  5
A4A
330
0
100
AcDbSymbolTable
 70
5
  0
LAYER
  5
A4B
330
A4A
100
AcDbSymbolTableRecord
100
AcDbLayerTableRecord
  2
0
 70
   0
 62
   7
  6
CONTINUOUS
  0
LAYER
  5
A4C
330
A4A
100
AcDbSymbolTableRecord
100
AcDbLayerTableRecord
  2
FRONT
 70
    0
 62
    7
  6
CONTINUOUS
  0
LAYER
  5
A4D
330
A4A
100
AcDbSymbolTableRecord
100
AcDbLayerTableRecord
  2
RIGHT
 70
    0
 62
    7
  6
CONTINUOUS
  0
LAYER
  5
A4E
330
A4A
100
AcDbSymbolTableRecord
100
AcDbLayerTableRecord
  2
TOP
 70
    0
 62
    7
  6
CONTINUOUS
  0
LAYER
  5
A4F
330
A4A
100
AcDbSymbolTableRecord
100
AcDbLayerTableRecord
  2
ISOMETRIC
 70
    0
 62
    7
  6
CONTINUOUS
  0
ENDTAB
  0
TABLE
  2
STYLE
  5
70
330
0
100
AcDbSymbolTable
 70
     2
  0
STYLE
  5
71
330
70
100
AcDbSymbolTableRecord
100
AcDbTextStyleTableRecord
  2
STANDARD
 70
     0
 40
0.0
 41
1.0
 50
0.0
 71
     0
 42
2.5
  3
arial.ttf
  4

  0
STYLE
  5
72
330
70
100
AcDbSymbolTableRecord
100
AcDbTextStyleTableRecord
  2
ANNOTATIVE
 70
     0
 40
0.0
 41
1.0
 50
0.0
 71
     0
 42
2.5
  3
arial.ttf
  4

  0
ENDTAB
  0
TABLE
  2
VIEW
  5
73
330
0
100
AcDbSymbolTable
 70
     0
  0
ENDTAB
  0
TABLE
  2
UCS
  5
74
330
0
100
AcDbSymbolTable
 70
     0
  0
ENDTAB
  0
TABLE
  2
APPID
  5
75
330
0
100
AcDbSymbolTable
 70
     2
  0
APPID
  5
76
330
75
100
AcDbSymbolTableRecord
100
AcDbRegAppTableRecord
  2
ACAD
 70
     0
  0
APPID
  5
77
330
75
100
AcDbSymbolTableRecord
100
AcDbRegAppTableRecord
  2
ACADANNOTATIVE
 70
     0
  0
ENDTAB
  0
TABLE
  2
DIMSTYLE
  5
78
330
0
100
AcDbSymbolTable
 70
     2
  0
DIMSTYLE
105
79
330
78
100
AcDbSymbolTableRecord
100
AcDbDimStyleTableRecord
  2
STANDARD
 70
     0
  3

  4

  5

  6

  7

 40
0.0
 41
2.5
 42
0.625
 43
3.75
 44
1.25
 45
0.0
 46
0.0
 47
0.0
 48
0.0
140
2.5
141
2.5
142
0.0
143
0.03937007874016
144
1.0
145
0.0
146
1.0
147
0.625
 71
     0
 72
     0
 73
     0
 74
     0
 75
     0
 76
     0
 77
     1
 78
     8
170
     0
171
     3
172
     1
173
     0
174
     0
175
     0
176
     0
177
     0
178
     0
270
     2
271
     2
272
     2
273
     2
274
     3
340
71
275
     0
280
     0
281
     0
282
     0
283
     0
284
     8
285
     0
286
     0
287
     3
288
     0
  0
ENDTAB
  0
TABLE
  2
BLOCK_RECORD
  5
A01
330
0
100
AcDbSymbolTable
  70
5
  0
BLOCK_RECORD
  5
A02
330
A01
100
AcDbSymbolTableRecord
100
AcDbBlockTableRecord
  2
*MODEL_SPACE
  0
BLOCK_RECORD
  5
A03
330
A01
100
AcDbSymbolTableRecord
100
AcDbBlockTableRecord
  2
*PAPER_SPACE
  0
ENDTAB
  0
ENDSEC
  0
SECTION
  2
BLOCKS
  0
BLOCK
  5
A04
330
A02
100
AcDbEntity
  8
0
100
AcDbBlockBegin
  2
*MODEL_SPACE
 70
   0
 10
0
 20
0
 30
0
  3
*MODEL_SPACE
  1
 
  0
ENDBLK
  5
A05
330
A02
100
AcDbEntity
  8
0
100
AcDbBlockEnd
  0
BLOCK
  5
A06
330
A03
100
AcDbEntity
 67
1
  8
0
100
AcDbBlockBegin
  2
*PAPER_SPACE
 70
   0
 10
0
 20
0
 30
0
  3
*PAPER_SPACE
  1
 
  0
ENDBLK
  5
A07
330
A03
100
AcDbEntity
 67
    1
  8
0
100
AcDbBlockEnd
  0
ENDSEC
  0
SECTION
  2
ENTITIES
  0
LINE
  5
A08
330
A02
100
AcDbEntity
  8
FRONT
100
AcDbLine
 10
133.250000000
 20
141.500000000
 30
0.000000000
 11
81.250000000
 21
141.500000000
 31
0.000000000
  0
SPLINE
  5
A09
330
A02
100
AcDbEntity
  8
FRONT
100
AcDbSpline
210
0
220
0
230
1
 70
8
 71
2
 72
6
 73
3
 74
0
 40
0.880870746
 40
0.880870746
 40
0.880870746
 40
1.000000000
 40
1.000000000
 40
1.000000000
 10
77.819496582
 20
142.272853524
 30
0.000000000
 10
77.596199864
 20
142.378790650
 30
0.000000000
 10
77.377016654
 20
142.500000000
 30
0.000000000
  0
SPLINE
  5
A0A
330
A02
100
AcDbEntity
  8
FRONT
100
AcDbSpline
210
0
220
0
230
1
 70
8
 71
3
 72
11
 73
7
 74
0
 40
0.000000000
 40
0.000000000
 40
0.000000000
 40
0.000000000
 40
0.091169057
 40
0.091169057
 40
0.091169057
 40
0.134474819
 40
0.134474819
 40
0.134474819
 40
0.134474819
 10
77.377016654
 20
142.500000000
 30
0.000000000
 10
76.847571614
 20
142.792642673
 30
0.000000000
 10
76.335096269
 20
143.155945363
 30
0.000000000
 10
75.867591662
 20
143.581412290
 30
0.000000000
 10
75.644653643
 20
143.784360082
 30
0.000000000
 10
75.435278949
 20
143.997377327
 30
0.000000000
 10
75.239467578
 20
144.220464025
 30
0.000000000
  0
SPLINE
  5
A0B
330
A02
100
AcDbEntity
  8
FRONT
100
AcDbSpline
210
0
220
0
230
1
 70
8
 71
1
 72
4
 73
2
 74
0
 40
0.149480879
 40
0.149480879
 40
0.150829258
 40
0.150829258
 10
75.043004232
 20
144.452901478
 30
0.000000000
 10
75.025987861
 20
144.473900834
 30
0.000000000
  0
SPLINE
  5
A0C
330
A02
100
AcDbEntity
  8
FRONT
100
AcDbSpline
210
0
220
0
230
1
 70
8
 71
2
 72
6
 73
3
 74
0
 40
0.177141436
 40
0.177141436
 40
0.177141436
 40
0.225943336
 40
0.225943336
 40
0.225943336
 10
74.716925451
 20
144.882756553
 30
0.000000000
 10
74.451182625
 20
145.262882650
 30
0.000000000
 10
74.269114649
 20
145.592668436
 30
0.000000000
  0
SPLINE
  5
A0D
330
A02
100
AcDbEntity
  8
FRONT
100
AcDbSpline
210
0
220
0
230
1
 70
8
 71
3
 72
11
 73
7
 74
0
 40
0.230382000
 40
0.230382000
 40
0.230382000
 40
0.230382000
 40
0.306635282
 40
0.306635282
 40
0.306635282
 40
0.394462730
 40
0.394462730
 40
0.394462730
 40
0.394462730
 10
74.236599264
 20
145.651336543
 30
0.000000000
 10
74.054179654
 20
145.984419362
 30
0.000000000
 10
73.937278110
 20
146.250603332
 30
0.000000000
 10
73.861019271
 20
146.433574755
 30
0.000000000
 10
73.776562807
 20
146.644768914
 30
0.000000000
 10
73.735393183
 20
146.750243995
 30
0.000000000
 10
73.737510399
 20
146.750000000
 30
0.000000000
  0
ARC
  5
A0E
330
A02
100
AcDbEntity
  8
FRONT
100
AcDbCircle
 10
81.250000000
 20
149.500000000
 30
0.000000000
 40
8.000000000
100
AcDbArc
 50
180.000000000
 51
-90.000000000
  0
LINE
  5
A0F
330
A02
100
AcDbEntity
  8
FRONT
100
AcDbLine
 10
133.250000000
 20
127.500000000
 30
0.000000000
 11
133.250000000
 21
141.500000000
 31
0.000000000
  0
LINE
  5
A10
330
A02
100
AcDbEntity
  8
FRONT
100
AcDbLine
 10
73.250000000
 20
149.500000000
 30
0.000000000
 11
73.250000000
 21
207.500000000
 31
0.000000000
  0
LINE
  5
A11
330
A02
100
AcDbEntity
  8
FRONT
100
AcDbLine
 10
73.250000000
 20
207.500000000
 30
0.000000000
 11
59.250000000
 21
207.500000000
 31
0.000000000
  0
LINE
  5
A12
330
A02
100
AcDbEntity
  8
FRONT
100
AcDbLine
 10
59.250000000
 20
207.500000000
 30
0.000000000
 11
59.250000000
 21
127.500000000
 31
0.000000000
  0
LINE
  5
A13
330
A02
100
AcDbEntity
  8
FRONT
100
AcDbLine
 10
59.250000000
 20
127.500000000
 30
0.000000000
 11
133.250000000
 21
127.500000000
 31
0.000000000
  0
LINE
  5
A14
330
A02
100
AcDbEntity
  8
RIGHT
100
AcDbLine
 10
203.250000000
 20
141.500000000
 30
0.000000000
 11
153.250000000
 21
141.500000000
 31
0.000000000
  0
SPLINE
  5
A15
330
A02
100
AcDbEntity
  8
RIGHT
100
AcDbSpline
210
0
220
0
230
1
 70
8
 71
1
 72
17
 73
15
 74
0
 40
0.000000000
 40
0.000000000
 40
0.112199738
 40
0.224399475
 40
0.336599213
 40
0.448798951
 40
0.560998688
 40
0.673198426
 40
0.785398163
 40
0.897597901
 40
1.009797639
 40
1.121997376
 40
1.234197114
 40
1.346396852
 40
1.458596589
 40
1.570796327
 40
1.570796327
 10
203.250000000
 20
141.500000000
 30
0.000000000
 10
203.250000000
 20
141.550302321
 30
0.000000000
 10
203.250000000
 20
141.700576703
 30
0.000000000
 10
203.250000000
 20
141.948933358
 30
0.000000000
 10
203.250000000
 20
142.292249057
 30
0.000000000
 10
203.250000000
 20
142.726206406
 30
0.000000000
 10
203.250000000
 20
143.245348140
 30
0.000000000
 10
203.250000000
 20
143.843145751
 30
0.000000000
 10
203.250000000
 20
144.512081585
 30
0.000000000
 10
203.250000000
 20
145.243743388
 30
0.000000000
 10
203.250000000
 20
146.028930087
 30
0.000000000
 10
203.250000000
 20
146.857767504
 30
0.000000000
 10
203.250000000
 20
147.719832528
 30
0.000000000
 10
203.250000000
 20
148.604284191
 30
0.000000000
 10
203.250000000
 20
149.500000000
 30
0.000000000
  0
LINE
  5
A16
330
A02
100
AcDbEntity
  8
RIGHT
100
AcDbLine
 10
203.250000000
 20
149.500000000
 30
0.000000000
 11
203.250000000
 21
207.500000000
 31
0.000000000
  0
LINE
  5
A17
330
A02
100
AcDbEntity
  8
RIGHT
100
AcDbLine
 10
203.250000000
 20
127.500000000
 30
0.000000000
 11
203.250000000
 21
141.500000000
 31
0.000000000
  0
SPLINE
  5
A18
330
A02
100
AcDbEntity
  8
RIGHT
100
AcDbSpline
210
0
220
0
230
1
 70
8
 71
3
 72
11
 73
7
 74
0
 40
0.000000000
 40
0.000000000
 40
0.000000000
 40
0.000000000
 40
0.403459582
 40
0.403459582
 40
0.403459582
 40
1.000000000
 40
1.000000000
 40
1.000000000
 40
1.000000000
 10
182.380677910
 20
141.500000000
 30
0.000000000
 10
182.381510002
 20
141.499902814
 30
0.000000000
 10
182.393372382
 20
141.553407718
 30
0.000000000
 10
182.416265048
 20
141.660514713
 30
0.000000000
 10
182.447054658
 20
141.819241973
 30
0.000000000
 10
182.498734085
 20
142.095355874
 30
0.000000000
 10
182.500000000
 20
142.500000000
 30
0.000000000
  0
SPLINE
  5
A19
330
A02
100
AcDbEntity
  8
RIGHT
100
AcDbSpline
210
0
220
0
230
1
 70
8
 71
3
 72
41
 73
37
 74
0
 40
0.000000000
 40
0.000000000
 40
0.000000000
 40
0.000000000
 40
0.124851419
 40
0.124851419
 40
0.124851419
 40
0.186239673
 40
0.186239673
 40
0.186239673
 40
0.239444235
 40
0.239444235
 40
0.239444235
 40
0.306635282
 40
0.306635282
 40
0.306635282
 40
0.394462730
 40
0.394462730
 40
0.394462730
 40
0.482526474
 40
0.482526474
 40
0.482526474
 40
0.549234892
 40
0.549234892
 40
0.549234892
 40
0.603625987
 40
0.603625987
 40
0.603625987
 40
0.709052478
 40
0.709052478
 40
0.709052478
 40
0.812386185
 40
0.812386185
 40
0.812386185
 40
0.915719891
 40
0.915719891
 40
0.915719891
 40
1.000000000
 40
1.000000000
 40
1.000000000
 40
1.000000000
 10
182.500000000
 20
142.500000000
 30
0.000000000
 10
182.498614277
 20
142.898726918
 30
0.000000000
 10
182.448664563
 20
143.438638067
 30
0.000000000
 10
182.197972028
 20
144.073536422
 30
0.000000000
 10
182.074793773
 20
144.383441227
 30
0.000000000
 10
181.900346714
 20
144.711162412
 30
0.000000000
 10
181.670868498
 20
145.021935510
 30
0.000000000
 10
181.472557131
 20
145.291368166
 30
0.000000000
 10
181.234188271
 20
145.546122537
 30
0.000000000
 10
180.968161826
 20
145.767123549
 30
0.000000000
 10
180.632348365
 20
146.046798287
 30
0.000000000
 10
180.254431538
 20
146.272161548
 30
0.000000000
 10
179.859189128
 20
146.433574755
 30
0.000000000
 10
179.342158133
 20
146.645030327
 30
0.000000000
 10
178.795482255
 20
146.749982582
 30
0.000000000
 10
178.250000000
 20
146.750000000
 30
0.000000000
 10
177.703051333
 20
146.749982949
 30
0.000000000
 10
177.154892541
 20
146.644463360
 30
0.000000000
 10
176.636636873
 20
146.431864624
 30
0.000000000
 10
176.244356175
 20
146.271168804
 30
0.000000000
 10
175.869236422
 20
146.047468494
 30
0.000000000
 10
175.535525262
 20
145.770187594
 30
0.000000000
 10
175.263291319
 20
145.544572763
 30
0.000000000
 10
175.019910700
 20
145.283539652
 30
0.000000000
 10
174.818608983
 20
145.007599588
 30
0.000000000
 10
174.424517008
 20
144.469996196
 30
0.000000000
 10
174.205443736
 20
143.896480365
 30
0.000000000
 10
174.101904000
 20
143.425094362
 30
0.000000000
 10
173.999060141
 20
142.959248428
 30
0.000000000
 10
173.991474311
 20
142.579513603
 30
0.000000000
 10
174.005360696
 20
142.286605591
 30
0.000000000
 10
174.020639940
 20
141.993416075
 30
0.000000000
 10
174.058990945
 20
141.785331550
 30
0.000000000
 10
174.084482518
 20
141.656813124
 30
0.000000000
 10
174.106914505
 20
141.552178517
 30
0.000000000
 10
174.118527695
 20
141.499907476
 30
0.000000000
 10
174.119322090
 20
141.500000000
 30
0.000000000
  0
SPLINE
  5
A1A
330
A02
100
AcDbEntity
  8
RIGHT
100
AcDbSpline
210
0
220
0
230
1
 70
8
 71
1
 72
17
 73
15
 74
0
 40
0.000000000
 40
0.000000000
 40
0.112199738
 40
0.224399475
 40
0.336599213
 40
0.448798951
 40
0.560998688
 40
0.673198426
 40
0.785398163
 40
0.897597901
 40
1.009797639
 40
1.121997376
 40
1.234197114
 40
1.346396852
 40
1.458596589
 40
1.570796327
 40
1.570796327
 10
153.250000000
 20
141.500000000
 30
0.000000000
 10
153.250000000
 20
141.550302321
 30
0.000000000
 10
153.250000000
 20
141.700576703
 30
0.000000000
 10
153.250000000
 20
141.948933358
 30
0.000000000
 10
153.250000000
 20
142.292249057
 30
0.000000000
 10
153.250000000
 20
142.726206406
 30
0.000000000
 10
153.250000000
 20
143.245348140
 30
0.000000000
 10
153.250000000
 20
143.843145751
 30
0.000000000
 10
153.250000000
 20
144.512081585
 30
0.000000000
 10
153.250000000
 20
145.243743388
 30
0.000000000
 10
153.250000000
 20
146.028930087
 30
0.000000000
 10
153.250000000
 20
146.857767504
 30
0.000000000
 10
153.250000000
 20
147.719832528
 30
0.000000000
 10
153.250000000
 20
148.604284191
 30
0.000000000
 10
153.250000000
 20
149.500000000
 30
0.000000000
  0
LINE
  5
A1B
330
A02
100
AcDbEntity
  8
RIGHT
100
AcDbLine
 10
203.250000000
 20
127.500000000
 30
0.000000000
 11
153.250000000
 21
127.500000000
 31
0.000000000
  0
LINE
  5
A1C
330
A02
100
AcDbEntity
  8
RIGHT
100
AcDbLine
 10
153.250000000
 20
127.500000000
 30
0.000000000
 11
153.250000000
 21
141.500000000
 31
0.000000000
  0
LINE
  5
A1D
330
A02
100
AcDbEntity
  8
RIGHT
100
AcDbLine
 10
153.250000000
 20
149.500000000
 30
0.000000000
 11
153.250000000
 21
207.500000000
 31
0.000000000
  0
LINE
  5
A1E
330
A02
100
AcDbEntity
  8
RIGHT
100
AcDbLine
 10
203.250000000
 20
207.500000000
 30
0.000000000
 11
153.250000000
 21
207.500000000
 31
0.000000000
  0
CIRCLE
  5
A1F
330
A02
100
AcDbEntity
  8
RIGHT
100
AcDbCircle
 10
178.250000000
 20
192.500000000
 30
0.000000000
 40
4.250000000
  0
LINE
  5
A20
330
A02
100
AcDbEntity
  8
RIGHT
100
AcDbLine
 10
203.250000000
 20
149.500000000
 30
0.000000000
 11
153.250000000
 21
149.500000000
 31
0.000000000
  0
LINE
  5
A21
330
A02
100
AcDbEntity
  8
TOP
100
AcDbLine
 10
133.250000000
 20
277.500000000
 30
0.000000000
 11
81.250000000
 21
277.500000000
 31
0.000000000
  0
LINE
  5
A22
330
A02
100
AcDbEntity
  8
TOP
100
AcDbLine
 10
133.250000000
 20
277.500000000
 30
0.000000000
 11
133.250000000
 21
227.500000000
 31
0.000000000
  0
LINE
  5
A23
330
A02
100
AcDbEntity
  8
TOP
100
AcDbLine
 10
133.250000000
 20
227.500000000
 30
0.000000000
 11
81.250000000
 21
227.500000000
 31
0.000000000
  0
LINE
  5
A24
330
A02
100
AcDbEntity
  8
TOP
100
AcDbLine
 10
81.250000000
 20
256.630677910
 30
0.000000000
 11
81.250000000
 21
248.369322090
 31
0.000000000
  0
SPLINE
  5
A25
330
A02
100
AcDbEntity
  8
TOP
100
AcDbSpline
210
0
220
0
230
1
 70
8
 71
1
 72
17
 73
15
 74
0
 40
0.000000000
 40
0.000000000
 40
0.112199738
 40
0.224399475
 40
0.336599213
 40
0.448798951
 40
0.560998688
 40
0.673198426
 40
0.785398163
 40
0.897597901
 40
1.009797639
 40
1.121997376
 40
1.234197114
 40
1.346396852
 40
1.458596589
 40
1.570796327
 40
1.570796327
 10
81.250000000
 20
277.500000000
 30
0.000000000
 10
80.354284191
 20
277.500000000
 30
0.000000000
 10
79.469832528
 20
277.500000000
 30
0.000000000
 10
78.607767504
 20
277.500000000
 30
0.000000000
 10
77.778930087
 20
277.500000000
 30
0.000000000
 10
76.993743388
 20
277.500000000
 30
0.000000000
 10
76.262081585
 20
277.500000000
 30
0.000000000
 10
75.593145751
 20
277.500000000
 30
0.000000000
 10
74.995348140
 20
277.500000000
 30
0.000000000
 10
74.476206406
 20
277.500000000
 30
0.000000000
 10
74.042249057
 20
277.500000000
 30
0.000000000
 10
73.698933358
 20
277.500000000
 30
0.000000000
 10
73.450576703
 20
277.500000000
 30
0.000000000
 10
73.300302321
 20
277.500000000
 30
0.000000000
 10
73.250000000
 20
277.500000000
 30
0.000000000
  0
LINE
  5
A26
330
A02
100
AcDbEntity
  8
TOP
100
AcDbLine
 10
73.250000000
 20
277.500000000
 30
0.000000000
 11
59.250000000
 21
277.500000000
 31
0.000000000
  0
SPLINE
  5
A27
330
A02
100
AcDbEntity
  8
TOP
100
AcDbSpline
210
0
220
0
230
1
 70
8
 71
3
 72
11
 73
7
 74
0
 40
0.000000000
 40
0.000000000
 40
0.000000000
 40
0.000000000
 40
0.403459582
 40
0.403459582
 40
0.403459582
 40
1.000000000
 40
1.000000000
 40
1.000000000
 40
1.000000000
 10
81.250000000
 20
256.630677910
 30
0.000000000
 10
80.715381355
 20
256.631510002
 30
0.000000000
 10
80.183877156
 20
256.643372382
 30
0.000000000
 10
79.655487401
 20
256.666265048
 30
0.000000000
 10
78.876152131
 20
256.697054658
 30
0.000000000
 10
78.108932664
 20
256.748734085
 30
0.000000000
 10
77.377016654
 20
256.750000000
 30
0.000000000
  0
SPLINE
  5
A28
330
A02
100
AcDbEntity
  8
TOP
100
AcDbSpline
210
0
220
0
230
1
 70
8
 71
3
 72
29
 73
25
 74
0
 40
0.000000000
 40
0.000000000
 40
0.000000000
 40
0.000000000
 40
0.091169057
 40
0.091169057
 40
0.091169057
 40
0.186239673
 40
0.186239673
 40
0.186239673
 40
0.306635282
 40
0.306635282
 40
0.306635282
 40
0.394462730
 40
0.394462730
 40
0.394462730
 40
0.482526474
 40
0.482526474
 40
0.482526474
 40
0.603625987
 40
0.603625987
 40
0.603625987
 40
0.709052478
 40
0.709052478
 40
0.709052478
 40
0.788880251
 40
0.788880251
 40
0.788880251
 40
0.788880251
 10
77.377016654
 20
256.750000000
 30
0.000000000
 10
76.847571614
 20
256.749515078
 30
0.000000000
 10
76.335096269
 20
256.721438296
 30
0.000000000
 10
75.867591662
 20
256.610115261
 30
0.000000000
 10
75.380100307
 20
256.495435282
 30
0.000000000
 10
74.944774639
 20
256.277924105
 30
0.000000000
 10
74.620751292
 20
255.920868498
 30
0.000000000
 10
74.206295240
 20
255.472223051
 30
0.000000000
 10
73.980086771
 20
254.816661615
 30
0.000000000
 10
73.861019271
 20
254.109189128
 30
0.000000000
 10
73.773865697
 20
253.592158133
 30
0.000000000
 10
73.738090293
 20
253.045482255
 30
0.000000000
 10
73.737510399
 20
252.500000000
 30
0.000000000
 10
73.738096539
 20
251.953051333
 30
0.000000000
 10
73.774050354
 20
251.404892541
 30
0.000000000
 10
73.861729207
 20
250.886636873
 30
0.000000000
 10
73.981825991
 20
250.175251292
 30
0.000000000
 10
74.210784420
 20
249.516657045
 30
0.000000000
 10
74.630457830
 20
249.068608983
 30
0.000000000
 10
74.992359208
 20
248.674517008
 30
0.000000000
 10
75.490463046
 20
248.455443736
 30
0.000000000
 10
76.044664133
 20
248.351904000
 30
0.000000000
 10
76.464413122
 20
248.272081006
 30
0.000000000
 10
76.913230911
 20
248.250331946
 30
0.000000000
 10
77.377016637
 20
248.249999981
 30
0.000000000
  0
SPLINE
  5
A29
330
A02
100
AcDbEntity
  8
TOP
100
AcDbSpline
210
0
220
0
230
1
 70
8
 71
3
 72
11
 73
7
 74
0
 40
0.788880251
 40
0.788880251
 40
0.788880251
 40
0.788880251
 40
0.915719891
 40
0.915719891
 40
0.915719891
 40
1.000000000
 40
1.000000000
 40
1.000000000
 40
1.000000000
 10
77.377016637
 20
248.249999981
 30
0.000000000
 10
78.114539439
 20
248.251293372
 30
0.000000000
 10
78.889377827
 20
248.303766228
 30
0.000000000
 10
79.673795818
 20
248.334482518
 30
0.000000000
 10
80.196188297
 20
248.356914505
 30
0.000000000
 10
80.721589691
 20
248.368527695
 30
0.000000000
 10
81.250000000
 20
248.369322090
 30
0.000000000
  0
SPLINE
  5
A2A
330
A02
100
AcDbEntity
  8
TOP
100
AcDbSpline
210
0
220
0
230
1
 70
8
 71
1
 72
17
 73
15
 74
0
 40
0.000000000
 40
0.000000000
 40
0.112199738
 40
0.224399475
 40
0.336599213
 40
0.448798951
 40
0.560998688
 40
0.673198426
 40
0.785398163
 40
0.897597901
 40
1.009797639
 40
1.121997376
 40
1.234197114
 40
1.346396852
 40
1.458596589
 40
1.570796327
 40
1.570796327
 10
81.250000000
 20
227.500000000
 30
0.000000000
 10
80.354284191
 20
227.500000000
 30
0.000000000
 10
79.469832528
 20
227.500000000
 30
0.000000000
 10
78.607767504
 20
227.500000000
 30
0.000000000
 10
77.778930087
 20
227.500000000
 30
0.000000000
 10
76.993743388
 20
227.500000000
 30
0.000000000
 10
76.262081585
 20
227.500000000
 30
0.000000000
 10
75.593145751
 20
227.500000000
 30
0.000000000
 10
74.995348140
 20
227.500000000
 30
0.000000000
 10
74.476206406
 20
227.500000000
 30
0.000000000
 10
74.042249057
 20
227.500000000
 30
0.000000000
 10
73.698933358
 20
227.500000000
 30
0.000000000
 10
73.450576703
 20
227.500000000
 30
0.000000000
 10
73.300302321
 20
227.500000000
 30
0.000000000
 10
73.250000000
 20
227.500000000
 30
0.000000000
  0
LINE
  5
A2B
330
A02
100
AcDbEntity
  8
TOP
100
AcDbLine
 10
73.250000000
 20
227.500000000
 30
0.000000000
 11
59.250000000
 21
227.500000000
 31
0.000000000
  0
LINE
  5
A2C
330
A02
100
AcDbEntity
  8
TOP
100
AcDbLine
 10
73.250000000
 20
277.500000000
 30
0.000000000
 11
73.250000000
 21
227.500000000
 31
0.000000000
  0
LINE
  5
A2D
330
A02
100
AcDbEntity
  8
TOP
100
AcDbLine
 10
59.250000000
 20
277.500000000
 30
0.000000000
 11
59.250000000
 21
227.500000000
 31
0.000000000
  0
LINE
  5
A2E
330
A02
100
AcDbEntity
  8
TOP
100
AcDbLine
 10
81.250000000
 20
248.369322090
 30
0.000000000
 11
81.250000000
 21
227.500000000
 31
0.000000000
  0
LINE
  5
A2F
330
A02
100
AcDbEntity
  8
TOP
100
AcDbLine
 10
81.250000000
 20
277.500000000
 30
0.000000000
 11
81.250000000
 21
256.630677910
 31
0.000000000
  0
LINE
  5
A30
330
A02
100
AcDbEntity
  8
ISOMETRIC
100
AcDbLine
 10
350.090620434
 20
151.372109410
 30
0.000000000
 11
313.321067812
 21
172.601020514
 31
0.000000000
  0
LINE
  5
A31
330
A02
100
AcDbEntity
  8
ISOMETRIC
100
AcDbLine
 10
350.090620434
 20
151.372109410
 30
0.000000000
 11
314.735281374
 21
130.959694887
 31
0.000000000
  0
LINE
  5
A32
330
A02
100
AcDbEntity
  8
ISOMETRIC
100
AcDbLine
 10
314.735281374
 20
130.959694887
 30
0.000000000
 11
277.965728753
 21
152.188605991
 31
0.000000000
  0
LINE
  5
A33
330
A02
100
AcDbEntity
  8
ISOMETRIC
100
AcDbLine
 10
298.564228644
 20
164.081155448
 30
0.000000000
 11
292.722567921
 21
160.708471057
 31
0.000000000
  0
ELLIPSE
  5
A34
330
A02
100
AcDbEntity
  8
ISOMETRIC
100
AcDbEllipse
 10
313.321067812
 20
179.132993162
 30
0.000000000
 11
4.000000000
 21
-6.928203230
 31
0.000000000
 40
0.577350269
 41
-2.356194490
 42
-0.785398163
  0
LINE
  5
A35
330
A02
100
AcDbEntity
  8
ISOMETRIC
100
AcDbLine
 10
307.664213562
 20
182.398979486
 30
0.000000000
 11
307.664213562
 21
229.755781179
 31
0.000000000
  0
LINE
  5
A36
330
A02
100
AcDbEntity
  8
ISOMETRIC
100
AcDbLine
 10
307.664213562
 20
229.755781179
 30
0.000000000
 11
297.764718626
 21
235.471257246
 31
0.000000000
  0
LINE
  5
A37
330
A02
100
AcDbEntity
  8
ISOMETRIC
100
AcDbLine
 10
350.090620434
 20
139.941157277
 30
0.000000000
 11
350.090620434
 21
151.372109410
 31
0.000000000
  0
SPLINE
  5
A38
330
A02
100
AcDbEntity
  8
ISOMETRIC
100
AcDbSpline
210
0
220
0
230
1
 70
8
 71
3
 72
11
 73
7
 74
0
 40
0.000000000
 40
0.000000000
 40
0.000000000
 40
0.000000000
 40
0.403459582
 40
0.403459582
 40
0.403459582
 40
1.000000000
 40
1.000000000
 40
1.000000000
 40
1.000000000
 10
298.564228644
 20
164.081155448
 30
0.000000000
 10
298.186784552
 20
164.299672944
 30
0.000000000
 10
297.819342298
 20
164.565187992
 30
0.000000000
 10
297.461901879
 20
164.877700593
 30
0.000000000
 10
296.932600166
 20
165.338032955
 30
0.000000000
 10
296.426636952
 20
165.897793085
 30
0.000000000
 10
295.909989315
 20
166.527503898
 30
0.000000000
  0
SPLINE
  5
A39
330
A02
100
AcDbEntity
  8
ISOMETRIC
100
AcDbSpline
210
0
220
0
230
1
 70
8
 71
3
 72
11
 73
7
 74
0
 40
0.000000000
 40
0.000000000
 40
0.000000000
 40
0.000000000
 40
0.124851419
 40
0.124851419
 40
0.124851419
 40
0.219487619
 40
0.219487619
 40
0.219487619
 40
0.219487619
 10
295.909989315
 20
166.527503898
 30
0.000000000
 10
295.397143896
 20
167.148023067
 30
0.000000000
 10
294.868969778
 20
167.853016372
 30
0.000000000
 10
294.278505488
 20
168.507623826
 30
0.000000000
 10
293.832459261
 20
169.001628634
 30
0.000000000
 10
293.350709635
 20
169.444893312
 30
0.000000000
 10
292.867296176
 20
169.721570418
 30
0.000000000
  0
SPLINE
  5
A3A
330
A02
100
AcDbEntity
  8
ISOMETRIC
100
AcDbSpline
210
0
220
0
230
1
 70
8
 71
3
 72
29
 73
25
 74
0
 40
0.219487619
 40
0.219487619
 40
0.219487619
 40
0.219487619
 40
0.394462730
 40
0.394462730
 40
0.394462730
 40
0.482526474
 40
0.482526474
 40
0.482526474
 40
0.549234892
 40
0.549234892
 40
0.549234892
 40
0.603625987
 40
0.603625987
 40
0.603625987
 40
0.709052478
 40
0.709052478
 40
0.709052478
 40
0.812386185
 40
0.812386185
 40
0.812386185
 40
0.915719891
 40
0.915719891
 40
0.915719891
 40
1.000000000
 40
1.000000000
 40
1.000000000
 40
1.000000000
 10
292.867296176
 20
169.721570418
 30
0.000000000
 10
291.971383574
 20
170.242545633
 30
0.000000000
 10
291.100275095
 20
170.191159376
 30
0.000000000
 10
290.331265942
 20
169.748381339
 30
0.000000000
 10
289.944929294
 20
169.524837268
 30
0.000000000
 10
289.582745682
 20
169.200217911
 30
0.000000000
 10
289.278281895
 20
168.779260038
 30
0.000000000
 10
289.048225984
 20
168.460579444
 30
0.000000000
 10
288.852347658
 20
168.084735315
 30
0.000000000
 10
288.719551773
 20
167.662532126
 30
0.000000000
 10
288.611087004
 20
167.318662469
 30
0.000000000
 10
288.546189268
 20
166.944279108
 30
0.000000000
 10
288.536315269
 20
166.560313581
 30
0.000000000
 10
288.513553079
 20
165.812729256
 30
0.000000000
 10
288.710857485
 20
165.051669211
 30
0.000000000
 10
289.029523182
 20
164.398262586
 30
0.000000000
 10
289.341149646
 20
163.754011691
 30
0.000000000
 10
289.753967533
 20
163.199425182
 30
0.000000000
 10
290.195871690
 20
162.716471494
 30
0.000000000
 10
290.639109472
 20
162.233655254
 30
0.000000000
 10
291.113398043
 20
161.821237781
 30
0.000000000
 10
291.583387958
 20
161.465767904
 30
0.000000000
 10
291.968637032
 20
161.176226090
 30
0.000000000
 10
292.348363686
 20
160.923793807
 30
0.000000000
 10
292.722567921
 20
160.708471057
 30
0.000000000
  0
ELLIPSE
  5
A3B
330
A02
100
AcDbEntity
  8
ISOMETRIC
100
AcDbEllipse
 10
277.965728753
 20
158.720578639
 30
0.000000000
 11
4.000000000
 21
-6.928203230
 31
0.000000000
 40
0.577350269
 41
-2.356194490
 42
-0.785398163
  0
LINE
  5
A3C
330
A02
100
AcDbEntity
  8
ISOMETRIC
100
AcDbLine
 10
350.090620434
 20
139.941157277
 30
0.000000000
 11
314.735281374
 21
119.528742754
 31
0.000000000
  0
LINE
  5
A3D
330
A02
100
AcDbEntity
  8
ISOMETRIC
100
AcDbLine
 10
314.735281374
 20
119.528742754
 30
0.000000000
 11
314.735281374
 21
130.959694887
 31
0.000000000
  0
LINE
  5
A3E
330
A02
100
AcDbEntity
  8
ISOMETRIC
100
AcDbLine
 10
272.308874503
 20
161.986564962
 30
0.000000000
 11
272.308874503
 21
209.343366656
 31
0.000000000
  0
LINE
  5
A3F
330
A02
100
AcDbEntity
  8
ISOMETRIC
100
AcDbLine
 10
272.308874503
 20
209.343366656
 30
0.000000000
 11
262.409379566
 21
215.058842723
 31
0.000000000
  0
LINE
  5
A40
330
A02
100
AcDbEntity
  8
ISOMETRIC
100
AcDbLine
 10
262.409379566
 20
215.058842723
 30
0.000000000
 11
262.409379566
 21
149.739116248
 31
0.000000000
  0
LINE
  5
A41
330
A02
100
AcDbEntity
  8
ISOMETRIC
100
AcDbLine
 10
262.409379566
 20
149.739116248
 30
0.000000000
 11
314.735281374
 21
119.528742754
 31
0.000000000
  0
LINE
  5
A42
330
A02
100
AcDbEntity
  8
ISOMETRIC
100
AcDbLine
 10
307.664213562
 20
229.755781179
 30
0.000000000
 11
272.308874503
 21
209.343366656
 31
0.000000000
  0
ELLIPSE
  5
A43
330
A02
100
AcDbEntity
  8
ISOMETRIC
100
AcDbEllipse
 10
289.986544033
 20
207.302125204
 30
0.000000000
 11
2.125000000
 21
3.680607966
 31
0.000000000
 40
0.577350269
 41
-3.141592654
 42
-0.785398163
  0
ELLIPSE
  5
A44
330
A02
100
AcDbEntity
  8
ISOMETRIC
100
AcDbEllipse
 10
289.986544033
 20
207.302125204
 30
0.000000000
 11
2.125000000
 21
3.680607966
 31
0.000000000
 40
0.577350269
 41
-0.000000000
 42
-3.141592654
  0
ELLIPSE
  5
A45
330
A02
100
AcDbEntity
  8
ISOMETRIC
100
AcDbEllipse
 10
289.986544033
 20
207.302125204
 30
0.000000000
 11
2.125000000
 21
3.680607966
 31
0.000000000
 40
0.577350269
 41
-0.785398163
 42
-0.000000000
  0
LINE
  5
A46
330
A02
100
AcDbEntity
  8
ISOMETRIC
100
AcDbLine
 10
297.764718626
 20
235.471257246
 30
0.000000000
 11
262.409379566
 21
215.058842723
 31
0.000000000
  0
LINE
  5
A47
330
A02
100
AcDbEntity
  8
ISOMETRIC
100
AcDbLine
 10
292.722567921
 20
160.708471057
 30
0.000000000
 11
277.965728753
 21
152.188605991
 31
0.000000000
  0
LINE
  5
A48
330
A02
100
AcDbEntity
  8
ISOMETRIC
100
AcDbLine
 10
313.321067812
 20
172.601020514
 30
0.000000000
 11
298.564228644
 21
164.081155448
 31
0.000000000
  0
LINE
  5
A49
330
A02
100
AcDbEntity
  8
ISOMETRIC
100
AcDbLine
 10
307.664213562
 20
182.398979486
 30
0.000000000
 11
272.308874503
 21
161.986564962
 31
0.000000000
  0
ENDSEC
  0
SECTION
  2
OBJECTS
  0
DICTIONARY
  5
F000
330
0
100
AcDbDictionary
  3
ACAD_GROUP
350
F001
  0
DICTIONARY
  5
F001
330
F000
100
AcDbDictionary
  0
ENDSEC
  0
EOF